<svg xmlns="http://www.w3.org/2000/svg" viewBox="0 0 1102.84 944.42"><defs><style>.cls-1{opacity:0.2;}.cls-2{fill:#bf956d;}</style></defs><title>Asset 10</title><g id="Layer_2" data-name="Layer 2"><g id="BG"><g class="cls-1"><path class="cls-2" d="M812.14,944.42a1.48,1.48,0,0,1-1.16-.55c-3.85-4.71-7.68-9.43-12.87-15.81l-6.41-.58a1.49,1.49,0,0,1-1.36-1.5v-1.66c0-1.3,0-2.74,0-4.17,0-1.13,0-2.27.06-3.52l-2.59.72h0a1.51,1.51,0,0,1-1.94-1.45.92.92,0,0,1,0-.16c-1-9.85-2-19.2-3-28.82a1.51,1.51,0,0,1,.76-1.46,1.49,1.49,0,0,1,1.64.1,31.78,31.78,0,0,1,3.56,3.34c4.26,4.41,7.14,6.88,12.56,2.37a1.49,1.49,0,0,1,1.2-.33,1.52,1.52,0,0,1,1,.7l7.81,12.68c1.64-1.25,3.19-2.92,3.27-4.81s-1.28-3.9-4.05-6c-5.37-4.09-12.51-9.1-20.2-11.43a489.45,489.45,0,0,0-50.19-12.36c-5.12-1-10.55-.68-16.3-.35-2.73.15-5.55.31-8.43.34h0a1.5,1.5,0,0,1-1.4-1,1.52,1.52,0,0,1,.42-1.67L737,847.6l8.57-7.4-1.37-2.49-.42-.78-51.37,11.55c.07.86.13,1.72.21,2.59l12.68,2.75,8.82,1.91a1.5,1.5,0,0,1,1.15,1.75l-.78,4a1.51,1.51,0,0,1-.66,1,1.55,1.55,0,0,1-1.15.21c-1.7-.39-3.48-.71-5.21-1a50.49,50.49,0,0,1-11.85-3.11c-6.66-3-12.09-2.19-18.77,2.75-20.07,14.88-38.2,28.23-56.84,41-3.76,2.56-10.43,2.52-14.7,1-4.64-1.65-8.9-4.34-13-6.94-1.69-1.07-3.44-2.17-5.17-3.17l-.1-.07-2.13-1.48a1.49,1.49,0,0,1-.19-2.3c1.51-1.48,3-3.14,4.41-4.75,3.23-3.64,6.58-7.4,10.81-9.62,12.33-6.46,25-12.66,37.34-18.65,11.7-5.7,23.79-11.59,35.52-17.7,8.87-4.62,17.31-10,26.25-15.6,3.4-2.15,6.89-4.36,10.47-6.56-12.82-7.67-26.12-10.23-38.59-7.41s-23.57,11-31.78,23.54l16.18,6a1.49,1.49,0,0,1,.9,1.86l-1.07,3.33a1.49,1.49,0,0,1-1.67,1c-1.23-.2-2.49-.33-3.82-.47-3-.3-6.05-.61-8.78-1.89-8.78-4.12-14.11-1.41-20.87,5.05-10.14,9.66-22,17.73-33.5,25.54l-4.95,3.37c-3.19,2.19-9.78,3.22-13.17,1.21-7.78-4.61-15.06-9.79-22.77-15.27-2.91-2.06-5.85-4.15-8.87-6.24a1.54,1.54,0,0,1-.64-1.1,1.48,1.48,0,0,1,.44-1.2c26.53-26.42,59.9-36.44,92.18-46.13,12.07-3.62,24.53-7.36,36.47-11.92-24.79-18-70.5-18.4-95.91-.37-8.33,5.91-16.66,12.12-24.71,18.13-8.3,6.19-16.88,12.59-25.48,18.68-3,2.14-9.33,4-12.65,2.09a227.71,227.71,0,0,1-19.76-13.13c-2.51-1.79-5.1-3.65-7.75-5.48a1.53,1.53,0,0,1-.64-1.11,1.5,1.5,0,0,1,.46-1.2l2.64-2.55,6.37-6.14c-2.72-.21-5.34-.34-7.91-.46-7.79-.39-14.52-.72-20.74-3.07-6.48-2.45-12.14-6.83-18.13-11.46-2.67-2.06-5.44-4.2-8.36-6.23a1.48,1.48,0,0,1-.64-1.25,1.5,1.5,0,0,1,.66-1.23c32.76-21.88,68.47-23.45,103-25,9.77-.43,19.86-.87,29.68-1.78v-.43c0-.5,0-1,0-1.51l-6.86-.62-34.76-3.13a1.5,1.5,0,0,1-.94-2.54l.51-.52c-12.84-2.29-26-4.32-38.69-6.28-31.25-4.83-63.56-9.81-94.11-19.11-42.77-13-88.23-28.81-130.94-55.8a1.5,1.5,0,0,1,.4-2.71c2-.57,3.47-1,4.62-1.38a14.94,14.94,0,0,1,4-.94c57-1.69,102.8,5.91,144.23,23.91l22.46,9.76c29.64,12.89,60.29,26.22,90.52,39.13a97.76,97.76,0,0,0,13.52,4.24c1.65.43,3.34.87,5,1.34l.28-.92c-6.83-4.32-13.83-8.62-20.61-12.79-46.65-28.66-94.88-58.29-118.82-113.59a1.51,1.51,0,0,1,.33-1.67,1.53,1.53,0,0,1,1.69-.28,125,125,0,0,1,15.48,9.18c3.52,2.33,7.17,4.75,10.89,6.79Q438.77,627.2,444,630c25.44,13.82,51.73,28.12,73.11,49.28,5.87,5.82,12.43,6.21,21.68,1.18-8.37-6.7-16.22-14-23.82-21-16.79-15.57-32.64-30.28-54-39.61a1.5,1.5,0,0,1,1-2.81l3.79,1.17q-7.85-9.72-15.34-18.88c-14-17.11-27.14-33.27-39.58-49.93-7.68-10.27-14.38-12.32-26.58-8.12-36,12.39-80.72,27.81-126.48,29.84-23.87,1.08-44.56-1.7-63.26-8.48a1.5,1.5,0,0,1,.09-2.85l3.85-1.12C260.74,540.5,325.06,521.72,392.93,525c-8.32-17.53-19.31-24.8-37.44-25-36-.34-72.23,6.12-114.09,20.35q-13.5,4.59-27,9.14c-28.68,9.7-58.34,19.73-87.36,30-14,4.94-22.27-2-29.18-10.22a1.49,1.49,0,0,1,.09-2c36.08-36.14,78-57.11,128.18-64.12,49.39-6.88,97.24.84,133.42,8.33,2.48.52,5,1,8.13,1.53l1.65.29c-12.63-14.82-23.89-19-48.78-19h-9.75c-43.37,0-88.2-.08-132.55,5-36.19,4.15-73.53,3.22-109.65,2.32-13.48-.33-27.43-.68-41.09-.76-6.13,0-12.26-1.5-18.19-2.91-2.66-.64-5.42-1.29-8.11-1.8a1.5,1.5,0,0,1-.32-2.85c58.48-25.7,118.55-38.74,178.53-38.74h.68c57.1.1,115.86,12,174.76,35.4-9.49-13.26-23.12-21.41-43.51-26.16-6-1.39-12.1-2.68-18-3.93-16.26-3.43-33.08-7-48.74-12.94-29.22-11.12-58.43-23.68-86.68-35.82-13.21-5.68-26.87-11.55-40.35-17.2-15-6.3-30.41-12.57-45.26-18.63L51,346.58a1.51,1.51,0,0,1-.89-1.7,1.53,1.53,0,0,1,1.5-1.19c113.66,2.87,210.06,36.91,294.54,104-7.22-25.66-24.4-36-40.46-42.78-54.25-22.75-101.38-58.4-143-89.86a748.51,748.51,0,0,0-66.65-44.86c-10.43-6.25-22-11.13-33.14-15.85-5-2.13-10.26-4.34-15.32-6.64a1.51,1.51,0,0,1-.7-2.08l1.8-3.34a1.51,1.51,0,0,1,1.48-.79c56.35,5.71,107.28,20.79,151.39,44.85s83,58,115.55,100.89c-6.92-37.13-17.21-67-42.08-91.05-37.44-36.21-64.71-80-83.36-133.88-6-17.35-13.75-34.46-21.24-51-3.05-6.72-6.2-13.67-9.19-20.55a23.36,23.36,0,0,0-3-4.63c-.55-.72-1.13-1.47-1.65-2.24a1.49,1.49,0,0,1-.18-1.37,1.53,1.53,0,0,1,1-.93L163.35,80a1.48,1.48,0,0,1,1.3.25,349.16,349.16,0,0,1,86.26,95c19.79,32.13,35.27,68.93,46.08,109.53-.07-.8-.16-1.59-.25-2.35-1.16-9.27-2.44-18.68-3.68-27.78-2.6-19.22-5.3-39.09-7-58.74C280.46,133.06,288.73,87,312.84,46.63c11.41-19.14,25.05-34.3,41.68-46.34a1.5,1.5,0,0,1,2.12,2.06c-13.15,19-14.59,40.08-16.12,62.4-.15,2.27-.31,4.53-.48,6.8a677.49,677.49,0,0,1-9.77,77.17c-2.91,15.37-7.71,30.61-12.36,45.34-1.52,4.84-3.1,9.84-4.58,14.76-18.49,61.36-4.6,120.37,11.42,170a5.66,5.66,0,0,0,.45,1A38.09,38.09,0,0,0,327.67,364q-.26-4.23-.48-8.48c-.8-14.22-1.62-28.94-3.79-43.17-7.34-48.27.16-91.27,22.92-131.47,18.57-32.78,43.52-61.71,76.28-88.44C436.37,81.16,450,80,463,89.06a1.49,1.49,0,0,1,.55,1.77,1.51,1.51,0,0,1-1.59,1c-25.68-3.29-41.91,7.94-51.07,35.33-.75,2.27-1.38,4.28-1.91,6.13q-7.92,27.63-15.81,55.25c-12.49,43.66-25.39,88.8-38.27,133.15-4.33,14.91-9.12,30-13.75,44.51-2.59,8.16-5.27,16.58-7.84,24.89-.27.89-.62,1.84-1,2.76-.93,2.51-2.08,5.63-1.36,7.11,5.88,12,12.39,24.07,18.69,35.69q2.16,4,4.3,7.94c3.43-17.26,4.38-33.77,5.31-49.77v-.11c4.15-72.25,28-128.22,73-171.1l3.92-3.75c21.26-20.33,43.24-41.35,71-54.25a39.29,39.29,0,0,1,9.88-2.62c1.49-.26,3-.52,4.47-.86a1.51,1.51,0,0,1,1.8,1.13c.2.85.39,1.71.58,2.58l.31,1.33a1.5,1.5,0,0,1-.81,1.68c-1.49.73-3,1.6-4.49,2.45-3.38,1.94-6.89,3.95-10.71,4.71-12.56,2.52-19.73,9.83-22.57,23a21,21,0,0,1-2.73,6.06,31.63,31.63,0,0,0-1.84,3.47L475,223c-10.89,25.79-22.16,52.45-33.05,78.75-2.6,6.32.83,8.5,6.79,11.35,1.12.54,2.19,1.05,3.17,1.62,3.42,2,9.68,2.67,11.34,1.25,9.7-8.29,18.8-17.13,28.43-26.49,3-2.87,5.94-5.77,9-8.7l-27.09-32.05a1.48,1.48,0,0,1,0-2,1.5,1.5,0,0,1,2-.23c3.69,2.56,7.11,5,10.41,7.38,7.84,5.61,14.61,10.46,21.89,14.61,3.29,1.87,9.28,2.21,13.63.78,11-3.62,22-7.92,32.57-12.07q6.29-2.46,12.59-4.88a1.5,1.5,0,0,1,2,1.1l.34,1.65a1.52,1.52,0,0,1-.65,1.56l-41.15,26.75L544.45,297c12.32,9.73,24,18.91,35.48,27.81l2.68,2.08c11.1,8.67,21.58,16.85,36.66,14.52,1.49-.24,2.88.55,4.35,1.38.65.37,1.33.75,2,1.07a1.48,1.48,0,0,1,.89,1.33,1.49,1.49,0,0,1-.81,1.38l-10.26,5.25,161.38,135,1.42-1c-.63-1.21-1.21-2.45-1.78-3.66-1.64-3.49-3.2-6.78-5.51-9.39C756.07,456,740.79,439,726,422.63c-20.81-23.08-42.33-47-63.2-70.7-15.44-17.57-30.56-35.93-45.19-53.69-6.59-8-13.4-16.27-20.15-24.35a1.5,1.5,0,0,1,2.06-2.16c61.29,46.64,111.9,101.9,165.49,160.41l7.43,8.11c2.15-23.42,1.64-24.18-9.88-41.42L762,398q-3.82-5.75-7.67-11.47c-13.6-20.3-27.67-41.3-40.64-62.48S688.11,281,675.91,259.77c-5.29-9.18-10.76-18.68-16.18-28a1.49,1.49,0,0,1,.47-2l3.86-2.55a1.52,1.52,0,0,1,2,.36l112.8,151.78L779,379l5.85-14.95a1.51,1.51,0,0,1,1.4-.95h0a1.49,1.49,0,0,1,1.39.95c2.81,7.1,5.37,14.41,7.85,21.49,5.42,15.49,11,31.5,19.34,45.44,15.34,25.72,32.85,50.76,49.78,75,6.74,9.64,13.71,19.61,20.45,29.48a78.51,78.51,0,0,0,5.08,6.44c.58.69,1.16,1.37,1.73,2.06l.68-.38c-.33-.9-.64-1.81-.94-2.69a49.22,49.22,0,0,0-3.25-8c-8-14.44-16.2-29.05-24.18-43.17l-5.7-10.09c-42.41-75.19-90.37-163.3-122.83-257.66l-.12-.16-.66-.85a1.5,1.5,0,0,1,1-2.39l.49-.06a1.5,1.5,0,0,1,1.6,1l.34,1,1.82,2.22a49.54,49.54,0,0,1,5.67,7.82c42.26,77.41,87.07,159.73,145.31,266.91,3.08,5.66,6,11.53,8.79,17.2q1.71,3.47,3.43,6.91L906,521c-.19-1.45-.32-2.92-.46-4.35-.37-4.06-.73-7.89-2.07-11.34q-5.93-15.29-11.91-30.52C864.89,406.62,837.3,336.15,821,263.08c-.84-3.8-1.36-7.71-1.86-11.49-.24-1.82-.48-3.64-.75-5.45a1.49,1.49,0,0,1,1.08-1.67l.94-.26,4-1.12a1.49,1.49,0,0,1,1.8.92l96.5,255.6c.28-.69.55-1.33.81-1.95,1.18-2.76,2-4.75,1.81-6.36a119.14,119.14,0,0,0-3.5-15.41c-.54-2-1.07-3.92-1.57-5.88-19.68-77.57-40-157.77-46.34-241.15-.31-4.15-.28-8.37-.26-12.45,0-1.89,0-3.78,0-5.66a1.5,1.5,0,0,1,1.43-1.52l2-.08,1.08-.05a1.49,1.49,0,0,1,1.52,1.16l83.11,355.13,2,.1c.35-1.49.78-3,1.21-4.44,1.14-3.94,2.23-7.67,1.82-11.16-5.11-43.61-10.68-87.92-16.06-130.76q-2.15-17.17-4.3-34.33c-.72-5.78-1.47-11.55-2.21-17.32-1.19-9.12-2.41-18.55-3.48-27.84-1.18-10.25-2.23-20.68-3.24-30.76q-.66-6.58-1.33-13.17a1.5,1.5,0,0,1,2.91-.63c29.49,87.18,44.22,160.85,45.93,230.21,3.23-18.89,6-37.93,8.63-56.48,6.59-45.81,13.41-93.18,27.69-138.38a1.5,1.5,0,0,1,2.93.46c-.31,63.73-8.66,127.68-16.74,189.51-2.49,19.1-5.06,38.73-7.37,58.25,15.09-41.21,23.67-84.53,32-126.53,3.74-18.85,7.6-38.35,12-57.38a1.5,1.5,0,0,1,3,.34c-.24,80.36-14.16,160.67-41.39,238.87,18.94-23.67,33-49.83,47.79-77.39l.35-.65c13.37-24.89,27.19-50.63,45.3-74.63a1.5,1.5,0,0,1,2.59,1.47c-2.81,6.89-5.34,13.61-7.79,20.1-5.2,13.81-10.11,26.85-16.74,38.92-12.07,22-25.3,43.75-38.1,64.81-6.64,10.93-13.51,22.23-20.13,33.41a89.25,89.25,0,0,0-5.38,11.55c-.75,1.83-1.53,3.73-2.35,5.57a1.88,1.88,0,0,1-.14.24L918.67,792a1.38,1.38,0,0,1-.52.47c-1.47.79-3,1.5-4.5,2.19-3.31,1.53-6.43,3-8.79,5.18-4.9,4.62-9.39,9.75-14.15,15.19q-2.36,2.72-4.86,5.54l8.42,3.39a1.49,1.49,0,0,1,.67,2.24l-11.87,17.11a1.48,1.48,0,0,1-.88.6c-2.19.53-4.46,1-6.66,1.36-5.1,1-9.92,1.85-14.11,4-4.67,2.39-8.79,6.25-12.77,10-1.18,1.11-2.4,2.25-3.63,3.36a9.2,9.2,0,0,1,1.12,5.21,1.52,1.52,0,0,1-.79,1.18,1.49,1.49,0,0,1-1.42,0c-1.3-.71-2.62-1.39-3.94-2.08-2.77-1.44-5.63-2.94-8.38-4.57-6.78-4-12.64-6.23-20.84-4.7-13.38,2.51-27,4.06-41.49,5.71q-5.46.61-11.15,1.28l69.37,17.27-23.64-16.4a1.5,1.5,0,0,1,.83-2.73l1.15,0,17.92-.38a1.45,1.45,0,0,1,1.08.44,1.5,1.5,0,0,1,.45,1.08c0,2.87.55,4.85,1.74,5.88,1.94,1.69,5.72,1.13,9.37.58,1-.15,2-.3,3-.4a1.54,1.54,0,0,1,1.12.33,1.5,1.5,0,0,1,.54,1l1.1,12.68a1.51,1.51,0,0,1-.56,1.3,1.54,1.54,0,0,1-1.4.26l-4.36-1.39,0,.41,8.71,3.94,3.8,1.73a1.49,1.49,0,0,1,.61,2.22l-8.89,12.82a1.5,1.5,0,0,1-.88.6l-27.07,6.5,6.77,6.46,6.15,5.87a1.5,1.5,0,0,1,.2,1.94l-11.87,17.11a1.49,1.49,0,0,1-1.17.64Zm-18.8-19.8,5.67.5a1.51,1.51,0,0,1,1,.55c4.81,5.93,8.47,10.42,12,14.76L822,926l-5.22-5-8.76-8.36a1.51,1.51,0,0,1,.69-2.55l29.18-7,7.54-10.87-2.16-1L833.77,887a1.5,1.5,0,0,1-.88-1.29c0-.74-.08-1.48-.13-2.23l-.07-1.24a1.48,1.48,0,0,1,.58-1.27,1.47,1.47,0,0,1,1.37-.25l4.3,1.36-.76-8.88-1.34.19c-4.32.65-8.8,1.31-11.78-1.29-1.64-1.43-2.54-3.6-2.73-6.63l-13,.28,21.27,14.75a1.52,1.52,0,0,1,.54,1.78c-.25.65-.51,1.3-.77,1.95l-.08.2a1.49,1.49,0,0,1-1.75.91L749.51,865.6a1.5,1.5,0,0,1,.18-2.94c6.65-.83,13.06-1.56,19.25-2.27,14.4-1.63,28-3.17,41.28-5.67,9.1-1.7,15.74.8,22.93,5.07,2.67,1.59,5.5,3.07,8.23,4.49l1.44.75a7.81,7.81,0,0,0-.87-1.71,1.52,1.52,0,0,1,.13-2.09c1.54-1.35,3-2.77,4.52-4.14,4.13-3.89,8.41-7.9,13.45-10.48,4.58-2.35,9.84-3.33,14.93-4.28,2-.36,4-.74,6-1.2l10.47-15.08-6.71-2.7-2-.79a1.51,1.51,0,0,1-.9-1,1.49,1.49,0,0,1,.35-1.34c2.17-2.42,4.25-4.8,6.27-7.1,4.8-5.5,9.33-10.69,14.35-15.41,2.71-2.54,6.2-4.15,9.58-5.71,1.34-.62,2.72-1.26,4-1.94l93.14-134.25c.79-1.76,1.54-3.59,2.26-5.36a92.28,92.28,0,0,1,5.58-11.94c6.63-11.2,13.5-22.5,20.14-33.44,12.79-21,26-42.79,38-64.7,6.53-11.88,11.4-24.82,16.56-38.52q1.69-4.5,3.47-9.15c-14.68,21-26.57,43.18-38.11,64.68l-.35.65c-15.54,28.92-31.6,58.82-53.54,84.41a1.5,1.5,0,0,1-2.55-1.48c27.29-75.7,42-153.47,43.85-231.38-3.12,14.44-6,29-8.81,43.17-9.1,45.93-18.5,93.43-36.4,138.18a1.5,1.5,0,0,1-2.89-.72c2.65-23.42,5.75-47.17,8.76-70.15,7.62-58.33,15.48-118.54,16.59-178.6C1010,383.32,1003.71,427,997.62,469.23c-3.41,23.73-6.94,48.26-11.47,72.28a1.5,1.5,0,0,1-3-.28c.29-70.3-13-144.43-41.65-232.31,1,10,2,20.26,3.2,30.37,1.07,9.28,2.29,18.7,3.47,27.81q1.13,8.65,2.22,17.32,2.15,17.18,4.3,34.34c5.38,42.84,10.95,87.15,16,130.78.49,4.1-.73,8.29-1.91,12.35-.53,1.81-1.07,3.67-1.44,5.46a1.51,1.51,0,0,1-1.54,1.2l-.7,0-3.68-.19a1.48,1.48,0,0,1-1.38-1.15L877,212.15h-.34c0,1.42,0,2.85,0,4.27,0,4,0,8.17.26,12.2,6.28,83.12,26.6,163.2,46.25,240.64.49,2,1,3.88,1.55,5.82a119.91,119.91,0,0,1,3.58,15.81c.33,2.43-.71,4.86-2,7.94-.67,1.59-1.44,3.39-2.16,5.49a1.49,1.49,0,0,1-1.39,1h0a1.5,1.5,0,0,1-1.4-1l-97.41-258-2.37.66c.2,1.39.38,2.79.57,4.19.49,3.72,1,7.56,1.81,11.23,16.25,72.84,43.8,143.2,70.44,211.25q6,15.27,11.91,30.53c1.5,3.85,1.89,8.07,2.27,12.15.17,1.85.35,3.76.63,5.58a1.5,1.5,0,0,1-1.17,1.7l-5.15,1.09a1.5,1.5,0,0,1-1.65-.8c-1.34-2.64-2.66-5.3-4-8-2.8-5.64-5.69-11.48-8.74-17.1C830.26,391.7,785.45,309.38,743.2,232a29,29,0,0,0-1.89-3c32.3,91.09,78.66,176.19,119.81,249.13l5.69,10.08c8,14.14,16.24,28.75,24.2,43.21a51.8,51.8,0,0,1,3.46,8.49c.43,1.26.88,2.57,1.35,3.81a1.5,1.5,0,0,1-.67,1.85l-2.9,1.61a1.5,1.5,0,0,1-1.89-.37c-.82-1-1.65-2-2.49-3a81.24,81.24,0,0,1-5.27-6.69c-6.73-9.86-13.69-19.82-20.43-29.45-17-24.26-34.5-49.34-49.9-75.15-8.46-14.2-14.12-30.36-19.59-46-2.06-5.86-4.17-11.89-6.42-17.8l-4.44,11.36L780.7,383a1.5,1.5,0,0,1-2.6.35L664.53,230.51l-1.5,1c5.2,8.92,10.42,18,15.48,26.77,12.19,21.17,24.79,43.05,37.75,64.22s27,42.1,40.57,62.38l7.68,11.47.54.82c12.65,18.92,12.6,19.44,10.07,46.74a1.5,1.5,0,0,1-2.6.87l-9.72-10.61c-50.29-54.91-98-107-154.24-151.6,3.83,4.62,7.63,9.24,11.37,13.77,14.61,17.74,29.72,36.09,45.13,53.62,20.85,23.73,42.37,47.59,63.17,70.67C743,437,758.31,454,773.24,470.77c2.6,2.93,4.32,6.57,6,10.1.74,1.57,1.51,3.19,2.33,4.7a1.5,1.5,0,0,1-.46,1.95l-1,.7-2.46,1.7a1.5,1.5,0,0,1-1.81-.08l-164-137.2a1.49,1.49,0,0,1,.28-2.48l9.7-5a4.8,4.8,0,0,0-2.08-.83c-16.37,2.52-27.86-6.45-39-15.12l-2.67-2.08c-11.54-8.9-23.18-18.09-35.5-27.82-6-4.74-12.27-9.69-18.91-14.9a1.52,1.52,0,0,1-.57-1.25,1.48,1.48,0,0,1,.68-1.19l37.6-24.45L555.15,260c-10.65,4.16-21.67,8.47-32.72,12.11-4.49,1.48-11.44,1.61-16.06-1a257.18,257.18,0,0,1-22.14-14.77l-.77-.55,20.39,24.11a1.51,1.51,0,0,1-.11,2.06q-5.1,4.88-10,9.66c-9.68,9.4-18.81,18.27-28.58,26.62-3.08,2.64-11,1.27-14.8-.93-.87-.51-1.89-1-3-1.51-5.12-2.45-12.14-5.81-8.26-15.2,10.89-26.32,22.16-53,33.06-78.78l6.1-14.44a34.58,34.58,0,0,1,2-3.82,18.57,18.57,0,0,0,2.39-5.18c3.07-14.3,11.22-22.59,24.91-25.33,3.35-.67,6.49-2.47,9.81-4.37,1.17-.68,2.38-1.37,3.6-2l0-.2c-.09-.37-.17-.74-.25-1.12-1.06.21-2.13.4-3.17.58a36.28,36.28,0,0,0-9.13,2.38C481.13,181,459.33,201.82,438.25,222l-3.92,3.75c-44.37,42.33-67.93,97.64-72,169.11V395c-1,17.35-2,35.29-6.21,54.24a1.5,1.5,0,0,1-2.79.39c-2.06-3.86-4.15-7.71-6.24-11.55-6.31-11.65-12.84-23.7-18.75-35.81-1.28-2.62,0-6.1,1.24-9.46.34-.92.66-1.79.91-2.61,2.58-8.31,5.26-16.75,7.85-24.91,4.63-14.53,9.41-29.56,13.73-44.44,12.87-44.34,25.78-89.48,38.26-133.13q7.91-27.63,15.81-55.25c.55-1.9,1.19-3.94,2-6.26,8.73-26.11,24.33-38.56,47.49-37.9-10.08-4.44-20.29-2.3-31,6.47-32.46,26.49-57.18,55.15-75.56,87.6-22.42,39.59-29.8,82-22.56,129.54,2.18,14.37,3,29.16,3.81,43.46q.24,4.23.49,8.46a42,42,0,0,1-3.82,19.91,1.51,1.51,0,0,1-1.29.89,1.53,1.53,0,0,1-1.38-.75c-.22-.38-.46-.75-.7-1.12a12.2,12.2,0,0,1-1.58-3C305.73,329.67,291.73,270.1,310.46,208c1.48-4.94,3.06-10,4.59-14.8,4.62-14.65,9.4-29.8,12.28-45a678.27,678.27,0,0,0,9.72-76.84c.17-2.26.32-4.51.48-6.77,1.31-19.21,2.66-39,12.36-56.92-13.45,10.94-24.78,24.27-34.48,40.53C291.65,88,283.51,133.46,289,195.63c1.74,19.57,4.43,39.41,7,58.6,1.23,9.11,2.51,18.53,3.67,27.8a38.13,38.13,0,0,1-.23,13.08A1.52,1.52,0,0,1,298,296.3a1.56,1.56,0,0,1-1.48-1.14c-10.79-44.14-27-84-48.2-118.36a345.84,345.84,0,0,0-84.93-93.69l-3.1.83.3.39A25.83,25.83,0,0,1,164,89.58c3,6.86,6.13,13.8,9.17,20.51,7.52,16.61,15.3,33.78,21.35,51.26C213,214.77,240,258.18,277.12,294.06c26.82,25.94,37,58.31,44.07,98.94a1.49,1.49,0,0,1-2.68,1.14c-33-44.92-72.84-80.29-118.39-105.13-43.49-23.73-93.7-38.66-149.26-44.4l-.56,1c4.56,2.05,9.24,4,13.77,5.94,11.27,4.77,22.91,9.69,33.52,16a753.18,753.18,0,0,1,66.92,45.05C206,344,252.93,379.57,306.83,402.18c16.6,7,36.53,18.84,43.3,49.17a1.49,1.49,0,0,1-2.4,1.49C265,386,170.75,351.28,59.82,347l13.61,5.56c14.86,6.06,30.23,12.33,45.29,18.64,13.5,5.66,27.16,11.53,40.38,17.21,28.22,12.14,57.4,24.68,86.56,35.77,15.44,5.88,32.14,9.4,48.29,12.81,5.95,1.26,12.09,2.55,18.09,3.95,23.2,5.4,38,15.11,48,31.48a1.49,1.49,0,0,1-.14,1.75,1.47,1.47,0,0,1-1.7.42c-60-24.43-119.95-36.87-178.1-37h-.68c-58.1,0-116.28,12.32-173,36.62L10,475c5.76,1.38,11.72,2.8,17.5,2.83,13.7.08,27.66.43,41.16.76,36,.9,73.24,1.82,109.23-2.3,44.52-5.11,89.45-5.08,132.89-5h9.75c27.38,0,39.42,5.23,53.7,23.28a1.49,1.49,0,0,1,.11,1.7,1.51,1.51,0,0,1-1.56.71c-2.13-.4-4-.73-5.65-1-3.18-.57-5.68-1-8.21-1.54-35.94-7.45-83.46-15.12-132.4-8.3s-90.1,27.23-125.49,62.29c7.06,8.11,13.87,12.21,25,8.27,29-10.27,58.71-20.3,87.4-30l27-9.13c42.19-14.35,78.77-20.84,115.09-20.52,20,.19,32.3,8.86,41.17,29a1.5,1.5,0,0,1-.14,1.46,1.51,1.51,0,0,1-1.32.64c-68-3.82-132.65,15-195.18,33.21,17.15,5.53,36.06,7.75,57.65,6.78,42-1.86,80.13-14,125.63-29.68,13.4-4.61,21.52-2.13,30,9.17,12.4,16.6,25.56,32.74,39.5,49.82q9,11,18.45,22.73a1.53,1.53,0,0,1,.22,1.51c17.42,9.53,31.67,22.75,45.52,35.59,8.08,7.5,16.44,15.25,25.37,22.24a1.5,1.5,0,0,1,.58,1.27,1.52,1.52,0,0,1-.73,1.2c-11.35,6.79-20,6.62-27.23-.54-21.08-20.86-47.18-35-72.43-48.77-3.47-1.89-6.94-3.77-10.4-5.68-3.83-2.11-7.53-4.55-11.11-6.92s-7.41-4.9-11.35-7c24.12,52,70.76,80.62,115.9,108.35,7.11,4.37,14.47,8.89,21.62,13.43a1.5,1.5,0,0,1,.63,1.72l-1.07,3.41a1.49,1.49,0,0,1-1.85,1c-2.09-.61-4.26-1.17-6.35-1.72a98.66,98.66,0,0,1-13.94-4.38c-30.24-12.91-60.89-26.24-90.54-39.13l-22.45-9.77c-41-17.82-86.43-25.33-142.94-23.66a13.35,13.35,0,0,0-3.18.8l-1.49.46c41.59,25.73,85.77,41,127.39,53.7,30.34,9.23,62.54,14.21,93.69,19,13.67,2.11,27.8,4.29,41.57,6.8a1.5,1.5,0,0,1,.79,2.54l-.27.27,31.6,2.85,8.25.74a1.5,1.5,0,0,1,1.36,1.51l0,2.89,0,1.78a1.5,1.5,0,0,1-1.35,1.48c-10.33,1-20.93,1.46-31.19,1.91-33.47,1.47-68.06,3-99.63,23.27,2.32,1.67,4.53,3.38,6.68,5,5.8,4.49,11.29,8.73,17.35,11,5.78,2.18,12.29,2.51,19.83,2.88,3.61.18,7.34.36,11.32.77a1.5,1.5,0,0,1,.89,2.57L483.51,813l-1.33,1.27c2.14,1.5,4.24,3,6.28,4.46a228,228,0,0,0,19.5,13c1.77,1,6.71,0,9.44-1.94,8.57-6.06,17.13-12.45,25.41-18.63,8.07-6,16.42-12.25,24.77-18.18,27.6-19.57,76-18.58,101.62,2.09a1.48,1.48,0,0,1,.54,1.39,1.49,1.49,0,0,1-.93,1.17c-12.8,5-26.22,9.07-39.19,13C598.22,820,565.77,829.7,540,854.66q3.76,2.63,7.4,5.23C555,865.33,562.28,870.47,570,875c2.09,1.24,7.39.65,9.95-1.11l5-3.37C596.24,862.8,608,854.8,618,845.31c7.35-7,14-10.41,24.22-5.6a24.39,24.39,0,0,0,7.81,1.63c.89.09,1.81.18,2.72.3l.24-.75-16.58-6.19a1.5,1.5,0,0,1-.89-.92,1.48,1.48,0,0,1,.14-1.28c8.75-14.13,20.73-23.27,34.66-26.42s28.78,0,42.92,9.08a1.5,1.5,0,0,1,0,2.54c-4.28,2.61-8.45,5.25-12.5,7.8-9,5.68-17.48,11-26.47,15.73-11.76,6.12-23.87,12-35.58,17.73-12.28,6-25,12.18-37.27,18.62-3.74,2-6.76,5.36-10,8.95-1.06,1.21-2.16,2.44-3.28,3.61l.61.43c1.76,1,3.52,2.13,5.21,3.2,4,2.52,8.1,5.12,12.42,6.66,3.51,1.24,9.17,1.28,12-.66,18.6-12.71,36.71-26,56.75-40.9,7.48-5.54,14.2-6.49,21.79-3.08A47,47,0,0,0,708,858.68c1.27.23,2.56.46,3.85.72l.2-1-7.37-1.6-13.77-3a1.5,1.5,0,0,1-1.18-1.35c-.14-1.67-.28-3.35-.41-5a1.51,1.51,0,0,1,1.17-1.59l53.74-12.07a1.48,1.48,0,0,1,1.64.74l1,1.77,2,3.55a1.51,1.51,0,0,1-.33,1.86l-9.49,8.2c-6.39,5.51-12.81,11-19.33,16.69,1.39-.06,2.76-.14,4.11-.22,6-.33,11.56-.65,17,.41a493.53,493.53,0,0,1,50.5,12.43c8.14,2.47,15.57,7.67,21.14,11.92,3.59,2.74,5.35,5.61,5.23,8.52s-2.11,5.67-5.91,8.09a1.48,1.48,0,0,1-1.14.2,1.5,1.5,0,0,1-.94-.67l-7.78-12.63c-7.07,4.86-11.77,0-15.27-3.64l-.39-.4L788.73,914l2.85-.8a1.5,1.5,0,0,1,1.9,1.48l0,1.78c0,1.34-.06,2.54-.07,3.73,0,1.44,0,2.86,0,4.15Zm-97.11-11a1.5,1.5,0,0,1-.9-2.7h0l2.73-2a1.5,1.5,0,0,1,1.8,2.4l-.11.08c-.88.67-1.76,1.33-2.65,2A1.45,1.45,0,0,1,696.23,913.61ZM752.32,831c-5.08,0-8.76-3.86-12.14-7.38a41.37,41.37,0,0,0-4.8-4.53,1.49,1.49,0,0,1,.39-2.61c4.75-1.71,9.15-1.67,12.38.12h0a46.71,46.71,0,0,1,7.84,5.84l-4.54-12.19a1.5,1.5,0,0,1,.52-1.74c36.51-26.48,59-34.86,82.91-30.92a1.49,1.49,0,0,1,1.14.89,1.51,1.51,0,0,1-.15,1.44c-.25.36-.45.72-.65,1.07s-.45.77-.68,1.11a4.66,4.66,0,0,1-1.28,1.3l-.31.21c-21.44,14.25-43.61,29-65.57,43.27a11.4,11.4,0,0,1-5.51,1.34c-.69,0-1.34.1-2,.18A14,14,0,0,1,752.32,831Zm-12.94-12.44c1,1,2,2,3,3,4.43,4.63,8,8.37,14.17,5.35l-1.59-1.39a49.48,49.48,0,0,0-8.23-6.28h0A10.61,10.61,0,0,0,739.38,818.55Zm15.28-8.29,5.61,15.07c.46-.05.93-.08,1.38-.12a9.08,9.08,0,0,0,4.1-.86c21.94-14.26,44.11-29,65.54-43.25l.32-.21a2,2,0,0,0,.46-.51,1,1,0,0,0,.11-.17C810.15,777.32,788.75,785.67,754.66,810.26Zm26,17.84a1.51,1.51,0,0,1-.81-2.77l.62-.41c1.24-.84,3.81-2.59,6.52-4,6.42-3.45,13-6.8,19.43-10,14-7.11,28.55-14.47,41.76-23.23h0c16-10.64,30-6.81,46.09-2.38l3.83,1a1.5,1.5,0,0,1,.77,2.4c-2.5,3.06-4.89,6-7.22,8.9C885.64,805,879.94,812.1,874,818.89c-2.11,2.42-6,3.73-8.77,3.91-22.39,1.53-44.78,2.89-66.44,4.2l-18,1.09Zm69.18-38c-13.36,8.86-28,16.25-42.06,23.41-6.38,3.23-13,6.57-19.36,10-.74.4-1.48.82-2.17,1.24l12.34-.75c21.65-1.31,44-2.66,66.42-4.19a10.76,10.76,0,0,0,6.7-2.89c5.89-6.75,11.58-13.79,17.6-21.24q2.82-3.48,5.78-7.13l-1.62-.44c-15.41-4.24-28.72-7.9-43.63,2ZM716,811.8a14.13,14.13,0,0,1-10.16-4.66c-6.13-6.29-12-12.88-18.24-19.86-2.79-3.13-5.67-6.36-8.69-9.69a1.5,1.5,0,0,1,.61-2.42c30.18-10.74,32.78-10,46.29,13.87l.65,1,.08.13a22.67,22.67,0,0,0,2.09,3.17c2.2,3,4.93,6.71,2,10.94a13.15,13.15,0,0,1-3,3C723.15,810.56,719.28,811.8,716,811.8Zm-33.36-34.56c2.48,2.75,4.87,5.43,7.2,8,6.2,7,12.06,13.52,18.15,19.77,5,5.08,10.8,5,17.85-.2a10,10,0,0,0,2.32-2.25c1.63-2.35.32-4.36-1.95-7.45a26,26,0,0,1-2.32-3.54l-.65-1C710.68,768.46,709.61,767.68,682.63,777.24Zm-192,21.94a105.49,105.49,0,0,1-17.4-1.43,1.5,1.5,0,0,1-.37-2.85c3.87-1.73,7.28-3.32,10.57-4.85,6.43-3,12-5.58,17.68-7.69q6-2.22,12-4.51c14.77-5.61,30-11.41,45.54-15.44h0c18.35-4.76,33.94-2,49,8.65a1.5,1.5,0,0,1-.78,2.73c-19.28,1.12-37.42,7-54.95,12.64C532.45,792.72,512.43,799.18,490.65,799.18Zm-11.85-3.67c25.85,3,48.42-4.25,72.22-11.94,16.39-5.29,33.29-10.74,51.3-12.44-13.22-8.12-27-10-42.94-5.82h0c-15.34,4-30.54,9.77-45.23,15.35q-6,2.28-12,4.51c-5.58,2.07-11.08,4.63-17.45,7.6Zm208.93,3.66a1.43,1.43,0,0,1-.58-.12l-40.44-17a1.51,1.51,0,0,1-.92-1.47,1.5,1.5,0,0,1,1.08-1.35c25-7.33,26.54-6.67,42.12,17.62a1.5,1.5,0,0,1-1.26,2.31Zm-36-18.24,32.07,13.48C672.3,776.6,670.06,775.68,651.77,780.93Zm97.12,11.82a1.42,1.42,0,0,1-.42-.06,1.48,1.48,0,0,1-.9-.72l-14.49-26.49a1.5,1.5,0,0,1,1.61-2.19l45.9,8.92A1.5,1.5,0,0,1,781,775l-6.25,3.55c-3.88,2.2-7,4-10.18,5.75-3.93,2.19-7.87,4.36-11.65,6.44l-3.35,1.85A1.51,1.51,0,0,1,748.89,792.75Zm-11.64-25.91,12.23,22.37,2-1.11c3.78-2.08,7.71-4.25,11.64-6.44,3.14-1.75,6.29-3.54,10.16-5.74l2.72-1.54Zm166.4,14a1.53,1.53,0,0,1-.71-.18l-18.26-9.8a1.51,1.51,0,0,1-.79-1.33l0-4.56a1.53,1.53,0,0,1,1.2-1.46,42.08,42.08,0,0,0,4.28-1.24c3.89-1.26,7.56-2.45,9.92-.78h0c3.21,2.3,5.08,6.2,6.89,10,.71,1.48,1.45,3,2.23,4.38a1.49,1.49,0,0,1-.37,1.93l-1.11.87-2.38,1.87A1.52,1.52,0,0,1,903.65,780.83ZM886.9,768.64l16.6,8.91,1.61-1.27.1-.08c-.6-1.13-1.16-2.3-1.7-3.44-1.72-3.6-3.35-7-5.93-8.83-1.13-.81-4.52.3-7.25,1.19-1.13.37-2.3.74-3.41,1Zm-248.74,2.12a14.43,14.43,0,0,1-6.74-1.59c-6.63-3.4-11-12.44-13.32-27.61a1.51,1.51,0,0,1,.74-1.53,1.53,1.53,0,0,1,1.69.13c5,4,10.05,8.08,15.28,12.27L651,764.66a1.53,1.53,0,0,1,.55,1.33,1.48,1.48,0,0,1-.82,1.18C646,769.56,641.86,770.76,638.16,770.76ZM621.74,745c2.25,11.81,5.88,18.87,11,21.53,3.77,1.94,8.53,1.61,14.5-1l-13.36-10.73Zm290.48,24.86a1.52,1.52,0,0,1-1.08-.46c-5.57-5.77-8.86-10.24-8-14.66,1-5.41,7.95-9.59,21.31-15.87a1.51,1.51,0,0,1,2.08,1c2.14,7.6,1.28,14-2.63,19.67-2.83,4.08-7,7.38-10.75,10.07A1.52,1.52,0,0,1,912.22,769.84ZM924,742.35c-10.87,5.18-17.27,9-18,12.92-.47,2.58,1.32,5.73,6.36,11.08a39.33,39.33,0,0,0,9-8.58C924.5,753.27,925.36,748.34,924,742.35ZM658.36,766.52a1.51,1.51,0,0,1-1-.35l-30-25.15a1.51,1.51,0,0,1-.49-1.54l.86-3.21a1.5,1.5,0,0,1,1.48-1.11,45.51,45.51,0,0,0,4.63-.26c4.12-.38,8-.73,10,1.45h0c5.1,5.52,9.35,11.93,13.45,18.12,1.57,2.37,3.2,4.83,4.84,7.19a1.49,1.49,0,0,1-.19,1.94l-2.65,2.51A1.51,1.51,0,0,1,658.36,766.52Zm-28.28-27.19L658.31,763l.73-.7c-1.41-2-2.8-4.15-4.15-6.19-4-6.09-8.21-12.39-13.15-17.73h0c-1-1.1-4.64-.77-7.56-.5-1.26.11-2.56.23-3.78.26Zm45.3,22.85a1.49,1.49,0,0,1-1.41-1L671.78,755c-1.73-4.94-3.36-9.6-5-14.17-.58-1.59-1.25-3.15-1.89-4.65-.3-.71-.6-1.4-.87-2a1.53,1.53,0,0,1,0-1.19,1.48,1.48,0,0,1,.88-.8c25.84-8.86,26.58-8.65,39.18,11.42a1.5,1.5,0,0,1-1.4,2.3l-10.72-1,.09.93c1.72,1.47,3.49,3,5.82,5l3.33,2.83a1.5,1.5,0,0,1-.63,2.6l-17.2,4.11-7.64,1.83A1.39,1.39,0,0,1,675.38,762.18Zm-8-27.77c.07.18.15.36.23.54.66,1.55,1.34,3.14,2,4.81,1.66,4.59,3.3,9.26,5,14.21l1.74,4.94,6.32-1.51L697,754l-1.08-.92c-2.54-2.17-4.41-3.77-6.28-5.35a1.45,1.45,0,0,1-.52-1c-.12-1.11-.22-2.23-.33-3.34a1.49,1.49,0,0,1,1.63-1.63l9.5.83c-4.84-7.66-7.61-11.6-11.39-12.69C684.45,728.68,678.3,730.68,667.4,734.41Zm59,10.72a1.49,1.49,0,0,1-.91-.31,1.52,1.52,0,0,1-.59-1c-.89-8.6-1.45-13.9-2-19.19a1.5,1.5,0,0,1,1.21-1.63l12.33-2.45c42-8.38,51.93-10.38,74.78,8.32a1.5,1.5,0,0,1-.71,2.64l-83.87,13.63ZM726,725.65c.47,4.53,1,9.27,1.69,16.25l79-12.84c-19.9-15.54-29.56-13.61-69.67-5.6Zm-149,7h-.17c-14-1.6-22-11.19-29.69-20.46-5.37-6.47-10.44-12.58-17.45-16.25a1.5,1.5,0,0,1-.75-1.74c.24-.83.48-1.67.71-2.5l.31-1.08a1.53,1.53,0,0,1,1.57-1.09,56,56,0,0,0,6.36,0c5.18-.18,10.53-.36,13.47,2.49h0c8,7.66,14.93,16.54,21.67,25.13,2.58,3.3,5.26,6.71,7.95,10a1.5,1.5,0,0,1-.06,2l-.24.26-2.58,2.79A1.48,1.48,0,0,1,577,732.69ZM532.19,693.9c7,4,12.23,10.3,17.3,16.4,7.51,9.05,14.61,17.59,27,19.31l1.41-1.53c-2.43-3-4.83-6.05-7.16-9-6.68-8.51-13.59-17.31-21.39-24.82h0c-2-2-6.72-1.8-11.28-1.64-1.83.06-3.7.12-5.47,0C532.44,693.05,532.31,693.47,532.19,693.9Zm83.62,28.44c-3.18,0-5.79-.47-7.41-2.18-5.08-5.37-8.52-12-12.15-19.06-1.44-2.79-2.94-5.68-4.54-8.48a1.49,1.49,0,0,1,1.22-2.24c25.11-1.46,25.83-.91,38.56,29.16a1.47,1.47,0,0,1-.14,1.42,1.49,1.49,0,0,1-1.27.66c-2.67-.06-5.42.17-8.09.38C619.79,722.18,617.7,722.34,615.81,722.34Zm-20.32-29.1c1.19,2.17,2.32,4.36,3.42,6.49,3.54,6.84,6.88,13.3,11.66,18.37,1.6,1.68,6.25,1.31,11.18.91,2-.16,4-.33,6.1-.38-5.6-13.2-8.6-20-12.71-23.1C611.24,692.56,605.8,692.66,595.49,693.24Zm273.42,24.35a1.53,1.53,0,0,1-.3,0l-22.17-4.62a1.53,1.53,0,0,1-1-.66,1.5,1.5,0,0,1-.21-1.13c.15-.67.28-1.33.42-2l.34-1.6a1.51,1.51,0,0,1,1-1.11c16.47-5.56,17.38-5.4,24.23,4.45a1.49,1.49,0,0,1,.22,1.23c-.38,1.45-.75,2.89-1.11,4.34A1.5,1.5,0,0,1,868.91,717.59Zm-20.38-7.28,19.28,4c.2-.77.39-1.53.59-2.29-2.89-4.15-4.24-5.87-6.32-6.23-2.42-.43-6.54.93-13.28,3.2l-.16.75C848.6,709.94,848.56,710.13,848.53,710.31Zm-189.4,4.84a1.51,1.51,0,0,1-1.42-1L655.27,707,650,691.7a1.5,1.5,0,0,1,.14-1.27,1.52,1.52,0,0,1,1.07-.7c26.89-3.71,29.44-2.23,34.16,19.79a1.5,1.5,0,0,1-1.24,1.8l-16.34,2.51-8.47,1.31Zm-5.66-22.7c1.6,4.66,3.08,9,4.64,13.57l2,6,7.23-1.11,14.77-2.27C678.13,690.11,676.63,689.29,653.47,692.45Zm72,14.82a25.39,25.39,0,0,1-4.57-.37c-7.45-1.37-10.56-6.48-13.41-14.85a1.5,1.5,0,0,1,1-1.94c24.52-6.38,39.15-3.61,48.91,9.28a1.51,1.51,0,0,1-.85,2.37C742.27,705.23,732.39,707.27,725.44,707.27Zm-14.6-14.66c5.27,14.32,11.67,14.27,42.71,6.79C744.77,689.3,732.12,687.31,710.84,692.61Zm116.45-13.5h-.18l-66.38-7.91L717.32,666c0,.11.09.23.14.35l1.27,3.12a1.45,1.45,0,0,1-.08,1.3,1.49,1.49,0,0,1-1.07.75c-22.31,3.52-24.17,2.25-33.13-22.52a1.49,1.49,0,0,1,.27-1.49,1.52,1.52,0,0,1,1.43-.5c20,4,40.12,6.25,59.57,8.44,28.77,3.22,55.94,6.27,82.88,14.45a1.49,1.49,0,0,1,1,1.64l-.88,6.26A1.5,1.5,0,0,1,827.29,679.11ZM715,662.73h.18l45.94,5.47q32.34,3.85,64.92,7.73l.49-3.52c-26.28-7.82-52.92-10.81-81.11-14-18.67-2.1-37.95-4.26-57.22-8,7.41,20.33,8.82,21.21,27.07,18.38l-.56-1.37c-.53-1.31-.94-2.32-1.1-2.7a1.49,1.49,0,0,1,1.39-2.07ZM607.18,678.08H607a95.2,95.2,0,0,0-10-.29c-7.2,0-13.41.06-17-3.36-7.81-7.5-14.15-16.71-20.87-26.46-2.87-4.17-5.84-8.49-9.09-12.9a1.52,1.52,0,0,1-.08-1.65,1.5,1.5,0,0,1,1.47-.73l10.59,1.2c10.29,1.17,19.17,2.17,28.09,3.43,2.36.32,4.85,2.79,5.7,4.9h0c3.05,7.65,5.86,15.3,9.12,24.15,1.14,3.09,2.32,6.31,3.58,9.7a1.5,1.5,0,0,1-1.41,2Zm-8-3.31c1.9,0,3.82,0,5.74.13-1-2.59-1.88-5.08-2.77-7.5-3.25-8.83-6.05-16.46-9.09-24.08h0a5.78,5.78,0,0,0-3.32-3c-8.89-1.25-17.75-2.25-28-3.41l-7.22-.82c2.5,3.48,4.85,6.89,7.14,10.21,6.62,9.62,12.88,18.71,20.47,26,2.68,2.59,8.6,2.56,14.87,2.53Zm53.45-.38c-11.07,0-14.09-6.62-21.73-28.62a1.49,1.49,0,0,1,1.28-2c15.64-1.41,25.19-1.25,30.85,3.6,5,4.31,6.46,12.06,7.16,23.15a1.49,1.49,0,0,1-1.21,1.56C662,673.47,656.79,674.39,652.67,674.39ZM634.4,646.6c9.19,26.36,10.45,27.17,32.75,22.81-.8-11.28-2.47-16.69-6-19.75C656.51,645.71,647.79,645.48,634.4,646.6Zm-113,13.34a1.55,1.55,0,0,1-1-.37l-35.32-31.11a1.51,1.51,0,0,1,.89-2.63c23.87-1.72,34.23,7.38,36.92,32.45a1.52,1.52,0,0,1-.8,1.49A1.44,1.44,0,0,1,521.43,659.94Zm-31.56-31.29,29.56,26C516.53,635.38,508.36,628.15,489.87,628.65Zm297.58,19.78a17.74,17.74,0,0,1-2.77-.23c-9.87-1.59-19.89-3.29-29.58-4.93-21.71-3.68-44.15-7.49-66.32-10.37C674.22,631,671.2,623.07,670.9,610a1.52,1.52,0,0,1,.56-1.21,1.48,1.48,0,0,1,1.31-.28c9.17,2.37,18.45,4.63,27.42,6.82,32.84,8,63.85,15.58,94.12,28.74a1.48,1.48,0,0,1,.9,1.34,1.5,1.5,0,0,1-.84,1.38A15.4,15.4,0,0,1,787.45,648.43ZM674,611.9c.63,12.19,4.51,16.64,15.2,18,22.22,2.89,44.7,6.7,66.43,10.38,9.68,1.64,19.7,3.34,29.56,4.93a13.33,13.33,0,0,0,4.32,0c-28.9-12.11-58.61-19.36-90-27C691.13,616.2,682.52,614.1,674,611.9Zm-14,16.6-.24,0c-4-.63-8.33-.88-12.52-1.12-17.91-1-36.43-2.06-39.64-31.71a1.52,1.52,0,0,1,.48-1.27,1.49,1.49,0,0,1,1.32-.35c4.32.93,8.6,1.83,12.85,2.73,9,1.92,17.59,3.73,26.3,5.72h0c8,1.85,13.07,3.22,15.1,6.76s.82,8.5-2.22,18.2A1.51,1.51,0,0,1,659.93,628.5Zm-49.16-31.1c3.54,25.09,19.6,26,36.57,27,3.82.21,7.77.44,11.53,1,2.59-8.35,3.42-12.31,2.1-14.6s-5.11-3.47-13.16-5.32c-8.69-2-17.22-3.8-26.26-5.71Zm-22.91,23.66h-.06l-10.93-.41c-11.55-.42-22.45-.81-33.47-1.33-2-.09-4.54-1-5.67-2.65-8-11.19-16.06-22.68-23.83-33.79L508,574.4a1.51,1.51,0,0,1-.06-1.63,1.47,1.47,0,0,1,1.46-.72c25.56,3,48.29,8.47,69,13.93,3.08.81,6.68,4.69,7.42,8h0a173.87,173.87,0,0,1,2.59,17.56c.28,2.53.58,5.14.93,7.85a1.56,1.56,0,0,1-.38,1.2A1.52,1.52,0,0,1,587.86,621.06Zm-75.5-45.62,4,5.72c7.77,11.1,15.8,22.58,23.81,33.78a5.21,5.21,0,0,0,3.37,1.39c11,.51,21.9.91,33.44,1.33l9.17.33c-.26-2.1-.49-4.14-.71-6.13a172.93,172.93,0,0,0-2.54-17.25h0c-.49-2.2-3.24-5.2-5.25-5.73C557.91,583.69,536.38,578.49,512.36,575.44ZM488.73,620.2c-10.19,0-19.55-3.63-26.27-15.76a16.08,16.08,0,0,0-3.7-4,28.12,28.12,0,0,1-3.29-3.26C444,583,432.29,568.43,419.92,553l-14.34-17.83a1.51,1.51,0,0,1,.77-2.39c4.52-1.25,8.62-2.48,12.23-3.56a171.11,171.11,0,0,1,19.53-5.07c25-4.34,48-7.84,70.31-10.71,5.86-.75,14.42-1.07,21.89,1.7,16.53,6.12,32.82,13.66,48.57,21l.2.09c3,1.41,7.52,5.42,7.64,9h0a102.81,102.81,0,0,1-1.29,16.6c-.29,2.22-.59,4.51-.83,6.81a1.53,1.53,0,0,1-.57,1,1.56,1.56,0,0,1-1.14.3c-6.62-1-13.14-1.95-19.6-2.92-15.54-2.33-30.21-4.54-45.17-6.44-9.89-1.26-20.08-2.55-25.42-12.73-.33,2.23-.68,4.57-1.07,7.13a1.52,1.52,0,0,1-1.56,1.27l-27-1.31c4.15,1.78,8.37,3.13,12.51,4.44,2.52.81,5.14,1.64,7.68,2.56,4.4,1.59,9.94,4.87,11.12,8.9,3.18,10.86,5.57,21.66,8.1,33.1.91,4.11,1.83,8.25,2.79,12.4a1.5,1.5,0,0,1-1.13,1.8A70.2,70.2,0,0,1,488.73,620.2Zm-79.38-85.12,12.91,16.06c12.37,15.4,24.05,30,35.54,44.13a23.83,23.83,0,0,0,2.95,2.89,19.07,19.07,0,0,1,4.34,4.83c8.31,15,20.8,16,37,12.54-.84-3.67-1.65-7.32-2.46-10.95-2.52-11.39-4.9-22.15-8.05-32.91-.76-2.62-5.24-5.47-9.26-6.92-2.49-.9-5.07-1.72-7.58-2.52-6.4-2-13-4.15-19.4-7.85a1.5,1.5,0,0,1,.83-2.79c10.73.51,21.48,1,32.74,1.59l1-6.66.7-4.66a1.5,1.5,0,0,1,2.92-.18c3.77,13.21,13.61,14.47,25,15.92,15,1.9,29.68,4.11,45.23,6.44q8.94,1.35,18.06,2.69c.21-1.81.44-3.59.67-5.33a101.37,101.37,0,0,0,1.26-16.12c-.06-1.79-3.09-5.06-5.9-6.36l-.2-.09c-15.7-7.26-31.93-14.77-48.35-20.86-5.39-2-12.65-2.54-20.47-1.53-22.24,2.86-45.19,6.36-70.17,10.69a168.74,168.74,0,0,0-19.18,5C416.41,533,413,534,409.35,535.08Zm342.86,77.08a32.09,32.09,0,0,1-8.59-1.39q-19.38-5.07-38.75-10.2c-29.52-7.8-60-15.86-90.15-23.41-23.18-5.81-24.11-7-25-32.51a1.51,1.51,0,0,1,.62-1.26,1.47,1.47,0,0,1,1.4-.19l29.62,10.89c42,15.43,85.33,31.39,127.69,47.17,2.71,1,4.94,3,7.1,5,1,.88,1.88,1.7,2.84,2.44a1.53,1.53,0,0,1,.55,1.49,1.51,1.51,0,0,1-1.09,1.15A24.36,24.36,0,0,1,752.21,612.16ZM592.82,546.78c.77,22,1.44,22.15,22.63,27.47,30.13,7.56,60.66,15.62,90.18,23.42q19.38,5.12,38.75,10.2A25.62,25.62,0,0,0,754.75,609l-.59-.54c-2-1.84-4-3.57-6.14-4.39-42.35-15.78-85.73-31.73-127.67-47.16Zm217.68,37a1.47,1.47,0,0,1-.73-.19c-10.51-6-21.62-11.39-32.37-16.65-29.16-14.25-59.25-29-81.24-56l2.9,10.36a1.5,1.5,0,0,1-2.14,1.73l-93.84-48.6a1.49,1.49,0,0,1-.62-2.06l3.46-6.27c-2.24-.17-4.51-.25-6.73-.34-6.65-.26-13.52-.53-19.53-2.94-16.15-6.46-32.07-14.2-47.46-21.68q-6.93-3.36-13.86-6.69a20,20,0,0,1-5-3.91c-.77-.75-1.57-1.52-2.46-2.29a1.49,1.49,0,0,1-.19-2.07c2.51-3.11,5-6.12,7.51-9,4.79-5.68,9.33-11.05,13.31-16.79.75-1.07,1.45-2.13,2.09-3.15,2.91-4.55,5.73-6.94,8.89-7.53,4.11-.77,8.14,1.66,11.88,4.4,36.12,26.45,66.28,48.17,94.94,68.35,34.39,24.22,69.49,48.63,103.45,72.24q20.81,14.48,41.62,29c4.41,3.08,8.82,6.13,13.24,9.19l6.36,4.41a1.5,1.5,0,0,1,.62,1,1.48,1.48,0,0,1-.25,1.12l-.71,1-1.93,2.76A1.52,1.52,0,0,1,810.5,583.74Zm-117.88-81.4a1.51,1.51,0,0,1,1.22.62c21.84,30.44,53.89,46.1,84.88,61.25,10.38,5.07,21.11,10.32,31.34,16.06l1-1.44-5.12-3.54q-6.63-4.59-13.25-9.2-20.79-14.51-41.62-29c-34-23.61-69.06-48-103.46-72.24-28.67-20.2-58.85-41.93-95-68.39-4.32-3.16-7.18-4.31-9.56-3.87s-4.48,2.4-6.91,6.19c-.66,1.05-1.39,2.14-2.15,3.25-4.07,5.86-8.65,11.28-13.49,17-2.16,2.55-4.37,5.18-6.56,7.87l1.5,1.43a17.11,17.11,0,0,0,4.18,3.36q6.95,3.33,13.87,6.7c15.35,7.46,31.22,15.17,47.26,21.59,5.53,2.22,11.85,2.47,18.53,2.73,3,.12,6.16.24,9.21.56a1.51,1.51,0,0,1,1.15,2.24c-.34.59-1.73,3.1-3.83,6.91l89.41,46.31-4.06-14.53a1.49,1.49,0,0,1,.79-1.75A1.51,1.51,0,0,1,692.62,502.34Zm31.09,69.12a1.58,1.58,0,0,1-.52-.09l-177.09-66a1.51,1.51,0,0,1-1-1.34,1.49,1.49,0,0,1,.84-1.42c3.57-1.72,6.91-3.38,10.1-5,7.79-3.88,14.52-7.23,21.63-10.05,4.12-1.63,10.39-2.21,14.41-.17,33.09,16.85,76.58,39.17,119.59,62.43h0c4.53,2.45,7.92,6.84,11.19,11.08,1.46,1.89,3,3.84,4.52,5.55a1.49,1.49,0,0,1-.07,2.09l-.51.49-2.09,2A1.53,1.53,0,0,1,723.71,571.46ZM550.43,503.81l172.94,64.42.85-.8c-1.28-1.5-2.51-3.09-3.7-4.64-3.23-4.18-6.28-8.12-10.25-10.27h0c-43-23.25-86.45-45.56-119.52-62.4-3.19-1.62-8.54-1.06-12,.29-7,2.77-13.66,6.1-21.39,9.95Zm325.81,50.46a1.49,1.49,0,0,1-.92-.32c-29.45-22.89-38.58-35-37.6-50a1.5,1.5,0,0,1,2.69-.81c10.25,13.48,19.92,26.21,29.48,38.77l7.54,9.93a1.51,1.51,0,0,1-1.19,2.41Zm-35.48-45.7c1,10.43,8.27,20.07,27,35.49l-.23-.31ZM783.1,531.28a1.5,1.5,0,0,1-.81-.24L591.87,407.31l-42.17-27.4a1.48,1.48,0,0,1-.68-1.12,1.52,1.52,0,0,1,.46-1.22l17.71-17a118.82,118.82,0,0,0-16.8,2.69c-3,.63-6.12,1.28-9.2,1.78s-11.31,1.38-17.61-1.6c-9.31-4.39-17.73-10.31-25.45-16.06-2.63-2-5.58-8.07-4.07-11.11,5-10.05,10.49-19.68,15.77-29,1.71-3,3.38-6,5-8.83a1.5,1.5,0,0,1,1-.74,1.47,1.47,0,0,1,1.24.33L695.39,449l90.68,76.78a1.48,1.48,0,0,1,.25,2l-1.72,2.46-.27.38A1.5,1.5,0,0,1,783.1,531.28ZM552.92,378.43l40.58,26.36L782.7,527.73l.38-.54L693.45,451.3,516.54,301.53q-2,3.56-4.1,7.26c-5.27,9.28-10.71,18.87-15.69,28.85-.55,1.11,1.08,5.81,3.17,7.37,7.59,5.65,15.87,11.47,24.94,15.74,3.9,1.85,9.68,2.35,15.85,1.36,3-.49,5.95-1.11,9.06-1.76,6.69-1.41,13.61-2.86,21.3-2.9h0a1.5,1.5,0,0,1,1,2.58ZM406.1,530.31a1.74,1.74,0,0,1-.39,0,1.53,1.53,0,0,1-.92-.71c-5.73-10.19-7.13-13.75,1.48-20.91,8.05-6.69,16.81-12.75,25.28-18.6,4.12-2.85,8.37-5.79,12.49-8.76,5.64-4.08,11.34-8.26,16.86-12.3,11.21-8.21,22.79-16.7,34.42-24.73C499,441.75,506.13,439,510,441h0c10.89,5.72,21.56,12.25,32.85,19.16,4.2,2.58,8.53,5.23,13,7.95a1.5,1.5,0,0,1-.56,2.77l-14.19,2c-10.32,1.43-19.22,2.67-28.3,4-5.81.87-11.6,3.05-17.2,5.16-8.5,3.2-17.22,6.48-26.63,5.56l2.9,1.79a1.5,1.5,0,0,1,.72,1.29,1.52,1.52,0,0,1-.74,1.28l-65,38.14A1.48,1.48,0,0,1,406.1,530.31Zm100.61-87c-2.77,0-6.95,1.56-9.68,3.45-11.6,8-23.17,16.48-34.36,24.68-5.52,4.05-11.23,8.23-16.88,12.31-4.14,3-8.41,5.94-12.54,8.8-8.41,5.82-17.11,11.83-25.06,18.43-6.52,5.42-6.41,7-1.53,15.8l61.55-36.11-9.27-5.7a1.5,1.5,0,0,1,1.38-2.65c12.22,5.26,22.93,1.22,34.27-3,5.74-2.17,11.68-4.4,17.81-5.32,9.09-1.36,18-2.6,28.32-4l10-1.39-9.46-5.78c-11.25-6.88-21.87-13.39-32.68-19.06h0A4.14,4.14,0,0,0,506.71,443.27ZM392.64,514.93h-.18a1.51,1.51,0,0,1-1.22-.94l-9.39-23.85c-.54,0-1.12,0-1.72.05-2.39.09-4.86.18-6.35-1.29-13.22-13.07-17.09-27.44-11.17-41.56,3.36-8,8.07-15.54,12.64-22.81,2.24-3.57,4.55-7.27,6.66-11l8.27-14.4c11.44-19.91,23.26-40.5,34.54-60.93a113.2,113.2,0,0,0,6.65-15.7c.91-2.48,1.85-5,2.85-7.53a1.51,1.51,0,0,1,2-.81c11.66,5.22,17,7.6,18.12,11.7,1.06,3.81-1.79,7.92-7.46,16.12l-.46.67c-29.38,42.52-49,84.84-59.87,129.37h0a35.94,35.94,0,0,0-.8,7.88l.1-.17c2.16-3.57,4.39-7.26,7.38-10.23,17.33-17.26,36-35.29,58.64-56.72,1.55-1.46,3.8-1.76,6.65-2.14,1.34-.18,2.86-.38,4.48-.74l-.24,0c-1.67-.23-3.39-.46-5.21-.53a1.5,1.5,0,0,1-1.26-2.22l29.54-53.89,1.45-2.64a1.48,1.48,0,0,1,1-.74,1.49,1.49,0,0,1,1.2.22l29.27,20.31a1.5,1.5,0,0,1,.07,2.42q-6,4.64-11.82,9.2c-12.23,9.53-23.79,18.54-35.81,27.27-1.73,1.26-4.14,1.14-6.94.79a1.41,1.41,0,0,1,.46.45,1.49,1.49,0,0,1,0,1.69L393.87,514.29A1.5,1.5,0,0,1,392.64,514.93Zm-10.86-27.8c.41,0,.82,0,1.22.05a1.5,1.5,0,0,1,1.28.94L393,510.27l67.15-96.79-1.23.16c-2.32.31-4.14.56-5,1.36-22.65,21.41-41.27,39.41-58.59,56.66-2.72,2.71-4.76,6.08-6.92,9.66-1,1.63-2,3.32-3.1,4.92a1.5,1.5,0,0,1-2.74-.94c.1-1.4.12-2.87.15-4.29a43.76,43.76,0,0,1,.9-9.67h0c11-44.9,30.73-87.54,60.32-130.37l.46-.66c4.82-7,7.72-11.16,7-13.62s-5.82-5-15-9.12c-.77,2-1.52,4-2.24,6a115.46,115.46,0,0,1-6.84,16.12c-11.29,20.46-23.13,41.06-34.57,61q-4.14,7.2-8.26,14.4c-2.15,3.74-4.48,7.46-6.73,11.05-4.5,7.18-9.15,14.59-12.41,22.38-5.49,13.08-1.95,26,10.51,38.27.56.56,2.62.48,4.12.42C380.6,487.16,381.19,487.13,381.78,487.13Zm3.32-15.44h0Zm75-65.15c1.09.11,2.14.25,3.11.39,2.67.36,5.19.7,6.24-.06,12-8.7,23.51-17.69,35.72-27.21l10.21-8-26.22-18.19-.65,1.18Z"/></g></g></g></svg>