<svg xmlns="http://www.w3.org/2000/svg" viewBox="0 0 628.17 699.31"><defs><style>.cls-1{opacity:0.2;}.cls-2{fill:#bf956d;}</style></defs><title>Asset 14</title><g id="Layer_2" data-name="Layer 2"><g id="BG"><g class="cls-1"><path class="cls-2" d="M409.87,699.31a66.52,66.52,0,0,1-8.06-.44l-2.89-.37c-2.58-.34-5.25-.69-7.86-.86a118.52,118.52,0,0,1-19.43-3.18c-2.95-.69-5.89-1.42-8.83-2.14-3.43-.85-7-1.72-10.47-2.52a128.79,128.79,0,0,0-29.41-3.34h-.19c-5.38,0-10.39-1.22-15.9-2.69-2-.55-4-1.28-6-2-1-.36-2-.72-3-1a63.55,63.55,0,0,1-12.76-5.57l-2.74-1.65c-3.58-2.17-7.29-4.4-10.85-6.76-7.09-4.68-15.38-8-25.35-10.09-4.64-1-9.42-1.78-14-2.54l-4.67-.78c-3.31-.56-6.62-1.29-9.83-2-4-.89-8.15-1.81-12.27-2.37-.6-.09-1.2-.16-1.81-.23a33.43,33.43,0,0,1-5.7-1c-4.68-1.41-10.19-3.13-15.58-5.25a89.72,89.72,0,0,1-8.55-4.1L171,637a35.78,35.78,0,0,1-9.91-6.9,72.23,72.23,0,0,0-7.34-6.59,89,89,0,0,1-7.2-6.57l-1.72-1.68c-.51-.49-1-1-1.48-1.51a24.07,24.07,0,0,0-2.54-2.44c-3.07-2.4-6.72-5.21-10.52-7.8a65.22,65.22,0,0,0-18.75-9.09c-7.33-2.08-14-5.51-20.19-8.84-.57-.31-1.15-.6-1.72-.9a40.93,40.93,0,0,1-4.52-2.58,48.8,48.8,0,0,0-9.29-5c-.89-.37-1.78-.76-2.66-1.15-1.22-.55-2.48-1.1-3.73-1.57-3.74-1.41-8.18-3-12.74-4.59-1.88-.63-3.83-1.22-5.71-1.8-2.63-.81-5.36-1.64-8-2.61a58,58,0,0,0-9.13-2.47c-2.42-.45-4.84-.88-7.27-1.32-2-.36-4.08-.72-6.12-1.1a3.58,3.58,0,0,1-1.4-.65c-.2-.13-.46-.3-.8-.49a1.5,1.5,0,0,1,.53-2.79,35.72,35.72,0,0,1,11.54.52l1.76.29c1.06.17,2.11.35,3.17.49s2.12.27,3.18.39l1.81.22,1.56.2c1,.14,2,.27,3,.36,1.6.13,3.21.23,4.81.34,2.76.18,5.62.37,8.43.69a80.14,80.14,0,0,0,22.5-1c4-.66,8-1.7,11.94-2.7l2.71-.69a154,154,0,0,1,18.54-3.94,29.58,29.58,0,0,0,3.71-.82l1.06-.27,4.09-1.06c2.39-.62,4.86-1.26,7.31-1.83,1.16-.26,2.32-.4,3.44-.54,1-.11,1.86-.22,2.75-.4A63.14,63.14,0,0,1,150,545.23a8.46,8.46,0,0,0,1.77-.22l.23,0a48.65,48.65,0,0,1,12-.67,104.69,104.69,0,0,0,21.86-.22c4.42-.62,8.92-1,13.27-1.42l5.42-.5,1.8-.19c1.84-.2,3.76-.4,5.68-.46,5.93-.18,11.71-.27,17.19-.28.62,0,1.28,0,1.91,0a32.07,32.07,0,0,1,8.55.66,17.61,17.61,0,0,0,3.88.35c.54,0,1.09,0,1.63,0l6.13.29c3.09.13,6.29.28,9.44.47A250.12,250.12,0,0,1,287.92,547c3.12.66,6.33,1.23,9.44,1.78,2.2.39,4.41.78,6.6,1.21a96.26,96.26,0,0,0,12.56,1.44l1,0a13.92,13.92,0,0,1,2.76.26,55.31,55.31,0,0,0,10.49,1.52,42.6,42.6,0,0,1,6.34.83l1.58.28a21.75,21.75,0,0,0,2.52.21,13.36,13.36,0,0,1,5.65,1.15l.16,0,1.79.32,4.64.8,3.57.58,3.22.53,1.34.21c1.1.17,2.25.34,3.39.63s2.29.52,3.42.75a40.86,40.86,0,0,1,6.93,1.84c.49.19,1,.43,1.5.67,1.44.69,2.7,1.28,4.07.83a2.65,2.65,0,0,1,2.54.82c.13.14.23.24.89.17a13.11,13.11,0,0,1,3,.15c1.9.23,3.87.48,5.84.83a11.23,11.23,0,0,1,1.86.54c.29.11.58.21.88.3,2.31.66,4.61,1.44,6.83,2.2A99.83,99.83,0,0,0,413.28,571c.93.2,1.81.48,2.66.75l.45.14a128.38,128.38,0,0,1,15.92,6.63c3,1.41,6.08,2.87,9.17,4.15a52.53,52.53,0,0,1,10.65,6.51l2.08,1.51c9.92,7.06,17.39,13.61,23.51,20.62a91.79,91.79,0,0,1,8.87,11.51c3.53,5.66,6.71,11.62,9.78,17.39l1.93,3.62a56.84,56.84,0,0,0,5,7.49,11.48,11.48,0,0,0,3.15,2.54,27.42,27.42,0,0,0,4.35,2l.44.17c2.89,1.11,5.61,2.15,8.58,1.67a5,5,0,0,1,.95,0,1.52,1.52,0,0,1-.53-1,1.5,1.5,0,0,1,.44-1.27c.17-.16.31-.32.45-.46a4.37,4.37,0,0,1,1.42-1.16,3.21,3.21,0,0,1,2.57-.13,4.84,4.84,0,0,0-1.94-2.1,6.25,6.25,0,0,1-1.78-1.68l-.24-.3a52.25,52.25,0,0,1-8.08-14.51,40.93,40.93,0,0,0-3.24-6.69c-2.84-4.48-5.92-9.11-9.16-13.79-1.63-2.33-3.16-4.76-4.64-7.11s-2.89-4.59-4.42-6.81c-2.59-3.73-5.07-6.94-9.17-8.33l-.94-.33a32.1,32.1,0,0,0-3.36-1,107.24,107.24,0,0,1-14.5-4.85l-.81-.32c-4.7-1.82-9.54-3.55-14.23-5.23l-5.45-2c-1.14-.42-2.28-.82-3.42-1.22-2.25-.79-4.57-1.61-6.83-2.5-1.62-.64-3.23-1.34-4.79-2-2.28-1-4.65-2-7-2.83a98.7,98.7,0,0,1-14.53-6.84c-1.28-.69-2.56-1.38-3.85-2.05-4-2.1-7.91-4.5-11.68-6.82-1.37-.84-2.73-1.68-4.1-2.5-.5-.3-1-.58-1.54-.87-2-1.12-4.35-2.38-5.81-4.79l-.11-.06a5.3,5.3,0,0,1-.47-.28l-.95-.63-2.58-1.74c-1.65-1.13-3.24-2.36-4.77-3.56a49.33,49.33,0,0,0-8-5.48,3.65,3.65,0,0,1-1.14-1,2.2,2.2,0,0,0-.24-.28c-.51-.45-1.07-.9-1.65-1.33l-.73-.49a12.88,12.88,0,0,1-1.21-.86,41.77,41.77,0,0,1-4-4c-.94-1-1.83-2-2.81-2.93-1.48-1.38-2.92-2.83-4.31-4.24a76.39,76.39,0,0,0-8.55-7.81,16.08,16.08,0,0,1-2-1.89l-.63-.64c-.28-.27-.55-.56-.82-.85a11.79,11.79,0,0,0-1.24-1.22l-2.11-1.72a77.87,77.87,0,0,0-6.65-5.08c-2.45-1.6-4.76-3.41-7-5.15-.69-.55-1.39-1.09-2.09-1.63a63.6,63.6,0,0,1-17.3-20.41c-.88-1.63-1.71-3.3-2.51-4.91-.45-.9-.9-1.8-1.36-2.7l-1.57-3c-1.19-2.28-2.41-4.63-3.53-7-.2-.41-.39-.82-.58-1.22a28.56,28.56,0,0,0-3.53-6.24,9.67,9.67,0,0,1-1.44-2.82,40.2,40.2,0,0,0-4.35-8.23l-5.08-6.65c-7.5-9.81-20.05-26.23-21.54-28.53a3.73,3.73,0,0,0-.45-.46,4.47,4.47,0,0,1-.45-.42c-.71-.71-1.51-1.37-2.34-2.07a19.77,19.77,0,0,1-4.44-4.58l-.17-.12a3.72,3.72,0,0,1-.45-.33A102.89,102.89,0,0,0,229,383.14c-1.84-1-3.68-2.06-5.52-3.08-3.31-1.84-6.73-3.74-10.05-5.68a33.09,33.09,0,0,1-6.26-4.42,67.19,67.19,0,0,1-10.89-13c-1.38-2.21-2.69-4.49-4-6.71-.9-1.55-1.79-3.11-2.71-4.65a26.75,26.75,0,0,1-3.07-7.11c-.44-1.71-.9-3.42-1.36-5.12-1.19-4.43-2.43-9-3.25-13.65-.31-.78-2.29-4.62-3-5.68-1-.94-2.89-3.86-8.08-11.95-5.63-8.79-15.06-23.51-16.85-24.75a166.77,166.77,0,0,0-15.17-9c-5.85-3.06-11-7.1-16-11l-.41-.32a7.86,7.86,0,0,1-1-.95c-.16-.18-.31-.35-.48-.51a18.7,18.7,0,0,1-3.08-4,25.09,25.09,0,0,0-1.63-2.36,22.68,22.68,0,0,1-4.31-8c-.31-1.06-.64-2.12-1-3.19a68.27,68.27,0,0,1-3.19-13.82,2.92,2.92,0,0,1-2.15.4,1.5,1.5,0,0,1-1.17-.92,9.93,9.93,0,0,0-4.9-5.12,12.31,12.31,0,0,1-5.88-6.82,44.12,44.12,0,0,0-4.64-9.36,11.82,11.82,0,0,1-1.92-4.9A61,61,0,0,0,84.91,188l-.3-1a15.21,15.21,0,0,1-.47-7.09l-.19-.08a1.49,1.49,0,0,1-1-1.59l0-.33c.62-5,1-7.64,1.3-9.13l-.22-.16c-.1.17-.2.37-.3.56a1.85,1.85,0,0,1-1.65.91,1.61,1.61,0,0,1-1.78-1.08l-.08-.3c-.65-2.37-.65-2.37-3.23-3.7-2.27-1.16-4.68-2.21-7-3.23l-2.76-1.21A45.58,45.58,0,0,1,54,151.59c-5.82-5.71-9.17-13.14-10.55-23.38a19.06,19.06,0,0,0-.33-1.88l-.15.2a1.51,1.51,0,0,1-2.24.16c-.19-.18-.38-.35-.56-.5a6.49,6.49,0,0,1-1.34-1.46c-.5-.82-.93-1.66-1.35-2.48-.35-.66-.69-1.32-1.07-2-4-7-5.7-14.68-7-21.34-.57-3-1.1-6-1.63-9l-.59-3.28c-.29-1.64-.59-3.28-.85-4.92-.17-1.1-.32-2.19-.46-3.3-.07-.56-.14-1.13-.22-1.69a1.51,1.51,0,0,1,.38-1.22l.69-.76a.19.19,0,0,0-.05-.09C24.86,72.19,22.3,68.21,22,63.06a2.87,2.87,0,0,0-1.66-2.79,9.2,9.2,0,0,1-4.45-5.07A26,26,0,0,1,14.37,51a26.9,26.9,0,0,1-.44-11.77,3.42,3.42,0,0,1,6.19-1.62,8.45,8.45,0,0,0-.85-1.77l-.62-1a64.58,64.58,0,0,1-3.76-6.49A61.09,61.09,0,0,0,8.7,18.73c-.67-.9-1.34-1.81-2-2.73C5.37,14.12,4,12.24,2.59,10.42c-.77-1-1.54-2.05-2.3-3.08A1.5,1.5,0,0,1,2.17,5.11a1.44,1.44,0,0,1,.49-.82,1.5,1.5,0,0,1,2.11.15C6.38,6.31,8,8.23,9.51,10.09c2.73,3.3,5.55,6.72,8.54,9.88A102.17,102.17,0,0,0,37.64,36.35a56.51,56.51,0,0,0,12.82,6.46,107.86,107.86,0,0,0,13.69,3.71,39.48,39.48,0,0,1,3.89,1l.4.11c.78.22,1.54.47,2.31.72a36.67,36.67,0,0,0,3.94,1.12A84.54,84.54,0,0,1,89,54a65,65,0,0,1,7.12,3.51c1.2.65,2.37,1.36,3.51,2.05,1.36.82,2.77,1.67,4.18,2.4,7.23,3.72,12.53,7.77,16.68,12.75a54.83,54.83,0,0,0,11,9.7,83.45,83.45,0,0,0,19.16,10.15,73,73,0,0,1,14.69,6.91,127.78,127.78,0,0,1,16.47,12c1.67,1.49,3.32,3,5,4.51,3.24,3,6.59,6,10,8.9,5.46,4.57,10.5,9.67,15.38,14.61,1,1,2.08,2.11,3.13,3.16,2,2,4,4.12,5.92,6.24a44.41,44.41,0,0,0,3.26,3.15c1,.94,2.11,1.9,3.11,3,1.41,1.49,3,2.92,4.5,4.32s3.18,2.91,4.68,4.49a12,12,0,0,0,1.23,1.05l.4.32a46.38,46.38,0,0,0,4.05,2.78,28.79,28.79,0,0,1,7.27,5.86,2.15,2.15,0,0,1,.55.27l1.23.79a24.91,24.91,0,0,1,3,2.1,135.26,135.26,0,0,1,10,9.75c2.1,2.21,4.29,4.49,6.52,6.62,1.51,1.44,2.92,3,4.27,4.48a62.47,62.47,0,0,0,5.68,5.71,98.57,98.57,0,0,1,8.77,8.45c2.26,2.42,4.78,4.67,7.21,6.85l.55.49,1.05.95a23.21,23.21,0,0,0,3.49,2.85,61.48,61.48,0,0,1,11.17,9.48c2.31,2.35,4.5,4.85,6.62,7.28,1.65,1.88,3.35,3.83,5.08,5.67s3.9,3.85,5.88,5.68c.81.75,1.63,1.5,2.43,2.26a8.15,8.15,0,0,0,1.3,1,22.46,22.46,0,0,1,5.66,4.79,21.66,21.66,0,0,0,2.68,2.52c.6.51,1.2,1,1.76,1.55l2.64,2.47c2.4,2.23,4.88,4.54,7.17,7s4.47,4.94,6.6,7.39c1.62,1.86,3.3,3.78,5,5.63l.91,1c3.05,3.35,6.2,6.8,9,10.5a83.13,83.13,0,0,0,5.79,6.53c1.24,1.3,2.53,2.65,3.74,4,2.92,3.32,5.66,6.7,8,9.56,1.42,1.77,2.8,3.6,4.14,5.36,1,1.29,2,2.58,3,3.86,1.2,1.53,2.5,3.05,3.76,4.53l.15.17c.8.94,1.62,1.86,2.44,2.79,1.73,1.95,3.52,4,5.12,6.11a48.7,48.7,0,0,0,6,6.72,98,98,0,0,1,10.76,12c.85,1.1,1.64,2.25,2.39,3.36a50.25,50.25,0,0,0,3,4.09,114.9,114.9,0,0,1,7.12,9.68c1,1.4,1.92,2.81,2.91,4.19,3.07,4.31,5.87,8.59,8.31,12.71.55.91,1.16,1.78,1.82,2.71a20.34,20.34,0,0,1,3.53,6.56l.4.13,1.57.53a1.49,1.49,0,0,1,1,1.32,8.36,8.36,0,0,0,2.12,5.43,3.67,3.67,0,0,1,.8,1.83c0,.16.07.32.12.47s.13.41.19.63a3.61,3.61,0,0,0,.2.59,16,16,0,0,1,3.4,5.24c.21.44.42.88.64,1.32s.55,1,.87,1.48a16.59,16.59,0,0,1,1.27,2.28c1.08,2.5,2.44,5,3.75,7.34a66.46,66.46,0,0,1,5,10.45s0,0,0,0a3.54,3.54,0,0,1,.26.41l.41.76.94,1.77L480,443a204.37,204.37,0,0,1-4.42-21c-.09-.6-.21-1.2-.33-1.8a20.48,20.48,0,0,1-.49-3.3,62.3,62.3,0,0,0-2.46-14.48,10.72,10.72,0,0,1-.31-2.15c0-.26,0-.51-.06-.77s-.06-.79-.08-1.17a13.79,13.79,0,0,0-.17-1.78c-.18-1-.7-4-1.37-7.84-1.57-9.05-4.49-25.89-5-27.25-.74-1.77-7.48-21.82-7.73-23,0-.2-4.42-22.23-4.51-23.14-.22-2.23-2.06-20.09-2.5-21.93a34.18,34.18,0,0,0-3.1-8.7,21,21,0,0,1-1.32-3.08c-.23-.67-.46-1.34-.68-2a23.43,23.43,0,0,0-3.44-7.36c-2-2.49-2.84-5.45-3.69-8.31-.18-.59-.35-1.18-.54-1.77a11.06,11.06,0,0,0-2.06-4.26,7.84,7.84,0,0,1-1.92-6.22,10.47,10.47,0,0,0-.63-4.32c-.44-1.47-.87-2.94-1.3-4.41-.59-2-1.17-4-1.77-6a29,29,0,0,1-.88-8.63V227a1.48,1.48,0,0,1,.24-.82c.57-.89.66-1.69-.56-3.15a4.58,4.58,0,0,1-1-2.7,42.27,42.27,0,0,1,.15-6c.06-.62.15-1.24.24-1.85a16.45,16.45,0,0,0,.18-5.4,4.68,4.68,0,0,1,.22-2.25,34.63,34.63,0,0,0,1.25-9.18c.11-2.28,2.93-6.83,3.79-8.18a1.49,1.49,0,0,1,.38-.41,2,2,0,0,0,1-2c-.08-1.08.63-2.16,1.62-3.65.76-1.14,2-3.06,1.86-3.9-.42-2.08-.76-4.21-1.09-6.26-.17-1.1-.35-2.2-.53-3.3-.26-1.47-.5-2.94-.75-4.42-.61-3.67-1.24-7.46-2-11.16-.32-1.65-.78-3.34-1.22-5-.52-1.93-1.06-3.92-1.41-5.95a72.41,72.41,0,0,1-1-11,46.58,46.58,0,0,1,.46-6.4c.1-.88.2-1.75.28-2.62a4.28,4.28,0,0,0,0-.52,8.57,8.57,0,0,1,.21-1.65c.44-1.61.86-3.22,1.29-4.82,1.11-4.2,2.25-8.54,3.55-12.77,2.23-7.26,5.49-14.19,8.64-20.89l1.36-2.9A52.18,52.18,0,0,0,451,64.4l.31-1.78c1.12-6.46,2.28-13.15,2.22-19.83-.08-8.51-1.35-15.4-4-21.69-.23-.55-.48-1.1-.72-1.65-.43-1-.88-2-1.27-3a34.67,34.67,0,0,0-7.29-11.94,3.21,3.21,0,0,1-.73-1.6c-.06-.25-.14-.56-.25-.94a1.49,1.49,0,0,1,.62-1.71,1.48,1.48,0,0,1,1.81.15l1.64,1.48c1.07,1,2,1.76,2.85,2.58a4.32,4.32,0,0,1,.73,1l.15.24,2.13,3.13c1.52,2.22,3.1,4.51,4.57,6.82,3.38,5.29,5.89,9.36,8.15,13.22,4.51,7.71,8.61,14,13.94,19.49a35.21,35.21,0,0,1,2.5,3c.47.62.94,1.24,1.44,1.84l.48.57a34.58,34.58,0,0,0,3,3.32c1.18,1.09,2.47,2.14,3.72,3.15.72.59,1.45,1.19,2.16,1.79,3.77,3.19,7.12,6.13,9.77,9.87a23.26,23.26,0,0,0,1.51,1.8c.22.24.44.48.65.73l2.77,3.14c2,2.2,4,4.48,5.89,6.81a48.61,48.61,0,0,1,6.55,10.89c2.75,6.08,5.36,12.21,7.74,18.2a180.47,180.47,0,0,0,10.23,21c.3.54.61,1.07.92,1.61a48.37,48.37,0,0,1,2.45,4.63c2.22,5,5.73,9.22,9.13,13.31,1.57,1.87,3.25,3.72,4.87,5.51l1.52,1.67c.47.53,1,1,1.47,1.54a25.71,25.71,0,0,1,3,3.5,43.3,43.3,0,0,1,5.79,11.38c.44,1.45,1,2.93,1.52,4.37.4,1.07.79,2.15,1.16,3.24.41,1.24.85,2.47,1.29,3.7,1,2.86,2.08,5.82,2.84,8.87l.15.62a94.38,94.38,0,0,0,4.9,15.74c1.57,3.51,3.22,7,4.83,10.46.61,1.3,1.22,2.6,1.82,3.9l.22.47q5,10.78,10.1,21.57c.38.81.79,1.6,1.19,2.39.3.58.6,1.15.88,1.74q2.37,4.84,4.72,9.71a69.76,69.76,0,0,1,3,7.86c.38,1.17.77,2.35,1.19,3.51a96.43,96.43,0,0,1,4.81,19.4c.1.72.21,1.45.32,2.18.28,1.81.57,3.68.72,5.56.36,4.27.66,8.62,1,12.82.15,2.15.3,4.31.46,6.46a7.83,7.83,0,0,0,.21,1.3L612,329q1.38,6.11,2.79,12.19c.26,1.17.52,2.34.77,3.5.63,2.91,1.29,5.92,2.16,8.81a87.25,87.25,0,0,1,2,8.8c.22,1.13.44,2.27.68,3.39.15.71.23,1.41.31,2.08l.09.71c.19,1.4.35,2.8.52,4.2.38,3.14.76,6.38,1.38,9.49A79.68,79.68,0,0,1,624,392.26c.36,5,.8,10.52,1.4,17.3.14,1.56.32,3.14.51,4.68.16,1.38.32,2.76.45,4.14l.14,1.39c.29,3,.59,6,.74,9.07.36,7.75.61,14.58.76,20.89l.06,2.39a77.51,77.51,0,0,1-.33,12.89,43.78,43.78,0,0,0-.3,4.52c0,.77,0,1.54-.09,2.3l-.07,1.37c-.07,1.47-.15,3-.3,4.49l-.18,1.7c-.39,3.73-.79,7.6-1.32,11.39l-.13.89a97.44,97.44,0,0,1-2,11.09,149.92,149.92,0,0,1-7.31,22.7c-.74,1.7-1.46,3.42-2.17,5.14-1.55,3.73-3.16,7.59-5.07,11.28l-.6,1.15a152.12,152.12,0,0,1-8.44,14.88,74.1,74.1,0,0,1-4.43,6.11c-2.69,3.23-5.63,6.59-9.25,10.6l-.38.42a96,96,0,0,1-6.73,7c-3.41,3.1-6.71,6.47-9.62,9.44-3.23,3.29-4.88,7.29-6.37,12.28a95,95,0,0,0-2.28,10.62c-.32,1.81-.65,3.69-1,5.53-.26,1.22-.57,2.43-.86,3.6a47.37,47.37,0,0,0-1.17,5.36,36.24,36.24,0,0,1-3.85,12.85,1.49,1.49,0,0,1,1.28.8c.11.2.22.38.32.54a4.79,4.79,0,0,1,.63,1.37,19.36,19.36,0,0,0,3.87,7.22,16.14,16.14,0,0,1,1.56,2.54c1.56,3.05,4,4.43,7.75,4.39a9.6,9.6,0,0,1,6.79,2.37,17.52,17.52,0,0,1,1.39,1.5A7.87,7.87,0,0,0,579,664a10.84,10.84,0,0,0,2.62,1c.61.17,1.23.34,1.85.57a9.69,9.69,0,0,1,1.64.84l.64.37a1.48,1.48,0,0,1,.77,1.09,12.85,12.85,0,0,0,.82,2.66,10.76,10.76,0,0,1,1,5.61c-.1.69-.16,1.38-.22,2.08a16.66,16.66,0,0,1-1.43,6.32,1.46,1.46,0,0,1-.74.71,26.25,26.25,0,0,1-7.09,1.67l-1.67.23a14.8,14.8,0,0,1-5.6,0l-.35-.08c-3-.71-6.73-1.59-8.06-5.71a6.35,6.35,0,0,1-2.26,0c-1.11-.25-2,.13-3.25.92-2,1.27-4,2.53-6.15,3.83l-2.65,1.65a1.65,1.65,0,0,1-.81.23,15.52,15.52,0,0,1-7.44-2.2c-3.28-1.8-3.32-3.91-3-6.28a6.94,6.94,0,0,1,.7-2.09,7.27,7.27,0,0,0,.33-.76c.1-.28.2-.56.29-.85l-.31-.13a7.17,7.17,0,0,1-3.17-2,12.56,12.56,0,0,1-5-3.11,1.17,1.17,0,0,0-.49-.15,14.81,14.81,0,0,1-6.81-.25l-.57.17-.14,0a8.82,8.82,0,0,1-8.92-2.34A4.85,4.85,0,0,0,511,666.5l-1.06-.16a18.55,18.55,0,0,1-3.35-.71c-1.22-.41-2.33-.17-3.8.84-.58.39-1.14.8-1.7,1.2-.81.58-1.63,1.19-2.5,1.73-3.72,2.36-8.06,5.18-12.09,8.29l-.34.26c-1.14.87-2.31,1.77-3.57,2.55-3.47,2.18-6.88,4.31-10.37,6.32a62,62,0,0,1-7.83,4A102.24,102.24,0,0,1,434.81,698c-5.67.45-11.32.81-16.8,1.07C415.44,699.18,412.69,699.31,409.87,699.31Zm-86.23-15.85A131.84,131.84,0,0,1,353,686.88c3.52.8,7.08,1.68,10.51,2.52,2.93.73,5.86,1.45,8.8,2.14a116.43,116.43,0,0,0,18.94,3.11c2.71.17,5.43.53,8.06.87.95.13,1.91.26,2.86.37a95.16,95.16,0,0,0,15.7.18c5.45-.25,11.07-.61,16.7-1.06a99,99,0,0,0,28.69-7,58,58,0,0,0,7.44-3.81c3.44-2,6.83-4.09,10.27-6.26,1.15-.72,2.27-1.57,3.35-2.39l.33-.26c4.13-3.18,8.54-6,12.31-8.44.79-.5,1.55-1,2.35-1.63.58-.42,1.17-.85,1.78-1.25a7,7,0,0,1,6.44-1.2,15.13,15.13,0,0,0,2.82.58c.38.06.76.11,1.13.18a7.71,7.71,0,0,1,4.07,2.24,5.8,5.8,0,0,0,6,1.66l.13,0a4,4,0,0,1,2.2-.21,11.48,11.48,0,0,0,5.46.22,3.87,3.87,0,0,1,3.15.91,9.31,9.31,0,0,0,4.23,2.53,1.52,1.52,0,0,1,.94.7c.35.6,1,.89,2.07,1.32a14.2,14.2,0,0,1,1.76.81,1.5,1.5,0,0,1,.68,1.76l-.23.73c-.16.52-.32,1-.49,1.49s-.28.67-.43,1a4.26,4.26,0,0,0-.44,1.16c-.21,1.78-.27,2.32,1.5,3.3a13.12,13.12,0,0,0,5.61,1.82l2.27-1.42c2.09-1.3,4.12-2.55,6.13-3.82a7,7,0,0,1,5.52-1.3,4.26,4.26,0,0,0,1.26,0c.29,0,.57-.08.83-.09a1.55,1.55,0,0,1,1.07.38l.26.2a2.08,2.08,0,0,1,.92,1.2c.69,2.7,2.73,3.31,6,4.08l.36.09a12.42,12.42,0,0,0,4.44,0l1.72-.25a25.9,25.9,0,0,0,5.79-1.23,15.7,15.7,0,0,0,.89-4.75c.07-.75.13-1.49.24-2.24a8,8,0,0,0-.84-4.11,19.06,19.06,0,0,1-.85-2.55l-.12-.07a6.5,6.5,0,0,0-1.15-.61c-.49-.18-1-.33-1.6-.49a13.83,13.83,0,0,1-3.38-1.29,10.27,10.27,0,0,1-2.36-2.23,13.52,13.52,0,0,0-1.12-1.22,6.62,6.62,0,0,0-4.73-1.59c-4.86.06-8.38-1.95-10.46-6a13.1,13.1,0,0,0-1.25-2.07,25.44,25.44,0,0,1-3.6-5.86c.21,3-1.12,4.4-4.9,6.36a2.51,2.51,0,0,1-1.57.19c-.11,0-.23,0-.35,0a1.51,1.51,0,0,1-1.09-.5,1.46,1.46,0,0,1-.38-1.13c.1-1.22.2-2.35.29-3.31a1.51,1.51,0,0,1,.59-1.07l.11-.08c1.67-1.26,1.67-1.26,2.19-3.13a3.88,3.88,0,0,1,1.35-2.09,2.56,2.56,0,0,1,.35-1.46c2.11-3.42,3.39-7.4,4.15-12.92a52.88,52.88,0,0,1,1.23-5.7c.29-1.13.59-2.31.83-3.46.37-1.79.7-3.65,1-5.44a98.81,98.81,0,0,1,2.37-11c1.4-4.69,3.22-9.57,7.1-13.52,2.93-3,6.26-6.4,9.74-9.56,2.3-2.09,4.45-4.47,6.52-6.77l.39-.42c3.59-4,6.5-7.32,9.16-10.51a68.34,68.34,0,0,0,4.25-5.86,151.54,151.54,0,0,0,8.27-14.59l.59-1.15c1.86-3.58,3.44-7.38,5-11.06.72-1.73,1.44-3.46,2.19-5.18A147.82,147.82,0,0,0,620.44,502a95.45,95.45,0,0,0,1.93-10.76l.13-.89c.52-3.74.92-7.57,1.31-11.28l.17-1.7c.15-1.42.22-2.9.3-4.33l.07-1.39c0-.74.06-1.48.09-2.22a44.17,44.17,0,0,1,.32-4.83,75.62,75.62,0,0,0,.3-12.4L625,449.8c-.15-6.29-.39-13.09-.76-20.81-.14-3-.44-6-.73-8.93l-.13-1.39c-.13-1.36-.29-2.72-.45-4.08-.19-1.55-.38-3.16-.52-4.77-.6-6.8-1-12.31-1.4-17.35a79.21,79.21,0,0,0-1.26-9.74c-.64-3.23-1-6.53-1.42-9.72-.16-1.39-.33-2.78-.51-4.16l-.1-.75c-.07-.64-.15-1.24-.27-1.82-.24-1.14-.46-2.29-.68-3.43-.56-2.83-1.12-5.76-2-8.51-.91-3-1.58-6.07-2.22-9-.25-1.16-.5-2.31-.77-3.46L609,329.64l-1.26-5.51a13.41,13.41,0,0,1-.28-1.75c-.15-2.15-.31-4.31-.46-6.47-.29-4.19-.59-8.53-.95-12.78-.14-1.78-.42-3.6-.69-5.35-.12-.74-.23-1.48-.34-2.22a93.32,93.32,0,0,0-4.65-18.8c-.43-1.19-.83-2.39-1.22-3.59a64.41,64.41,0,0,0-2.84-7.51q-2.33-4.86-4.7-9.68c-.28-.57-.57-1.13-.85-1.69-.43-.82-.85-1.65-1.24-2.49q-5.07-10.77-10.1-21.57l-.22-.47-1.83-3.9c-1.61-3.43-3.27-7-4.85-10.5a96.55,96.55,0,0,1-5.07-16.25l-.15-.61c-.72-2.92-1.76-5.8-2.75-8.59-.45-1.25-.89-2.5-1.32-3.76-.35-1.06-.74-2.11-1.13-3.16-.54-1.47-1.1-3-1.57-4.53a40.17,40.17,0,0,0-5.41-10.57,22.24,22.24,0,0,0-2.69-3.07c-.53-.54-1.06-1.08-1.56-1.64l-1.51-1.67c-1.65-1.81-3.35-3.68-4.95-5.6-3.53-4.25-7.19-8.64-9.57-14a46.91,46.91,0,0,0-2.31-4.34c-.32-.55-.63-1.1-.94-1.65a180.67,180.67,0,0,1-10.39-21.35c-2.37-6-5-12-7.69-18.07a45.17,45.17,0,0,0-6.14-10.23c-1.87-2.28-3.88-4.54-5.82-6.72-.93-1-1.86-2.1-2.78-3.16l-.62-.69a23.6,23.6,0,0,1-1.72-2.07c-2.46-3.46-5.65-6.27-9.27-9.32-.7-.59-1.41-1.17-2.12-1.75-1.28-1-2.6-2.13-3.85-3.27A36.73,36.73,0,0,1,478,55.65l-.47-.55c-.53-.63-1-1.3-1.53-2a32.13,32.13,0,0,0-2.27-2.76c-5.53-5.72-9.75-12.16-14.37-20.05-2.24-3.83-4.73-7.87-8.08-13.12l-.43-.67c.24.57.49,1.14.74,1.7s.49,1.13.73,1.7c2.81,6.66,4.16,13.91,4.24,22.83.06,6.95-1.12,13.77-2.26,20.36l-.31,1.78a55.5,55.5,0,0,1-4.79,14.29l-1.36,2.89c-3.11,6.61-6.33,13.45-8.49,20.5-1.28,4.18-2.42,8.49-3.52,12.65l-1.29,4.84a5.58,5.58,0,0,0-.11,1c0,.21,0,.43,0,.64-.08.9-.19,1.8-.29,2.7a43,43,0,0,0-.44,6,69,69,0,0,0,1,10.52c.34,1.89.86,3.82,1.36,5.68.45,1.68.92,3.41,1.27,5.17.75,3.74,1.38,7.56,2,11.25.25,1.47.49,2.93.74,4.4.19,1.11.37,2.23.55,3.34.32,2,.65,4.11,1.06,6.14s-1,4.23-2.3,6.15a13,13,0,0,0-1.12,1.88,4.93,4.93,0,0,1-2,4.34c-1.52,2.4-3.13,5.48-3.17,6.47a37.53,37.53,0,0,1-1.39,9.95,1.69,1.69,0,0,0-.13.78,18.87,18.87,0,0,1-.16,6.38c-.09.58-.17,1.17-.23,1.76a39.35,39.35,0,0,0-.13,5.56,1.49,1.49,0,0,0,.31.84c1.79,2.15,2.13,4.26,1,6.29v1a26.53,26.53,0,0,0,.75,7.77q.9,3,1.78,6c.43,1.46.86,2.93,1.3,4.39a13.25,13.25,0,0,1,.73,5.55A4.76,4.76,0,0,0,438,255.9a13.68,13.68,0,0,1,2.68,5.36c.18.59.37,1.2.55,1.81.8,2.71,1.56,5.27,3.17,7.31a25.85,25.85,0,0,1,3.92,8.27c.22.65.44,1.31.67,2a18.27,18.27,0,0,0,1.11,2.62,37,37,0,0,1,3.4,9.46c.54,2.28,2.54,22.14,2.56,22.34.13,1,4.19,21.48,4.47,22.82.27,1.13,6.72,20.5,7.57,22.51.37.86,1.61,7.63,5.12,27.86.67,3.86,1.19,6.85,1.37,7.81a16.83,16.83,0,0,1,.22,2.16c0,.35,0,.69.07,1s.05.57.07.87a7.57,7.57,0,0,0,.2,1.53,65.47,65.47,0,0,1,2.57,15.17,18.7,18.7,0,0,0,.43,2.83c.13.66.26,1.32.36,2a201.72,201.72,0,0,0,4.36,20.65q.62,2.44,1.21,4.89c.32,1.34.74,2.7,1.16,4s.77,2.48,1.1,3.75c3.21,12.57,6.81,26,11.44,39.2,1.78,5.08,3.88,10.16,5.91,15.08,1,2.38,2,4.76,2.91,7.15a80.16,80.16,0,0,0,7.84,14.71,32.41,32.41,0,0,1,2.23,4.07l.6,1.19a101.36,101.36,0,0,0,9.17,14.47c1,1.4,2,2.86,3,4.26.83,1.22,1.68,2.47,2.55,3.67.55.77,1.17,1.5,1.82,2.27s1.05,1.24,1.54,1.87c3.57,4.64,7.2,9.39,10.79,14.14a13.44,13.44,0,0,1,1.53,2.63,40,40,0,0,0,4.75,8.42,10.62,10.62,0,0,1,2.13,6.69A48.81,48.81,0,0,1,553,609.33c-.77,2.68-1.35,5.49-1.91,8.2-.36,1.74-.73,3.54-1.15,5.31a33.54,33.54,0,0,1-4.25,10.06,4.21,4.21,0,0,1-.8.91l-.38.36a1.5,1.5,0,0,1-1.89.19l-.41-.26a6.39,6.39,0,0,1-1.29-.93c-.69-.68-1.37-1.38-2-2.08s-1.34-1.38-2-2.05a5.63,5.63,0,0,0-1.46-1.06,1.08,1.08,0,0,0-1,0,1,1,0,0,0-.45.89,10.65,10.65,0,0,0,2.14,6.29,8.56,8.56,0,0,0,.56.77l.17.22a1.54,1.54,0,0,1,.25,1.28,2.62,2.62,0,0,1-1.29,1.78,2.25,2.25,0,0,1-1.92,0,4.86,4.86,0,0,1-1.85-1.08l-2.72-2.66a81.5,81.5,0,0,1-9.35-10.2c-4.84-6.63-10-13.8-14.83-21.36l-.85-1.32a120,120,0,0,1-7.32-12.44c-3.3-6.78-4.48-12.63-3.72-18.4.56-4.27,1-8.64,1.35-12.86.27-3,.55-6,.89-9a113.55,113.55,0,0,0,.24-21c-.24-3.07-.73-6.2-1.21-9.23-.21-1.36-.43-2.71-.62-4.08-.17-1.14-.34-2.29-.52-3.43-.27-1.78-.54-3.57-.78-5.35-.22-1.62-.41-3.23-.61-4.85-.32-2.68-.66-5.45-1.09-8.14-.54-3.4-1.32-6.85-2.08-10.18l-.07-.33c-1.13-5.07-2.34-10.23-3.69-15.78-.3-1.22-.7-2.42-1.13-3.69-.15-.46-.31-.91-.45-1.37s-.27-.73-.42-1.1a12.89,12.89,0,0,1-.76-2.37,39.36,39.36,0,0,0-3.45-10.2c-.49-1-1-2-1.52-2.93l-.42-.77a.46.46,0,0,0-.07-.1,2.91,2.91,0,0,1-.41-.76,62.85,62.85,0,0,0-4.77-10c-1.35-2.44-2.74-5-3.87-7.6a13.77,13.77,0,0,0-1.06-1.87c-.34-.55-.7-1.11-1-1.72s-.45-.93-.67-1.4a13.86,13.86,0,0,0-2.79-4.38,4,4,0,0,1-1-1.94c0-.15-.08-.29-.13-.43a6.39,6.39,0,0,1-.21-.81,4.08,4.08,0,0,0-.14-.52,10.84,10.84,0,0,1-2.75-6.18l-.63-.21-1.22-.41a1.46,1.46,0,0,1-1-1.15c-.43-2.31-1.79-4.22-3.23-6.25-.66-.93-1.34-1.89-2-2.92-2.4-4-5.15-8.24-8.17-12.49-1-1.4-2-2.82-2.94-4.24a114.19,114.19,0,0,0-6.94-9.43,51.3,51.3,0,0,1-3.19-4.34c-.74-1.08-1.49-2.18-2.29-3.21a95.23,95.23,0,0,0-10.43-11.61A52.19,52.19,0,0,1,409.6,344c-1.52-2-3.27-4-5-5.91-.84-.94-1.67-1.88-2.48-2.83l-.15-.17c-1.28-1.5-2.6-3.05-3.85-4.63-1-1.3-2-2.59-3-3.89-1.33-1.76-2.7-3.57-4.09-5.3-2.27-2.84-5-6.18-7.87-9.45-1.18-1.34-2.44-2.67-3.66-4a88.62,88.62,0,0,1-6-6.77c-2.75-3.6-5.86-7-8.86-10.3l-.92-1c-1.7-1.87-3.39-3.81-5-5.68-2.11-2.43-4.29-4.93-6.52-7.3s-4.67-4.65-7-6.85l-2.65-2.48c-.52-.5-1.08-1-1.64-1.44a26.33,26.33,0,0,1-3-2.87A19.31,19.31,0,0,0,333,259a10.58,10.58,0,0,1-1.8-1.35l-2.42-2.25c-2-1.86-4.1-3.78-6-5.83-1.77-1.88-3.49-3.85-5.16-5.75-2.09-2.39-4.25-4.86-6.5-7.15a59,59,0,0,0-10.61-9,26.87,26.87,0,0,1-4-3.19l-1-.93-.55-.49c-2.49-2.22-5-4.51-7.4-7a95.28,95.28,0,0,0-8.52-8.19,64.71,64.71,0,0,1-6-6c-1.33-1.45-2.7-3-4.12-4.31-2.3-2.18-4.5-4.5-6.64-6.73a130.71,130.71,0,0,0-9.73-9.53,24.23,24.23,0,0,0-2.68-1.85l-1.26-.8a2.2,2.2,0,0,1-1.1-.72c-1.77-2.26-4.17-3.79-6.71-5.41a51.89,51.89,0,0,1-4.32-3l-.37-.3a13.49,13.49,0,0,1-1.55-1.34c-1.43-1.51-3-2.95-4.54-4.35s-3.16-2.9-4.65-4.46c-.92-1-1.9-1.87-2.94-2.8s-2.37-2.15-3.47-3.36c-1.89-2.1-3.85-4.16-5.82-6.14L210,143.6c-4.82-4.89-9.81-9.94-15.16-14.42-3.47-2.9-6.85-6-10.11-9-1.64-1.5-3.28-3-4.94-4.49A125.33,125.33,0,0,0,163.73,104a70.82,70.82,0,0,0-14.1-6.62,86.22,86.22,0,0,1-19.84-10.51A57.39,57.39,0,0,1,118.2,76.6c-3.89-4.67-8.89-8.48-15.75-12-1.51-.77-3-1.65-4.36-2.5-1.11-.67-2.26-1.37-3.4-2a62.53,62.53,0,0,0-6.79-3.35,81.67,81.67,0,0,0-13.81-4.37,38.12,38.12,0,0,1-4.26-1.21c-.74-.23-1.47-.47-2.21-.68l-.4-.12c-1.24-.35-2.42-.68-3.61-.9a112.06,112.06,0,0,1-14.08-3.8A59.54,59.54,0,0,1,36,38.88,105,105,0,0,1,15.88,22c-2.17-2.29-4.23-4.68-6.23-7.07l1.46,2A63,63,0,0,1,17.59,27a63,63,0,0,0,3.6,6.19l.62,1a11.83,11.83,0,0,1,1.57,8.35,1.45,1.45,0,0,1-.72,1.07,2.72,2.72,0,0,1-2.22.38,3,3,0,0,1-1.77-1.73,3.93,3.93,0,0,1-.31-1.11,2.51,2.51,0,0,0,0-.27l-.1-.38a3.81,3.81,0,0,0-.24-.76c-.38-.64-.56-.62-.73-.61s-.36.52-.37.62A24.1,24.1,0,0,0,18.61,54a6.4,6.4,0,0,0,2.94,3.56A5.89,5.89,0,0,1,25,62.87c.2,3.36,1.49,6.47,4.19,10.08a4.9,4.9,0,0,1,.54,1c.06.15.13.31.22.49a1.5,1.5,0,0,1-.24,1.65l-.9,1c.05.34.09.68.14,1,.14,1.09.28,2.16.44,3.23.26,1.61.55,3.23.85,4.84l.58,3.29c.53,3,1.06,6,1.63,8.92,1.21,6.42,2.82,13.81,6.61,20.4.4.68.76,1.39,1.13,2.09s.81,1.57,1.25,2.3a2.79,2.79,0,0,0,.19.24l.52-.68a1.49,1.49,0,0,1,1.83-.45,2,2,0,0,1,1.34,1,16,16,0,0,1,1.16,4.49c1.28,9.54,4.35,16.41,9.67,21.62a42.7,42.7,0,0,0,12.41,8.31l2.73,1.19c2.37,1,4.81,2.11,7.17,3.32,2.57,1.32,3.44,2,4.07,3.43a2,2,0,0,1,.89-.45c1-.22,1.8.34,2.94,1.21l.13.09.3.12a1.49,1.49,0,0,1,.79,1,1.65,1.65,0,0,1-.18,1.17c-.15.55-.46,2.3-1.14,7.57a1.44,1.44,0,0,1,.89.12,1.5,1.5,0,0,1,.87,1.28,2.11,2.11,0,0,1-.21,1.43,2.38,2.38,0,0,1-.48.54l-.13.17a11.73,11.73,0,0,0,.32,6.15l.3,1a66.4,66.4,0,0,1,2.33,10.06,8.73,8.73,0,0,0,1.44,3.61,47.26,47.26,0,0,1,5,10A9.38,9.38,0,0,0,101,216a13.52,13.52,0,0,1,5.1,4.43c0-.5.07-1,.11-1.54s.06-1,.1-1.53a1.5,1.5,0,0,1,2.72-.76l.22.31c1.12,1.56,1.5,2.09,1.46,3.71-.16,5.72,1.47,11,3.18,16.62.33,1.08.66,2.15,1,3.23a19.64,19.64,0,0,0,3.76,6.89,27.33,27.33,0,0,1,1.83,2.65,16.64,16.64,0,0,0,2.57,3.37,9.35,9.35,0,0,1,.69.72,6.78,6.78,0,0,0,.59.6l.4.31c4.88,3.82,9.92,7.77,15.53,10.7a170.61,170.61,0,0,1,15.45,9.12c1.91,1.28,7.23,9.28,17.71,25.63,3,4.73,6.15,9.6,7.18,11,.65.34,1.18,1.36,2.44,3.77,1.73,3.28,1.8,3.71,1.83,3.89.79,4.53,2,9.08,3.21,13.48.46,1.71.92,3.43,1.36,5.15a23.9,23.9,0,0,0,2.74,6.32c.93,1.55,1.84,3.13,2.74,4.7,1.25,2.19,2.55,4.45,3.9,6.6a64.7,64.7,0,0,0,10.42,12.46,30.73,30.73,0,0,0,5.7,4c3.3,1.92,6.7,3.82,10,5.64l5.53,3.09a106.27,106.27,0,0,1,15.89,10.78,1.37,1.37,0,0,0,.21.15,3.33,3.33,0,0,1,1,1,17,17,0,0,0,3.83,3.9,33.73,33.73,0,0,1,2.56,2.28l.32.29a4.81,4.81,0,0,1,1,1.06c1.44,2.2,14.43,19.2,21.42,28.34,4,5.25,5.05,6.61,5.18,6.8a42.86,42.86,0,0,1,4.66,8.84,7.85,7.85,0,0,0,1,2,32,32,0,0,1,3.93,6.86c.18.4.37.81.56,1.21,1.1,2.32,2.31,4.64,3.48,6.9.53,1,1.06,2,1.58,3.05s.92,1.81,1.37,2.72c.8,1.59,1.62,3.24,2.47,4.83a60.49,60.49,0,0,0,16.49,19.45l2.11,1.64c2.18,1.71,4.44,3.47,6.79,5a81.26,81.26,0,0,1,6.92,5.27l2.07,1.7a14,14,0,0,1,1.56,1.51c.24.26.48.51.73.76l.69.69a14.2,14.2,0,0,0,1.67,1.57,79.47,79.47,0,0,1,8.9,8.11c1.36,1.39,2.78,2.82,4.22,4.16,1.06,1,2,2.06,3,3.09a36.92,36.92,0,0,0,3.7,3.7,8.31,8.31,0,0,0,.93.65c.3.2.59.39.88.6.64.48,1.26,1,1.84,1.49a4.39,4.39,0,0,1,.61.66,1.22,1.22,0,0,0,.23.27,52.22,52.22,0,0,1,8.43,5.75c1.49,1.16,3,2.37,4.61,3.44l2.56,1.72,1,.65a1.36,1.36,0,0,0,.2.11,2.8,2.8,0,0,1,1.21,1c1,1.78,2.83,2.77,4.74,3.82.56.3,1.11.6,1.64.93,1.39.83,2.76,1.67,4.13,2.52,3.73,2.29,7.59,4.66,11.51,6.71l3.87,2.07a97,97,0,0,0,14.09,6.64c2.48.85,4.9,1.91,7.24,2.92,1.53.67,3.12,1.36,4.68,2,2.21.86,4.51,1.68,6.73,2.46q1.74.6,3.45,1.23l5.44,1.95c4.7,1.68,9.57,3.42,14.31,5.26l.81.31a103.21,103.21,0,0,0,14.09,4.73,32.64,32.64,0,0,1,3.67,1.13l.92.32c4.95,1.69,7.87,5.44,10.66,9.46,1.58,2.28,3.06,4.64,4.5,6.92s3,4.72,4.56,7c3.26,4.71,6.37,9.38,9.23,13.89a42.71,42.71,0,0,1,3.5,7.2,49.45,49.45,0,0,0,7.6,13.69l.27.35a4.73,4.73,0,0,0,.9.93c2.55,1.43,3.41,3.73,4.18,5.76l.33.87a1.51,1.51,0,0,1-.39,1.67,13.61,13.61,0,0,1,5.28,1c.55.18,1.1.37,1.66.52a1.52,1.52,0,0,1,1,.91,2.63,2.63,0,0,1-.17,2.53,2.37,2.37,0,0,1-2,1,6.41,6.41,0,0,1-1.77-.32,6.14,6.14,0,0,0-.74-.18l-.79-.14a21.8,21.8,0,0,0-2.86-.4h-.15a17.29,17.29,0,0,1-6.49-1.19,2.83,2.83,0,0,0-1.43-.29c-3.76.6-7-.64-10.13-1.84l-.43-.16a30.16,30.16,0,0,1-4.83-2.22,14.21,14.21,0,0,1-4-3.28,59.55,59.55,0,0,1-5.27-7.91c-.65-1.2-1.3-2.41-1.94-3.62-3.05-5.72-6.2-11.63-9.68-17.21a89.48,89.48,0,0,0-8.58-11.13c-6-6.82-13.27-13.23-23-20.15l-2.11-1.52a50,50,0,0,0-10-6.17c-3.16-1.31-6.29-2.78-9.31-4.2a124.73,124.73,0,0,0-15.54-6.48l-.46-.15c-.82-.26-1.6-.51-2.39-.68a99.64,99.64,0,0,1-10.86-3.23c-2.19-.75-4.46-1.52-6.71-2.16l-1-.35a9.2,9.2,0,0,0-1.38-.42c-1.9-.33-3.83-.57-5.7-.81a10.72,10.72,0,0,0-2.35-.14,3.79,3.79,0,0,1-3.28-1c-2.31.57-4.25-.35-5.82-1.1-.44-.21-.87-.42-1.3-.58a37.36,37.36,0,0,0-6.44-1.7c-1.16-.23-2.37-.48-3.56-.78-1-.25-2-.41-3.1-.57l-1.39-.22-3.2-.53c-1.2-.19-2.4-.38-3.59-.59-1.55-.25-3.1-.53-4.66-.8l-1.79-.31a1.76,1.76,0,0,1-.85-.22,10.09,10.09,0,0,0-4.58-.91,22.31,22.31,0,0,1-2.89-.26l-1.6-.28a40.35,40.35,0,0,0-5.9-.78,58.79,58.79,0,0,1-11.07-1.59,11.24,11.24,0,0,0-2.17-.19l-1.07,0a100.62,100.62,0,0,1-12.95-1.5c-2.18-.42-4.37-.81-6.56-1.2-3.12-.55-6.36-1.13-9.53-1.79A243.75,243.75,0,0,0,260.61,546c-3.13-.18-6.31-.33-9.4-.47-2.05-.09-4.1-.18-6.14-.29l-1.54,0a20.31,20.31,0,0,1-4.56-.44,28.93,28.93,0,0,0-7.76-.57c-.65,0-1.3,0-2,0-5.45,0-11.2.1-17.1.28-1.81,0-3.66.25-5.46.44l-1.82.19c-1.81.18-3.63.34-5.44.51-4.32.39-8.78.79-13.12,1.4-7.69,1.07-15.36.75-22.49.24a46,46,0,0,0-11.28.63l-.22,0a10.51,10.51,0,0,1-2.38.27,60.79,60.79,0,0,0-13.22,1.55c-1,.2-2,.32-3,.44a29.69,29.69,0,0,0-3.13.49c-2.41.55-4.85,1.19-7.22,1.81l-4.12,1.06-1,.27a32.91,32.91,0,0,1-4.09.88A151.74,151.74,0,0,0,96,558.61l-2.7.69c-4,1-8.07,2.07-12.2,2.75a82.92,82.92,0,0,1-23.32,1c-2.75-.31-5.57-.5-8.3-.68-1.62-.1-3.24-.21-4.86-.34-1.07-.09-2.14-.24-3.17-.38l-.25,0c1,.3,1.92.61,2.85.95,2.57,1,5.26,1.77,7.86,2.56,1.9.58,3.86,1.18,5.78,1.83,4.61,1.55,9.08,3.2,12.84,4.62,1.33.5,2.64,1.07,3.89,1.63.86.38,1.72.77,2.59,1.12a52.74,52.74,0,0,1,9.85,5.29A38.13,38.13,0,0,0,91,582c.6.31,1.19.61,1.78.93,6,3.25,12.54,6.6,19.59,8.6A68,68,0,0,1,132,601c3.88,2.64,7.58,5.48,10.68,7.91a27.86,27.86,0,0,1,2.88,2.74c.45.48.91,1,1.38,1.42l1.74,1.7a87.35,87.35,0,0,0,7,6.35,74,74,0,0,1,7.65,6.87,33.16,33.16,0,0,0,9.12,6.31l2.75,1.43a85.75,85.75,0,0,0,8.26,4c5.28,2.08,10.72,3.78,15.35,5.16a30.54,30.54,0,0,0,5.18.91l1.87.23c4.24.59,8.44,1.52,12.51,2.42,3.17.7,6.44,1.43,9.68,2,1.55.27,3.11.52,4.66.78,4.66.77,9.48,1.56,14.18,2.56,10.35,2.2,19,5.64,26.39,10.53,3.51,2.32,7.19,4.54,10.74,6.69l2.75,1.66a60.36,60.36,0,0,0,12.16,5.28c1,.35,2,.72,3,1.09,1.87.67,3.79,1.38,5.7,1.89,5.37,1.43,10.27,2.61,15.3,2.59Zm225.21-33.34c0,.19,0,.38-.05.57,1.71-.94,2.27-1.5,2.18-2.83A6.16,6.16,0,0,1,548.85,650.12ZM493,489.38c.27,1.32.51,2.66.73,4,.43,2.75.77,5.54,1.1,8.25.19,1.6.39,3.21.6,4.81.24,1.77.51,3.53.78,5.3.17,1.15.35,2.3.52,3.46.19,1.35.4,2.69.61,4,.49,3.08,1,6.27,1.24,9.46a117,117,0,0,1-.25,21.51c-.33,3-.61,6-.88,9-.39,4.26-.8,8.66-1.36,13-.68,5.17.41,10.47,3.44,16.7A117,117,0,0,0,506.69,601l.86,1.33c4.8,7.49,9.91,14.62,14.72,21.21a80.13,80.13,0,0,0,9,9.82l.63.61a11.32,11.32,0,0,1-1.06-5.25,3.94,3.94,0,0,1,5.75-3.44,9.06,9.06,0,0,1,2.28,1.62c.72.7,1.4,1.41,2.09,2.12s1.32,1.36,2,2l.2.16a30.34,30.34,0,0,0,3.8-9c.41-1.73.78-3.51,1.13-5.22.57-2.78,1.16-5.64,2-8.43a46.29,46.29,0,0,0,1.45-13.71,7.68,7.68,0,0,0-1.5-4.9,43,43,0,0,1-5.13-9,10.39,10.39,0,0,0-1.17-2c-3.59-4.74-7.21-9.49-10.78-14.11-.46-.61-1-1.19-1.45-1.77-.66-.78-1.34-1.59-2-2.45-.89-1.24-1.75-2.51-2.59-3.74s-1.9-2.81-2.9-4.17a104.31,104.31,0,0,1-9.43-14.9c-.21-.4-.41-.81-.61-1.22a31.14,31.14,0,0,0-2-3.72,82.2,82.2,0,0,1-8.13-15.27c-.95-2.38-1.93-4.75-2.91-7.11-2-5-4.16-10.08-6-15.24C494.3,493.21,493.65,491.29,493,489.38ZM381.81,565.71h0Zm-2.13-19.46h0Zm-.18-.22v0ZM245,394h0ZM438.15,185ZM248.6,178.58h0Zm1.32-2.53h0ZM81.18,167.64a.2.2,0,0,0,0,.08ZM21.9,42.32h0Z"/></g></g></g></svg>