<svg xmlns="http://www.w3.org/2000/svg" viewBox="0 0 660.82 848.86"><defs><style>.cls-1{opacity:0.2;}.cls-2{fill:#bf956d;}</style></defs><title>Asset 11</title><g id="Layer_2" data-name="Layer 2"><g id="BG"><g class="cls-1"><path class="cls-2" d="M17.74,848.86a1.49,1.49,0,0,1-1.15-.54l-.49-.57A20.34,20.34,0,0,1,14.72,846c-.79-1.16-1.54-2.37-2.23-3.59-.52-.93-1-1.86-1.51-2.8-.59-1.11-1.18-2.22-1.81-3.32-1.05-1.83-2.06-3.44-3.09-4.94a12.27,12.27,0,0,0-4.73-4.24,1.48,1.48,0,0,1-.39-.28l-.51-.5A1.5,1.5,0,0,1,0,825.09,1.52,1.52,0,0,1,.76,824l.79-.45c.42-.24.82-.47,1.23-.69,10.17-5.42,20.22-11,29.88-16.67,13.75-8,27.34-16.45,40.39-25L74.72,780l.18-.11-.11-4.39c-.09-3.57-.18-7.14-.24-10.7-.07-4.54-.1-9.18-.07-13.78,0-5,.14-10.07.29-16l.07-3.11c.12-4.7.23-9.56.45-14.35.35-7.91.73-14.82,1.16-21.13.61-8.75,1.35-17.5,1.92-24.15.85-9.79,2.07-20,3.64-30.42,1.82-12.13,3.71-22,5.94-31.14,1.53-6.26,3.17-11.84,5-17.06,0-.12.08-.24.11-.36a3.83,3.83,0,0,1,1.4-2.2,1.47,1.47,0,0,1,.87-.36,1.53,1.53,0,0,1,1.45.81l0,0a1.52,1.52,0,0,1,0,1.35,213.84,213.84,0,0,0-2.86,24.36c-.26,5-.56,10.61-.71,16.13-.09,3.41-.07,7.16.06,11.8.13,4.91.28,9.7.63,14.49C94.89,673.47,96,687.47,97,701l.26,3.28a290.06,290.06,0,0,1,1.08,31.53c-.13,4.06-.35,7.64-.65,10.93a92.6,92.6,0,0,1-4.14,20.56l1-.72L96.83,765q2-1.41,4-2.78c.27-.19.28-.26.28-.5,0-3.09.06-6.25.11-9.23l.08-3.82c.07-3.39.14-6.9.27-10.36.21-5.82.47-12,.84-19.49l.07-1.45c.31-6.24.63-12.7,1.06-19,.65-9.67,1.31-18.31,2-26.4,1-11.82,1.92-21.5,2.85-30.46,1.33-12.59,3-25.61,4.84-38.71,2.72-19,5.68-35.84,9-51.58a398.78,398.78,0,0,1,12.32-45.88,193.6,193.6,0,0,1,9.83-24.11,17.44,17.44,0,0,1,1.06-1.76l.2-.31a1.5,1.5,0,0,1,2.7-.36l0,.05a1.5,1.5,0,0,1,.07,1.49l-.05.22c-.12.49-.24,1-.39,1.47a268.09,268.09,0,0,0-7.67,34.19c-1.08,6.69-2,13.64-2.77,21.24-.34,3.4-.61,6.87-.86,10.23l-.09,1.16c-.28,3.66-.51,6.93-.7,10-.17,2.71-.28,5.4-.38,8.15-.11,3.07-.19,6.13-.26,9.2l0,1.77c-.08,3-.17,6.2-.2,9.29,0,2.86,0,5.73,0,8.59v3.7c0,1.65,0,3.3,0,5,0,3.06,0,6.13,0,9.19s.06,5.86.11,8.79q.06,3.51.09,7c.07,8.23.1,14.95.1,21.15v.59c0,6.54,0,13.3-.13,19.95-.12,6.25-.38,12.5-.65,18.89a245,245,0,0,1-2.38,25.06,137.34,137.34,0,0,1-7.26,29.46l2.86-2.19,7.79-6c.16-.12.28-.24.33-.72.69-5.57,1.15-11.44,1.47-18.49.18-4.22.31-8.41.43-12.69.11-3.67.19-7.52.25-11.46,0-2.31.05-4.63.07-6.94,0-1.51,0-3,.05-4.55l0-4.65c0-2.89.05-5.79.06-8.67,0-1.56,0-3.12,0-4.68,0-2.34,0-4.69.05-7,0-3,.09-6,.13-9q.06-3.82.11-7.64c0-1.5.05-3,.07-4.48,0-3.51.1-7.15.2-10.73.21-6.84.46-13.81.77-20.72.24-5.63.5-11.64.92-17.65.45-6.37,1-12.5,1.67-19.86,1-10.67,2.41-21.57,4.32-32.42a252,252,0,0,1,7.13-30.51,14.44,14.44,0,0,1,.58-1.49c.08-.17.15-.35.22-.52a1.51,1.51,0,0,1,.29-.45,1.53,1.53,0,0,1,1.78-.34,1.5,1.5,0,0,1,.83,1.58A126.06,126.06,0,0,0,156,515c-.25,3.85-.37,7.69-.48,11.41s-.23,7.71-.22,11.64c0,4.3.12,9,.3,14.72.13,4,.33,8.3.61,13.08.24,4.23.53,8.53.81,12.69l.22,3.28c.35,5.22.76,10.54,1.15,15.68.64,8.31,1.29,16.88,1.75,25.38.09-3.23.19-6.4.31-9.49.22-5.77.48-12,.88-18.07.6-9,1.39-18.07,2.36-26.83,1.61-14.62,3.61-28.06,6.13-41.08A343.37,343.37,0,0,1,180,486.89c.16-.52.34-1,.52-1.56l.14-.39a1.5,1.5,0,0,1,2.9.7c-.8,5.61-1.51,10.69-2,15.91s-1,10.69-1.43,16.09c-.27,3.69-.38,7.47-.49,11.13V529c-.15,5.13-.31,10.44-.32,15.74s.08,9.92.28,14.49c.36,8,.76,15.09,1.22,21.68.34,4.75.77,9.57,1.18,14.23q.31,3.51.62,7c.28,3.28.55,6.56.83,9.84l.73,8.82c.15,1.82.3,3.66.45,5.5,0-4.58,0-9.3.06-14,.1-5.66.24-13.12.56-20.55.33-8.41.72-15.8,1.2-22.57.74-10.78,1.45-19.62,2.23-27.84,1.1-11.7,2.56-24,4.46-37.53,2.67-19,5.72-36.32,9.34-53a414,414,0,0,1,10.63-40.39c.68-2.09,1.43-4.19,2.15-6.22l1.15-3.3a2.84,2.84,0,0,1,2-2.13,1.43,1.43,0,0,1,.89,0,1.49,1.49,0,0,1,1,1.73v0l-.06.2c-.06.2-.12.4-.19.6a13.13,13.13,0,0,0-.35,1.28c-.27,1.57-.55,3.15-.83,4.72-.8,4.46-1.62,9.08-2.32,13.62-2.05,13.3-3.54,27-4.43,40.8L212,463c-.34,5.39-.7,10.95-.95,16.43-.16,3.42-.23,6.91-.3,10.28l-.06,3.2c0,1.78-.07,3.54-.09,5.3,0,2.75-.07,5.47-.08,8.21,0,2.51,0,5,.06,7.56v2.29c0,2.79,0,5.58.08,8.37.06,3.17.17,6.4.27,9.52l.71,21.2c0,.48.06,1,.08,1.43q.48,11.49.94,23c0,.78.06,1.58.09,2.38,0,.64.05,1.27.08,1.91,0,1.16.1,2.33.16,3.49.11,2.29.22,4.66.29,7,.2,7.72.33,14.12.41,20.13.07,4.22.12,8.71,0,13.19-.14,4.73-.37,9.76-.75,15.82a148.64,148.64,0,0,1-2.55,19.51,100.17,100.17,0,0,1-2.9,11.32c4.69-4.35,12.18-11.6,14-13.65l0-.37-.47-3.31c-.31-2.23-.64-4.53-.89-6.82-.63-5.67-1.28-11.76-1.78-17.8s-1.06-12.94-1.37-19.91c-.36-7.94-.54-16-.71-23.82l0-1.24c-.09-4.54-.06-9,0-12.77.07-5,.22-10,.36-14.82l.05-1.48c.1-3.68.21-7.49.43-11.24.39-6.83.76-13,1.29-19.28.68-8.17,1.44-16.93,2.4-25.55,1.7-15.32,4-30.78,6.76-45.94,3.14-17.1,6.51-31.93,10.31-45.31.91-3.21,1.94-6.44,2.93-9.56l.52-1.65a2.13,2.13,0,0,0,.07-.27,3.18,3.18,0,0,1,1.39-2.16,1.63,1.63,0,0,1,.47-.25,1.51,1.51,0,0,1,1.53.37,1.58,1.58,0,0,1,.42,1.26,2.46,2.46,0,0,1-.07.29l-.32,2c-1.54,9-2.72,17.26-3.6,25.28-.63,5.67-1.14,10.66-1.57,15.27-.31,3.5-.59,7.32-.87,12-.16,2.79-.27,5.64-.37,8.4l-.12,3c0,.89-.07,1.79-.11,2.69-.1,2.33-.2,4.74-.24,7.11-.06,3.89-.06,7.71,0,12.26,0,1.28,0,2.55,0,3.83,0,4.12,0,8.38.15,12.55.27,8.83.6,16.53,1,23.54.35,6.16.76,12.41,1.16,18.47q.48,7.14.92,14.3c.55,8.88,1,17.81,1.44,26.45.3,5.93.36,12.27.2,19.39a175,175,0,0,1-1.27,18,109.25,109.25,0,0,1-5,22.39l17.31-18a.33.33,0,0,0,.09-.12.59.59,0,0,0,0-.13l-.2-1.2c-.26-1.52-.53-3-.79-4.58-.6-3.4-1.22-6.92-1.77-10.4-1-6.42-1.84-12.21-2.55-17.71-.94-7.28-1.64-13.25-2.2-18.79-1.27-12.78-2.15-24.59-2.69-36.1s-.74-20.15-.66-28.39c0-1.72,0-3.45,0-5.17,0-2.55,0-5.18.05-7.78.14-5.5.34-11.14.63-17.25.25-5.24.54-10.88,1-16.62.65-8.33,1.49-16.8,2.49-25.17,2.08-17.19,4.95-34.24,8.53-50.67.54-2.48,1.11-4.95,1.68-7.43.31-1.32.62-2.65.92-4l0-.19a3.19,3.19,0,0,1,1.37-2.27,1.42,1.42,0,0,1,1-.27,1.49,1.49,0,0,1,1.35,1.49,1.84,1.84,0,0,1,0,.33l-.18.87c-.22,3-.45,6.16-.62,9.29-.15,2.78-.27,5.58-.39,8.37l-.08,1.85c0,1-.06,2.08-.08,3.12l-.09,3.41c0,1.81-.09,3.67-.08,5.49,0,3.16.08,6.22.15,8.8.05,1.7.1,3.41.14,5.13.11,4.15.21,8.45.48,12.64,1,16.25,2,28.59,3.31,40,.32,2.79.62,5.57.91,8.36s.62,5.86,1,8.78.72,6.1,1.09,9.15c.55,4.55,1.12,9.26,1.62,13.9.95,8.83,1.73,16.79,2.38,24.34a289.74,289.74,0,0,1,1.22,38.53A172.93,172.93,0,0,1,271,596.51a124.22,124.22,0,0,1-3.88,17.12c7.65-8.47,15.11-17,22.22-25.35a4.5,4.5,0,0,0,.3-.42l-.35-1.17c-.42-1.45-.86-2.9-1.29-4.34-.95-3.16-1.94-6.42-2.82-9.66-2.08-7.67-4-16-5.73-25.33-1.56-8.23-2.75-15.47-3.65-22.14l-.27-2c-.28-2.06-.57-4.13-.82-6.19-.14-1.16-.29-2.31-.44-3.47-.46-3.61-.94-7.34-1.26-11.05-.83-9.18-1.58-18.62-2.25-28.05-.36-5.17-.59-10.43-.82-15.52l-.1-2.35c-.15-3.39-.27-6.78-.38-10.17l-.18-5.23c0-.63,0-1.25,0-1.87,0-2-.05-4-.07-6l-.05-4.87c0-1.08,0-2.15,0-3.22,0-1.59,0-3.19,0-4.79,0-1.78,0-3.57,0-5.36,0-1.27.05-2.53.07-3.79s.06-2.4.08-3.59,0-2.55,0-3.83c0-2.31,0-4.7.09-7.06.13-4.56.33-9.13.52-13.54l.14-3.42c.15-3.65.3-7.44.56-11.16.38-5.46.87-11,1.35-16.36l.16-1.85c.12-1.35.31-2.7.5-4l.24-1.72a1.5,1.5,0,0,1,1.49-1.31h0a1.51,1.51,0,0,1,1.49,1.32,24,24,0,0,1,.13,3c0,.46,0,.91,0,1.36l.09,3c.12,3.66.24,7.45.47,11.15.65,10.88,1.47,19.87,2.57,28.31l.51,3.5c.33,2.21.65,4.41,1,6.61q.9,5.88,1.83,11.75c.21,1.39.47,2.78.73,4.16l.08.45,1.56,8.34.79,4.24q.53,2.88,1.08,5.75c.52,2.66,1.07,5.31,1.61,8l1.52,7.43q.69,3.45,1.41,6.9t1.41,6.66c.49,2.33,1,4.66,1.47,7q1.46,7,2.86,14.08l.73,3.61c.77,3.83,1.57,7.79,2.29,11.7,1,5.45,1.82,10.29,2.5,14.82.74,4.88,1.58,10.65,2.26,16.53a160.57,160.57,0,0,1,1.1,18.39,114.73,114.73,0,0,1-.56,12c-.24,2.32-.59,4.64-1.05,6.93q7.28-9,14.51-18.11l.2-.24c.19-.24.41-.51.5-.65s-.2-.64-.34-1.06l0-.1a308.89,308.89,0,0,1-10.21-35.64c-.91-4-1.94-8.58-2.87-13.05-.79-3.82-1.5-7.7-2.14-11.32S302.54,483,302,479.42l-.33-2.09c-.59-3.76-1.21-7.64-1.72-11.49-.73-5.45-1.5-11.27-2.08-17.16-.62-6.18-1.19-12.81-1.86-21.51-.29-3.82-.51-7.7-.72-11.45-.1-1.66-.19-3.31-.29-5-.06-.84-.11-1.67-.13-2.5q-.17-6.9-.29-13.76v-.77c-.05-2.48-.09-5-.1-7.47,0-1.54,0-3.1.08-4.61l0-.75c.06-2.07.12-4.12.2-6.17.1-2.31.21-4.61.31-6.92l.15-3.1a1.5,1.5,0,0,1,3-.22c.35,1.81.62,3.64.89,5.41.14,1,.28,1.93.44,2.89.58,3.57,1.26,7.23,1.86,10.46l.48,2.64c.54,3,1.09,6,1.76,9,1.42,6.3,3,12.64,4.54,19.11,2.37,9.67,5.22,19.4,8,28.8l.17.57,2,6.81c3,10,6,20.38,8.66,30.7,1.29,5.09,2.45,10.52,3.45,16.14a137.09,137.09,0,0,1,1.71,14.83,96.82,96.82,0,0,1-.37,17.9c-.25,2.25-.6,4.55-1.06,7l1.66-2.19,4-5.29,3.05-4.11.82-1.11c.71-1,1.41-1.89,2.09-2.84.29-.42.61-.84.93-1.25a17.26,17.26,0,0,0,1.41-2c-.07-.2-.12-.39-.2-.58-4.3-11.54-8.17-23.53-11.5-35.65-2.06-7.52-3.94-15.08-5.51-21.49-1.17-4.79-2.17-9.48-3.26-14.67-1.21-5.77-2.17-10.57-3-15.12-1-5.27-1.84-10.57-2.48-14.6-.79-5-1.52-9.93-2.32-15.45-.4-2.76-.75-5.5-1.16-8.77-.14-1.16-.28-2.31-.43-3.46-.44-3.42-.89-6.95-1.22-10.45l-.24-2.63c-.85-8.93-1.73-18.17-2.16-27.31q-.37-7.93-.72-15.86l-.23-5.94v-2.51q0-5.73,0-11.46c0-2.91.12-6,.27-9.48,0-1.12.14-2.24.26-3.43.05-.52.1-1.06.15-1.63a1.51,1.51,0,0,1,1.46-1.37,1.53,1.53,0,0,1,1.52,1.3l.47,3.5c.33,2.44.64,4.79,1,7.14.26,1.77.56,3.53.85,5.3L317,318c.4,2.42.8,4.84,1.24,7.26.38,2.06.82,4.15,1.24,6.18l.46,2.23.69,3.47c.47,2.35.95,4.78,1.48,7.14,1,4.59,2.13,9.35,3.39,14.55s2.83,11.58,4.45,17.88c1.42,5.51,2.93,11.11,4.38,16.52l.51,1.89q1.29,4.83,2.6,9.64,2.28,8.44,4.53,16.91c1.82,6.93,4,15.17,6,23.68,2,8.18,3.56,15.7,4.83,23,.94,5.43,1.63,10.25,2.1,14.73a103.86,103.86,0,0,1,.35,20c2.89-4.08,6.06-8.61,9.18-13.2l-.07-.26c-2.44-8.21-4.44-15.76-6.1-23.05l-.17-.75c-1-4.41-2.05-9-3-13.48-1.06-5-2.06-9.94-3-14.71-.83-4.33-1.58-8.74-2.31-13l-.13-.77c-.89-5.17-1.8-10.53-2.63-15.81-.78-5-1.47-10-2-14.25-1-7.3-1.91-14.43-2.76-21.18-.54-4.28-1-8.48-1.43-12.47-.76-7.48-1.63-16-2.39-24.32s-1.29-16.76-1.62-25.07c-.06-1.34-.13-2.68-.21-4-.1-1.64-.19-3.33-.24-5-.12-3.94-.2-8-.23-12.34v-.63c0-3.78-.06-7.68.06-11.52.09-3,.3-6.06.5-9l.19-2.72c0-.52.1-1,.17-1.55,0-.24.07-.48.1-.72a1.5,1.5,0,0,1,2.95-.17,39.34,39.34,0,0,1,1,6.55c.33,5,.9,10,1.45,14.91.22,1.95.44,3.91.65,5.86l.08.58.6,4.12c.51,3.49,1,7,1.57,10.45l.11.76c.73,4.65,1.49,9.47,2.36,14.17,1,5.33,2.12,10.61,3,14.61l.61,2.77c1.22,5.58,2.49,11.35,3.93,17,2.22,8.74,4.76,18.31,8,30.1.56,2,1.12,4.07,1.69,6.1,2.93,10.59,6,21.54,8.28,32.51,1,4.78,1.78,9.11,2.38,13.21a124,124,0,0,1,1.45,17.79,121.45,121.45,0,0,1-.57,12.45c-.21,2-.47,4-.8,6q2.08-3.12,4.14-6.27l1.61-2.45c1.81-2.74,3.67-5.57,5.37-8.35l-.86-2.67c-.88-2.72-1.73-5.36-2.55-8-2.3-7.46-4.36-15.16-6.14-22.88-1.14-4.94-2.15-10-3.14-14.87l-.32-1.63c-.51-2.47-1-5.12-1.52-8.33-.71-4.35-1.46-9-2.16-13.81-.43-2.9-.83-5.91-1.21-9.2l-.32-2.76c-.54-4.65-1.1-9.46-1.53-14.21-.92-10.1-1.43-17.9-1.66-25.28-.07-2.12-.15-4.25-.24-6.37-.13-3.29-.26-6.7-.33-10.06-.09-4.13-.08-8.33-.06-12.38v-4.09c0-3.36,0-6.84.09-10.27.15-4.83.36-10,.68-16.63l0-1c.2-4.2.41-8.54.75-12.81.57-7,1.16-13.29,1.81-19.23.87-8,1.81-14.4,3-20.2.06-.29.13-.58.22-1l.2-.81a1.5,1.5,0,0,1,3,.36l0,1.8c0,.75,0,1.41,0,2.08l-.1,5.75c0,.9,0,1.82,0,2.74,0,1.67-.06,3.34-.05,5,0,2.72.09,5.48.16,8.16l0,.84c0,1.4.06,2.8.08,4.2.06,3.39.12,6.89.31,10.32.51,9.31,1,17.71,1.82,26.15.72,7.35,1.39,13.89,2.05,20,.31,2.92.71,5.76,1.16,8.91.77,5.34,1.47,10.05,2.15,14.38.52,3.36,1.11,6.93,1.8,10.91.51,3,1.06,5.93,1.61,8.89l.18,1q1.14,6.13,2.33,12.28c.57,3,1.17,5.92,1.77,8.88l.6,3c.31,1.59.63,3.17,1,4.76.43,2.17.87,4.34,1.3,6.51l.2,1c.73,3.7,1.46,7.4,2.16,11.1.39,2.09.75,4.19,1.12,6.28.18,1.08.37,2.15.56,3.22.88,5,1.6,10.13,2.2,15.76a114.23,114.23,0,0,1,.63,14.17l.67-1.09.86-1.39c1.27-2.06,2.53-4.12,3.77-6.2.4-.66.8-1.32,1.21-2,.79-1.29,1.55-2.52,2.2-3.74l-.88-2.38c-.67-1.8-1.32-3.56-1.93-5.32A289,289,0,0,1,396,379.06c-1.67-7.78-3.22-15.87-4.64-24-1.11-6.45-2.16-13.5-3.31-22.18-.85-6.43-1.62-13.17-2.28-20-.51-5.33-.91-10.75-1.31-16q-.19-2.76-.42-5.52c-.18-2.51-.37-5.18-.47-7.85-.17-4.45-.38-10.32-.5-16.23-.11-4.94-.2-9.78-.14-14.62.06-5.47.28-10.87.48-15.42l0-1a31.36,31.36,0,0,1,.54-5.45,1.5,1.5,0,0,1,3,.14c.15,1.43.29,2.81.43,4.15.22,2.11.43,4.13.66,6.16q.69,6.12,1.43,12.22c.22,1.79.49,3.6.75,5.36l0,.21c.33,2.18.66,4.36,1,6.55.25,1.58.53,3.16.8,4.74l.3,1.7.57,3.26c.35,2.07.71,4.15,1.1,6.22s.79,4,1.21,6l1.09,5.28c.5,2.4,1,4.88,1.56,7.3,1.05,4.63,2.15,9.14,3.37,14.14q1.22,5,2.47,10.05l2.46,9.92c.95,3.83,1.91,7.66,2.82,11.49,1.14,4.79,2.34,9.93,3.42,15,.79,3.69,1.52,7.6,2.25,12,.56,3.36,1.07,6.87,1.49,10.43a138.15,138.15,0,0,1,1.13,16.35c0,2.07,0,4.15-.06,6.22v.85l8.23-14.32.55-1c.26-.46.52-.92.79-1.37.13-.24.1-.31.06-.42a6.75,6.75,0,0,1-.29-.9c0-.13-.07-.26-.11-.39-2.69-8.37-5.2-17.08-7.44-25.91-2.07-8.18-4-16.75-5.79-25.47-1.61-7.95-3.1-16.23-4.55-25.3-.93-5.79-1.79-11.82-2.56-17.93-.78-6.3-1.67-13.72-2.35-21.06-.94-10.14-2-22.15-2.4-34.28-.1-2.68-.21-5.37-.32-8-.13-3.2-.26-6.39-.37-9.59-.11-2.9-.13-5.77-.14-8.45,0-4.12,0-9.53,0-15,0-3.65.08-7,.18-10.29s.24-6.6.37-9.45l.1-2.46c.13-2.9.26-5.9.47-8.85.3-4.28.69-9,1.23-14.74a194.54,194.54,0,0,1,2.93-20.86c.08-.44.19-.9.3-1.35l.08-.33a1.52,1.52,0,0,1,1.62-1.15,1.5,1.5,0,0,1,1.34,1.46c.07,3.09,0,6.18,0,9.18v.54c0,1.57-.06,3.14-.07,4.7l0,1.9c0,2.2-.05,4.47,0,6.69s.07,4.35.12,6.51l.05,2.5c0,1.25.05,2.5.07,3.75.06,3.07.11,6.24.25,9.34.18,4.21.44,8.49.69,12.63.09,1.59.19,3.19.28,4.78,0,.66.09,1.32.16,2l1.12,11.12c.5,4.93,1,9.87,1.52,14.79.17,1.59.4,3.21.62,4.77.1.71.19,1.41.29,2.12l.34,2.1c.34,2.19.69,4.38,1,6.57l.42,2.78c.21,1.37.41,2.74.63,4.11s.5,2.94.78,4.4q.86,4.53,1.73,9.05l.35,1.79c.4,2.08.8,4.16,1.24,6.23.64,3,1.34,6.1,2,9.06l.65,2.9q1.14,5.11,2.32,10.22c.64,2.7,1.28,5.41,1.93,8.11l1.44,6.05.44,1.85c1,4.11,2,8.35,2.89,12.55,1.12,5.07,2,9.35,2.82,13.72.52,2.86.94,5.76,1.36,8.57.19,1.35.39,2.69.6,4a117.29,117.29,0,0,1,1.23,14.29,100.62,100.62,0,0,1-.16,11.86c-.08.93-.17,1.86-.25,2.78l.37-.69q4.77-8.94,9.58-17.87a1.63,1.63,0,0,0,0-1.51c-2.63-7.17-5.09-15-7.74-24.56-2.2-8-4-15.35-5.59-22.58-1-4.41-1.89-8.74-2.74-13.08s-1.65-8.69-2.54-13.74c-.57-3.28-1.14-6.87-1.76-11l-.41-2.81c-.62-4.15-1.26-8.44-1.75-12.68-.64-5.45-1.24-11.26-1.92-18.82-1-10.89-1.63-21.89-1.9-32.68-.07-2.9-.1-5.14-.08-7.24,0-4.62.09-8.65.18-12.32.07-2.8.16-5.61.26-8.41l.12-3.67a1.51,1.51,0,0,1,1.27-1.43,1.49,1.49,0,0,1,1.64,1,18,18,0,0,1,.87,4.15c.11,1,.21,2.06.31,3.1.15,1.48.29,3,.48,4.44.39,3.16.82,6.31,1.25,9.46l.43,3.19c.27,2,.55,4.14.88,6.19.55,3.45,1.16,7,1.76,10.33l.7,4c.57,3.29,1.16,6.7,1.81,10,.78,3.95,1.66,8,2.51,11.83l1.11,5.07c.82,3.76,1.66,7.66,2.61,11.45,2.33,9.34,4.73,18.59,7,27.19l.23.87c2.19,8.38,4.46,17,6.31,25.67a162.22,162.22,0,0,1,3,18.6,104.71,104.71,0,0,1,.52,12.49L458.5,330q3.67-7.39,7.37-14.78a1.77,1.77,0,0,0,.1-1.57c-2.36-6.83-4.47-14.09-6.29-21.6-1.25-5.19-2.53-10.86-4-17.85-.81-3.73-1.5-7.49-2.2-11.32-.9-5-1.77-9.86-2.55-14.8-.82-5.18-1.52-10.34-2-14.26L448.6,232c-.78-5.81-1.58-11.81-2.25-17.75-.71-6.34-1.37-13.1-2-20.67-1.58-18.36-2.48-33.49-2.85-47.62l0-.84c-.17-6.6-.35-13.42-.23-20.14q.06-3.15.13-6.3c0-2.28.09-4.55.13-6.82.08-4.5.42-9.41,1.05-15.47l.06-.51a22,22,0,0,1,.8-4.62,1.5,1.5,0,0,1,2.93.36l.18,3.16c.16,3,.33,5.91.5,8.84.67,11,1.79,22.22,2.9,32.64q.07.63.18,1.26v.11c.33,2.48.66,4.94,1,7.4l.8,5.91c.26,1.86.51,3.73.78,5.6.24,1.66.5,3.28.77,4.81.59,3.36,1.21,6.71,1.84,10.07l.5,2.76c.53,2.92,1.08,5.93,1.73,8.88,1.33,6.17,2.65,11.9,4,17.52,1.61,6.58,3.42,13.66,5.52,21.63l.65,2.46c2.58,9.75,5.25,19.83,7.15,29.94.89,4.74,1.54,9.16,2,13.52a126.91,126.91,0,0,1,.27,23.1l1.28-2.82q4.18-9.24,8.41-18.47a1.73,1.73,0,0,0-.08-1.67A208.88,208.88,0,0,1,476,236.59c-1.64-6.25-3.12-12.67-4.37-18.2-1.06-4.71-2.06-9.6-3-14.53s-1.75-9.89-2.52-15l-.21-1.41c-1-6.73-2-13.69-2.87-20.58-1.08-9-1.81-16.6-2.32-23.77l-.1-1.55c-.5-7-1-14.28-1.16-21.47,0-1.53-.06-3.06-.1-4.59,0-1.69-.08-3.37-.11-5.06,0-2.14,0-4,0-5.8.08-3,.2-6.84.37-10.7.06-1.25.17-2.52.27-3.75l.15-1.78A1.51,1.51,0,0,1,461.26,87a1.52,1.52,0,0,1,1.63.83l.34.7a1.84,1.84,0,0,1,.14.51l1.37,14.45c.09,1,.18,1.91.31,2.84l.63,4.24c.74,5.06,1.5,10.29,2.31,15.42.76,4.73,1.52,9,2.35,13.06,1.14,5.61,2.32,11.41,3.75,17.17,2.33,9.41,4.87,19.33,8.24,32.16.69,2.61,1.39,5.22,2.08,7.82,1.83,6.8,3.71,13.83,5.34,20.82a197.2,197.2,0,0,1,4.33,24.2c.37,3.61.57,7,.6,10.3.34-.82.69-1.64,1-2.46l2.41-5.68a.92.92,0,0,0,0-.73c-.32-.9-.62-1.83-.91-2.75a287.68,287.68,0,0,1-8.4-33.59c-1.42-7.51-2.62-15.32-3.56-23.22-.58-4.9-1-9.9-1.44-14.72l-.33-3.71c-.11-1.33-.16-2.67-.21-4,0-.61-.05-1.23-.08-1.84-.06-1.18-.12-2.36-.19-3.54-.14-2.54-.29-5.17-.34-7.78-.12-5.16-.13-10.32-.13-16,0-4.14,0-7.62.16-11.13.2-5.51.45-10.48.77-15.19.35-5.13.78-11.19,1.38-17.23.74-7.36,1.69-14.64,2.82-21.64,1.38-8.47,2.84-15.87,4.48-22.63,0-.1,0-.21.07-.31a3.85,3.85,0,0,1,1.09-2.26,1.5,1.5,0,0,1,2.56,1.19c-.05.55-.11,1.1-.16,1.66-.13,1.26-.25,2.53-.33,3.8-.16,2.36-.31,4.89-.46,7.95s-.26,6.1-.34,8.38-.15,4.23-.17,6.32c0,1.8,0,3.61,0,5.41l0,4.94c0,2.58,0,5.24.1,7.86.07,3.39.2,6.45.39,9.36l.14,2.11c.31,4.8.63,9.78,1.08,14.64.4,4.28.91,8.63,1.4,12.83.18,1.49.36,3,.53,4.47q.54,4.8,1.13,9.59l.49,4,.44,3.18c.35,2.54.7,5.08,1,7.62.57,4.48,1,8.24,1.47,12.05.16,1.45.32,2.91.49,4.37.55,4.79,1.11,9.75,1.53,14.64a254.35,254.35,0,0,1,.86,25.79c0,2.16-.1,4.26-.2,6.33,1.43-6.83,3-13.81,4.76-20.85,5.08-20.62,11.45-42.43,20-68.62,6.82-20.78,14.26-41.72,21.46-62L554.83,59c4.5-12.67,9-25.59,13.31-38.08l2-5.87c.86-2.47,1.67-5,2.45-7.46.5-1.54,1-3.08,1.49-4.61a3.18,3.18,0,0,0,.11-.38A3.63,3.63,0,0,1,575.73.26,1.49,1.49,0,0,1,578,1.88c0,.21-.11.42-.17.63a11.08,11.08,0,0,0-.31,1.23h0q-1.41,7.64-2.78,15.29c-1.77,9.8-3.61,19.93-5.48,29.89-3.38,18-7.33,35.9-11.74,53.35-5.09,20.07-11,39.67-17.48,58.26a485.48,485.48,0,0,1-29.15,67.59,11.34,11.34,0,0,0-.74,1.66q-1.5,4.51-3,9c6.17-9.65,12.94-19.21,20.17-28.5,9.09-11.68,18.92-22.93,27.43-32.57l.64-.73c8.83-10,18-20.31,26.45-30.84a358,358,0,0,0,36-53.77c1.44-2.65,2.85-5.38,4.23-8L623.88,81l.12-.26a3.37,3.37,0,0,1,2-2,1.49,1.49,0,0,1,1.42.19,1.51,1.51,0,0,1,.46,1.87l-.27.51c-.14.27-.29.55-.41.83-.24.61-.46,1.24-.68,1.86L626,85.2C623.77,91.11,621,97.4,617.2,105c-5.6,11.31-12,22.91-19.67,35.46a573.1,573.1,0,0,1-49.4,69.58c-16.47,19.78-31.26,34.51-46.52,46.38a2.31,2.31,0,0,0-.81,1.12q-2.25,6.06-4.52,12.1L494,275.84c4.69-5.69,9.91-11.54,15.83-17.76,11.75-12.33,24.06-23.85,34.56-33.5q8.52-7.83,17.06-15.63,12.74-11.67,25.45-23.36c10.07-9.28,20.15-19.08,30-29.14,7.34-7.53,14.33-15.06,20.76-22.36.28-.32.56-.61.84-.9l.52-.55a1.48,1.48,0,0,1,1.89-.25,1.5,1.5,0,0,1,.61,1.81,15.31,15.31,0,0,1-1.89,3.31c-8.78,12.56-18.64,25.76-30.16,40.35a776.14,776.14,0,0,1-51.21,59A450,450,0,0,1,519,273.33a230.36,230.36,0,0,1-31.81,22.2l-.74.42c-.25.13-.49.27-.56.32s-.12.32-.23.61l-.29.71c-4.23,10.2-8.79,20.66-13.57,31.08l-.6,1.32c3.26-3.48,6.8-7,10.69-10.57a325.73,325.73,0,0,1,27.28-22.33c7.35-5.44,14.86-10.91,22.12-16.21l14-10.21c17.8-13,33-25.08,46.32-36.81A501.29,501.29,0,0,0,636,189.72c2.31-2.61,4.62-5.3,6.86-7.91,1.33-1.55,2.66-3.11,4-4.65a2.06,2.06,0,0,1,2.64-.94,1.49,1.49,0,0,1,.78,2.07l-.49,1L647.58,183c-1.57,2.71-3.19,5.5-4.88,8.21a306,306,0,0,1-26.21,35.23,534.93,534.93,0,0,1-41.75,43.5,864.22,864.22,0,0,1-78.35,65.2c-15.56,11.49-28.55,20.5-40.89,28.34a3.89,3.89,0,0,0-1.29,1.57q-4.92,9.45-9.88,18.89l1.12-1.09a325.83,325.83,0,0,1,32.37-27.14c13.61-10.18,28.26-20.11,40-28.09l2.54-1.72c15-10.18,30.57-20.7,45.61-31.41a833.53,833.53,0,0,0,91.59-74.92,1.82,1.82,0,0,1,2.62-.3,1.51,1.51,0,0,1,.59,1,1.49,1.49,0,0,1-.33,1.13l-.6.73-1.76,2.14c-6,7.11-12.33,14.18-18.81,21-16,16.83-33.29,33.55-52.95,51.12-19.05,17-38.88,33.4-58.94,48.7A657.55,657.55,0,0,1,471.09,384a360.83,360.83,0,0,1-36.76,19.92,4,4,0,0,0-1.93,1.81q-5,8.81-10.13,17.57l-.36.61c1.79-1.52,3.57-3,5.38-4.54,11.42-9.43,24.25-19.22,40.39-30.8,19.61-14.07,39.93-27.82,59.58-41.11l3.51-2.38c21.49-14.53,43.7-29.56,65.13-44.92,23.45-16.81,42-31.2,58.44-45.3a2,2,0,0,1,2.38-.59,1.51,1.51,0,0,1,.56,2.41l-1.45,1.61c-.88,1-1.74,1.93-2.61,2.87-9.69,10.41-19.82,20.14-27.56,27.44-17.61,16.63-36.23,33-55.35,48.79-23.7,19.52-45.78,36.24-67.49,51.13-17,11.66-32.85,21.49-48.4,30a339.5,339.5,0,0,1-40.17,19.09,2,2,0,0,0-1.07.95q-2.6,4.26-5.21,8.5a150.38,150.38,0,0,1,14.27-10.19,280.82,280.82,0,0,1,24.77-14c11.64-5.87,23.51-11.76,35-17.46l2.84-1.4c18.69-9.28,33.7-17.1,47.24-24.61A777,777,0,0,0,611.33,329c.29-.2.58-.37.87-.54l.31-.18a1.5,1.5,0,0,1,1.84,2.34c-2,2-4.09,4-6.73,6.24-10.49,9.06-22.19,18.5-36.81,29.69-21.23,16.25-41.53,30.61-62.07,43.9-17.55,11.36-33.54,20.78-48.89,28.82a318.55,318.55,0,0,1-37,16.76,150.67,150.67,0,0,1-24.45,7.11,1.44,1.44,0,0,0-1.1.76c-1.3,2.09-2.67,4.19-4,6.22l-.68,1.05c-.48.75-1,1.5-1.47,2.26,3.16-1.89,6.57-3.75,10.33-5.62,7.37-3.68,15.37-7.14,25.16-10.89q10.06-3.86,20.15-7.65l13.6-5.15c19.48-7.42,35.51-14.24,50.45-21.45a461.6,461.6,0,0,0,53.17-30.1,506.9,506.9,0,0,0,66.23-52.35l4.17-3.88.28-.26A1.5,1.5,0,0,1,637,338l-.67,1a.61.61,0,0,1-.12.16c-7.77,9.12-15.7,17.83-23.55,25.88a460.7,460.7,0,0,1-79.13,65.22,415.17,415.17,0,0,1-58.27,31.49,402.33,402.33,0,0,1-56.14,20.13c-5.61,1.55-11.58,3-19.36,4.83-3.56.82-7.19,1.51-10.7,2.17l-3.83.73c-1.72.34-3.44.65-5.11.91a.68.68,0,0,0-.59.37l-.05.08-.59.84-9.18,13.35.84-.39c1.8-.85,3.67-1.72,5.53-2.54a332.19,332.19,0,0,1,38.11-13.9c10.32-3.15,20.83-6.26,31-9.26l7.72-2.28c19.71-5.83,35.79-11.06,50.61-16.45,18.41-6.7,36.5-14.28,53.75-22.51,13.53-6.48,27.21-13.62,40.64-21.21,11.94-6.75,24.14-14.13,36.27-21.92.33-.22.66-.49,1-.78.15-.13.3-.26.46-.38a1.5,1.5,0,0,1,2.38,1.58,3.58,3.58,0,0,1-1.42,2.09l-1.7,1.38c-.92.75-1.84,1.5-2.77,2.24a528.76,528.76,0,0,1-49.74,34.74,688,688,0,0,1-63.31,35c-32.45,15.73-63.11,27.49-93.74,36-6.42,1.78-12.83,3.31-19.95,5-3.87.92-8.1,1.8-13.32,2.76-4.9.91-10.16,1.86-15.44,2.6-5,.71-10,1.23-14.92,1.74l-1,.11a1.05,1.05,0,0,0-.93.53c-1.24,1.78-2.48,3.49-3.85,5.38l-4.14,5.64-5.75,7.85c4.83-1.9,9.61-3.44,13.39-4.61,9.59-3,19.44-5.57,29-8.07l5.28-1.4L408,520.26c8-2.12,16.35-4.31,24.52-6.52,16.72-4.51,33.8-9.65,50.76-15.26a708.37,708.37,0,0,0,85.35-34.38,7.72,7.72,0,0,1,3.56-.89,1.49,1.49,0,0,1,1,.22,1.55,1.55,0,0,1,.64,1.75,1.69,1.69,0,0,1-.31.54,4.51,4.51,0,0,1-1.84,1.52l-.41.23c-9.52,5.86-19.87,11.86-31.67,18.33-17,9.32-33.9,17.84-50.28,25.33A570.62,570.62,0,0,1,432.07,534c-8.93,3-17.71,5.54-26.08,7.62-6.36,1.57-12.22,2.84-17.94,3.87s-10.28,1.7-14.73,2.17a160.5,160.5,0,0,1-17.77,1c-4.71,0-9-.23-13.24-.62-.47,0-.93-.12-1.4-.19a12.42,12.42,0,0,0-1.83-.18l-5.41,6.93q-7.83,10-15.6,20c3.9-1.72,7.87-3.31,11.84-4.73a205.59,205.59,0,0,1,22.62-6.54c4.68-1.06,9.46-2,14.08-2.93l2.63-.52c2.74-.55,5.54-1,8.25-1.49l.27,0q7.78-1.35,15.58-2.63l4.87-.78c2.09-.33,4.18-.66,6.27-1,4.89-.84,9.7-1.69,14.32-2.55l2.89-.53c4.14-.75,8.41-1.53,12.58-2.43,5.78-1.25,11.87-2.66,19.73-4.58,9.82-2.4,19.94-5.39,30.93-9.15a396,396,0,0,0,39.35-16c.26-.12.55-.24.84-.35l.36-.14a1.5,1.5,0,0,1,1.61,2.47l-.77.75a1.3,1.3,0,0,1-.23.18,364,364,0,0,1-33.05,19,506.08,506.08,0,0,1-78.34,31.47c-8.5,2.67-17.4,5.23-26.46,7.62-5.78,1.53-11.55,2.9-17.94,4.41-3.8.9-7.57,1.71-12.07,2.64-4.83,1-8.57,1.75-12.12,2.39-4.13.74-7.8,1.34-11.19,1.81l-.38.06c-5.81.83-11.82,1.68-17.76,2.35-4.24.48-8.55.75-12.73,1l-1.26.08a1.71,1.71,0,0,0-1.38.71q-8.19,9.77-16.44,19.52l-2,2.4c6.22-2.42,12.77-4.69,19.92-6.91,14.58-4.53,29.32-8.12,40.54-10.75,7-1.65,14.22-3.27,21.16-4.83l11.25-2.54q11.9-2.7,23.78-5.45c9.55-2.21,19.35-4.68,30-7.56,15-4.07,28.67-8.34,41.76-13a381.19,381.19,0,0,0,44.78-19.34,8.17,8.17,0,0,0,1.06-.71l.62-.44a1.5,1.5,0,0,1,2.2,1.89,1.29,1.29,0,0,1-.09.16l-.5.85a1.52,1.52,0,0,1-.3.37,14.28,14.28,0,0,1-1.33,1l-.3.21a366.94,366.94,0,0,1-34.8,21.23,508.39,508.39,0,0,1-66.86,30.22c-12.76,4.69-25.47,8.77-37.78,12.14-5.87,1.6-11.62,3.08-17.11,4.41-3.6.87-7.28,1.62-10.84,2.34l-2.25.46c-2.7.56-5.57,1.1-8.51,1.6l-.5.09c-3.83.65-7.78,1.33-11.7,1.87-5.06.7-9.55,1.24-13.71,1.65-5.6.55-11.09,1.06-16.64,1.34-6.71.33-14.65.62-22.7.31-.25,0-.28,0-.37.14l-3.81,4.29q-4.8,5.42-9.63,10.81-2.65,2.94-5.32,5.85l-1.07,1.17a197.58,197.58,0,0,1,30.55-9.52c3.84-.91,8-1.81,12.67-2.77s9-1.75,12.73-2.42c2.88-.53,5.82-1,8.67-1.49l3.73-.62c3.3-.55,6.59-1.09,9.89-1.61l7.14-1.11,4.62-.71,6.17-1,6.19-1,4-.62c2.46-.39,4.92-.77,7.36-1.19,4.49-.77,9.18-1.6,14.33-2.54l2.51-.46c4.33-.78,8.81-1.59,13.18-2.49,5.33-1.11,10.74-2.33,16-3.5l2.64-.6c8.53-1.92,17.32-4.24,26.87-7.07a372.19,372.19,0,0,0,54.67-20.93,3.92,3.92,0,0,1,1.88-.5,1.5,1.5,0,0,1,.85,2.7c-2,1.51-4.09,2.95-6.15,4.29a302.81,302.81,0,0,1-31.83,17.81,492.09,492.09,0,0,1-59.69,24.53c-12.17,4.12-23.39,7.45-34.32,10.18-5.88,1.48-11.94,2.92-18,4.27-4.93,1.11-9.88,2.13-14.72,3-5,.91-10.27,1.77-15.64,2.56-5.85.86-11.89,1.74-18,2.38A423,423,0,0,1,258.54,662c-2.23,0-4.49,0-6.68-.08h-.54c-2.67-.05-5.34-.11-8-.2-.28,0-.33.05-.42.16a10.46,10.46,0,0,1-.73.77l-.31.33-2.83,3c-2.54,2.68-5.08,5.37-7.64,8q-3,3.13-6,6.25l-1.44,1.49c5.76-2,11.88-3.92,18.61-5.86,7.81-2.26,15.88-4.29,24-6,5.3-1.14,10.66-2.16,14.74-2.91,5.54-1,10.51-1.87,15.2-2.61,3.56-.55,7.19-1,10.7-1.52l4.16-.57c2.58-.36,5.17-.7,7.74-1l5.18-.68,13.75-1.78,5.14-.65,5.65-.71c2.14-.28,4.42-.58,6.68-.92l4.13-.63c4.56-.7,9.27-1.42,13.89-2.19,5.07-.85,11.05-1.88,16.9-3.06,4-.79,8-1.72,11.93-2.61l3.66-.84c6.81-1.55,14.1-3.49,22.29-5.93A442.76,442.76,0,0,0,482.36,621l5.76-2.57,2.47-1.09a1.5,1.5,0,0,1,1.74-.11,1.53,1.53,0,0,1,.73,1.39,1.48,1.48,0,0,1-.65,1.16l-.53.61a1.51,1.51,0,0,1-.23.21c-.55.42-1.13.77-1.68,1.12l-.47.29a432.81,432.81,0,0,1-47.41,26.08,454.31,454.31,0,0,1-56.86,22.18c-8,2.52-15.08,4.57-21.74,6.29-4.55,1.17-9,2.29-13.34,3.34-2.81.7-5.87,1.41-9.6,2.24-2.23.51-4.42.95-6.66,1.4s-4.32.84-6.49,1.24l-2,.38-3,.57c-2.12.41-4.32.84-6.5,1.21-4.3.72-8.47,1.35-12,1.87l-2.3.34c-4.51.66-9.18,1.36-13.79,1.9-5.57.67-11.62,1.29-19,2-12.95,1.18-26.35,2-39.83,2.44-2.57.08-5.18.11-7.7.14l-4.11.06c-2.16,0-4.33.06-6.5.06h0c-.64,0-.83.17-1,.37l-.1.1-.73.74-16.6,16.23c5.16-1.31,10.72-2.5,17.2-3.69,7.62-1.4,15.51-2.53,23.46-3.38,7.5-.81,15.22-1.53,22.94-2.12,4.46-.34,9-.61,13.36-.87,3.54-.21,7.08-.42,10.61-.66s7.05-.49,10.58-.72c12.69-.85,25.82-1.73,38.65-3.23l4.17-.47c3.24-.37,6.59-.75,9.87-1.19,3.75-.51,7.57-1.12,11.26-1.71l2.81-.45c2.93-.47,6-1,8.93-1.54,5.16-1,9.74-2,14-2.93,5.32-1.21,10.53-2.41,15.69-3.77,11.08-2.93,22.23-6.43,34.08-10.72,1-.36,1.91-.75,2.86-1.14l1.45-.59a1.5,1.5,0,0,1,1.8,2.23,4.22,4.22,0,0,1-2.07,1.75l-.38.2a233.23,233.23,0,0,1-25.94,12.21c-11.3,4.6-22.92,8.69-34.53,12.16-6,1.8-13.2,3.91-20.52,5.9-4.2,1.13-8.5,2.14-12.65,3.11l-3.14.74c-4.55,1.06-8.65,2-12.85,2.85-5.18,1-10.69,2.06-16.37,3-5.44.93-11.29,1.92-17.26,2.76s-11.63,1.54-17.18,2.09c-12.87,1.29-24.56,2-35.74,2.28-3.68.08-8,.14-12.38.05-5-.11-11-.27-17.07-.64-5.47-.34-11-.87-16.36-1.38l-.65-.07c-2.12-.2-4.25-.48-6.31-.76l-1.74-.23q-10.49,9.57-20.84,19c5.17-1.38,10.69-2.58,16.76-3.64,6.74-1.17,13.84-2,21.1-2.62,10.71-.83,19.67-1.21,28.2-1.22h7.59c3.15,0,6.3,0,9.44,0l8.77,0c4,0,8,.07,11.95.06h2.38c5.27,0,10.71,0,16.05-.15,7.23-.21,14.8-.53,22.51-1,7.53-.42,15.05-1.14,22.34-2.15,1.15-.16,2.3-.3,3.46-.45,2.06-.25,4.19-.52,6.25-.87,5.24-.91,10.55-1.94,15.68-2.94l1-.2c6.73-1.3,13.27-3,18.23-4.41a319.18,319.18,0,0,0,31.14-10.37c7.35-2.87,13.35-5.44,18.88-8.08a.94.94,0,0,1,.22-.12,1.49,1.49,0,0,1,2.14,1.35,1.63,1.63,0,0,1-.18.75,3.81,3.81,0,0,1-1.9,1.93l-.35.21a229.23,229.23,0,0,1-30.91,17,342.23,342.23,0,0,1-41.54,15.85c-7.66,2.4-14.07,4.23-20.19,5.75l-2.79.7c-3.53.88-7.17,1.79-10.77,2.62-3,.7-6.11,1.3-9.09,1.89l-1.2.24c-3.21.63-5.91,1.14-8.5,1.6-3.29.58-7.19,1.26-11.15,1.87-3.47.53-6.95,1-9.6,1.3l-3.06.38c-4,.48-8,1-12.07,1.36-12.1,1.14-22.81,1.71-32.72,1.77h-.67c-5.84,0-11.89.08-17.84-.05-6.45-.14-13.31-.51-21-1.13-8.73-.71-16.43-1.58-23.54-2.65-5-.75-10.21-1.64-17-2.88a1.81,1.81,0,0,0-1.86.52c-2.12,1.91-4.33,3.8-6.46,5.62l-1,.86-3.93,3.35-1.56,1.33c4-.48,8-.84,12-1.07a172.36,172.36,0,0,1,20.07,0A244.46,244.46,0,0,1,192,766.5c10.19,1.66,20.45,3.78,30.37,5.82l.51.11c15.66,3.23,33.89,6.84,52.22,8.85,8,.89,15.28,1.47,22.38,1.78,4.61.21,9.42.36,14.29.31h.81c5.44,0,11,0,16.55-.25a348.7,348.7,0,0,0,35.4-3.22,16.45,16.45,0,0,1,1.8-.16c.29,0,.58,0,.87-.06a1.51,1.51,0,0,1,1.6,1.28,1.48,1.48,0,0,1-1.16,1.68c-5.7,1.25-11.39,2.37-16.9,3.44l-3.87.73-2.23.41c-1.61.29-3.22.59-4.83.85-1.78.29-3.57.56-5.35.83l-1.56.24-4.31.66c-3.18.5-6.46,1-9.72,1.44-4.33.56-8.89,1.06-13.92,1.52-7.54.69-14.17,1.23-20.29,1.66-8,.57-15.45.82-22.68.77-1.29,0-2.59,0-3.89,0-2.63,0-5.35,0-8-.09-5-.16-10-.46-14.88-.74l-.32,0c-7-.4-14.24-1.13-23-2.28-12.38-1.62-25.16-3.92-39.07-7-4.86-1.08-9.72-2.19-14.58-3.3-6-1.36-12.15-2.77-18.23-4.11-3.55-.78-7.2-1.46-10.73-2.12l-4.74-.89a1.64,1.64,0,0,0-1.61.3q-6.56,5.33-13.15,10.6l-4.27,3.43,2.36-.1,2.41-.1a98.83,98.83,0,0,1,13.1.47A164,164,0,0,1,145,792.77c8.62,2,16.89,4.36,26,7l1.19.35c9.14,2.67,18.59,5.44,28,7.76a279.14,279.14,0,0,0,29,5.71,230.26,230.26,0,0,0,23.51,2.18l1.92.07c3.71.15,7.54.3,11.3.16a2,2,0,0,1,1.06.27l.36.15a1.5,1.5,0,0,1-.37,2.88l-1.86.25-2.51.34c-1.18.15-2.37.32-3.55.49-2.64.37-5.38.75-8.1,1-8.71.79-19,1.59-29.65,1.53h-1c-4.25,0-8.65,0-13-.2s-9.15-.44-15-.94a310.68,310.68,0,0,1-30.81-4.22,416.82,416.82,0,0,1-43.34-10.74l-7.85-2.36q-8.16-2.44-16.32-4.87l-.91-.28-.72-.21c-.16.1-.46.34-.76.57l-.7.54c-13.42,10.13-26,19.11-38.47,27.47-11.13,7.46-21.55,14-31.86,20l-.32.2a4.38,4.38,0,0,1-2.57.92ZM4.33,825.41a16,16,0,0,1,4.22,4.27c1.08,1.56,2.13,3.25,3.22,5.15.64,1.12,1.25,2.26,1.86,3.41.48.91,1,1.83,1.48,2.73.64,1.14,1.34,2.28,2.09,3.37a14.09,14.09,0,0,0,1.08,1.34l.38-.24.44-.28c10.27-6,20.64-12.54,31.72-20,12.42-8.33,25-17.28,38.33-27.38l.68-.51c1.74-1.36,2.25-1.46,4.21-.85l.86.26c5.45,1.61,10.89,3.25,16.33,4.88l7.85,2.35a411.5,411.5,0,0,0,43,10.67c10.76,2,20.74,3.36,30.52,4.18,5.81.49,10.53.79,14.86.93s8.67.18,12.9.2h1c9.64,0,19.09-.62,27.28-1.33-6.19-.36-12.71-1-19.83-2a279.7,279.7,0,0,1-29.31-5.77c-9.46-2.34-18.94-5.11-28.11-7.79l-1.19-.35c-9.1-2.66-17.32-5-25.86-7a158.05,158.05,0,0,0-21.23-3.51,94.66,94.66,0,0,0-12.71-.46l-2.4.1c-1.67.07-3.33.14-5,.19h-.12l-1.15,0a1.51,1.51,0,0,1-1.4-1.22,2.17,2.17,0,0,1,1-2.31l6.57-5.28q6.58-5.28,13.13-10.59a4.61,4.61,0,0,1,4.08-.92l4.72.89c3.55.67,7.22,1.35,10.82,2.14,6.09,1.35,12.28,2.75,18.26,4.12,4.85,1.1,9.7,2.21,14.56,3.29,13.82,3.1,26.52,5.39,38.81,7,8.64,1.14,15.87,1.85,22.74,2.26h.33c4.85.29,9.86.58,14.8.74,2.64.09,5.33.09,7.94.09,1.3,0,2.61,0,3.91,0,7.15,0,14.49-.2,22.44-.77,6.1-.42,12.72-1,20.23-1.65,5-.46,9.52-.95,13.81-1.51,3.22-.42,6.49-.93,9.65-1.42l4.32-.67,1.56-.23.72-.11c-1.9.11-3.73.2-5.45.28-5.58.27-11.23.27-16.7.26h-.81c-4.92,0-9.77-.1-14.42-.31-7.17-.32-14.56-.9-22.58-1.79-18.46-2-36.77-5.66-52.49-8.91l-.52-.1c-9.89-2-20.11-4.15-30.24-5.8a241.32,241.32,0,0,0-24.49-2.81,170.75,170.75,0,0,0-19.72,0c-5.16.3-10.41.82-15.59,1.54a1.4,1.4,0,0,1-.54,0l-.21,0a1.49,1.49,0,0,1-.92-.65,2,2,0,0,1,.64-2.87l4.11-3.49,3.92-3.35,1-.86c2.12-1.81,4.31-3.68,6.39-5.57a4.78,4.78,0,0,1,4.42-1.24c6.79,1.24,12,2.12,16.94,2.86,7,1.07,14.67,1.93,23.33,2.63,7.61.61,14.42,1,20.81,1.12,5.91.13,11.93.09,17.75.05h.67c9.83-.05,20.45-.63,32.46-1.75,4-.38,8.05-.88,12-1.36l3.06-.38c2.79-.34,6.1-.76,9.51-1.29,3.93-.6,7.81-1.27,11.09-1.86,2.57-.45,5.25-1,8.44-1.59l1.2-.23c3-.58,6-1.18,9-1.87,3.58-.83,7.21-1.73,10.72-2.61l2.8-.7c6.05-1.51,12.42-3.32,20-5.71a339.44,339.44,0,0,0,41.17-15.7c5.89-2.71,11.37-5.47,16.53-8.32l-2.07.82a326.39,326.39,0,0,1-31.45,10.46c-5,1.39-11.62,3.14-18.45,4.47l-1,.2c-5.15,1-10.48,2-15.75,2.94-2.13.37-4.3.64-6.39.9l-3.42.44c-7.37,1-15,1.76-22.58,2.18s-15.34.76-22.6,1c-5.37.14-10.84.15-16.13.15h-2.37c-4,0-8,0-12-.06l-8.75,0c-3.14,0-6.29,0-9.43,0h-7.59c-8.46,0-17.34.39-28,1.22-7.16.55-14.17,1.42-20.82,2.58a181.68,181.68,0,0,0-19.82,4.51,13,13,0,0,1-1.39.31l-.53.1a1.51,1.51,0,0,1-1.33-.37,1.52,1.52,0,0,1-.46-1.3l.07-.5a1.44,1.44,0,0,1,.47-.9c8.33-7.63,16.65-15.24,25.05-22.91a1.53,1.53,0,0,1,1.2-.38l2.45.33c2,.27,4.13.55,6.2.75l.65.06c5.33.51,10.83,1,16.25,1.38,6,.36,11.95.52,16.95.63,4.3.09,8.61,0,12.26-.05,11.1-.24,22.71-1,35.51-2.26,5.5-.55,11.08-1.23,17.05-2.08s11.76-1.82,17.17-2.75c5.65-1,11.13-2,16.29-3,4.16-.83,8.24-1.77,12.76-2.83l3.13-.74c4.13-1,8.41-2,12.55-3.09,7.29-2,14.43-4.08,20.45-5.88,11.52-3.43,23.05-7.49,34.26-12.06,3.09-1.26,6-2.49,8.77-3.72-6.31,2-12.5,3.83-18.67,5.46-5.22,1.37-10.45,2.58-15.79,3.79-4.3,1-8.91,1.94-14.1,3-3,.58-6.07,1.07-9,1.55l-2.81.45c-3.7.6-7.54,1.21-11.33,1.72-3.31.45-6.68.83-9.93,1.2l-4.16.47c-12.91,1.51-26.07,2.39-38.8,3.24-3.52.23-7.05.47-10.57.72s-7.09.46-10.64.67c-4.36.25-8.88.52-13.31.86-7.69.59-15.37,1.3-22.85,2.11-7.88.84-15.7,2-23.23,3.35-7.92,1.45-14.43,2.9-20.49,4.57a8.66,8.66,0,0,1-.88.17l-.48.08a1.5,1.5,0,0,1-1.63-2.1l.38-.82a1.28,1.28,0,0,1,.3-.43c.52-.53,1-1,1.58-1.54l5.14-5,13.49-13.22a4.07,4.07,0,0,1,3.26-1.4h.45c2,0,4,0,6-.06l4.11-.06c2.51,0,5.1-.06,7.64-.14,13.43-.43,26.77-1.25,39.65-2.43,7.39-.67,13.41-1.29,18.95-2,4.57-.54,9.22-1.23,13.71-1.89l2.3-.34c3.51-.52,7.66-1.14,11.93-1.86,2.14-.36,4.32-.78,6.43-1.19l3-.58,2-.37,6.47-1.24c2.21-.45,4.38-.88,6.58-1.38,3.72-.83,6.75-1.54,9.55-2.23,4.29-1.05,8.77-2.17,13.3-3.34,6.61-1.7,13.67-3.74,21.58-6.24a450.87,450.87,0,0,0,56.49-22c11.36-5.35,22.54-11.24,33.41-17.58A444,444,0,0,1,429.06,644c-8.24,2.46-15.6,4.41-22.48,6l-3.65.84c-3.93.9-8,1.83-12,2.64-5.89,1.18-11.9,2.21-17,3.07-4.64.77-9.36,1.49-13.92,2.19l-4.14.64c-2.29.34-4.59.64-6.74.92l-5.67.72-5.13.65q-6.87.87-13.74,1.78l-5.19.68-7.71,1-4.17.57c-3.49.48-7.1,1-10.64,1.52-4.66.73-9.6,1.58-15.12,2.59-4.05.75-9.38,1.76-14.65,2.89-8,1.74-16,3.75-23.76,6-8.07,2.33-15.25,4.63-22,7a10.94,10.94,0,0,1-1.06.33l-.45.12a1.51,1.51,0,0,1-1.85-1,2.39,2.39,0,0,1,.84-2.63l.09-.08,4.25-4.39q3-3.11,6-6.23c2.55-2.67,5.08-5.34,7.62-8l2.83-3,.36-.38c.19-.19.39-.39.57-.6a3.33,3.33,0,0,1,2.82-1.22c2.65.1,5.31.15,8,.2h.54c2.17,0,4.42.09,6.61.08a420.1,420.1,0,0,0,43.28-2.44c6-.63,12-1.51,17.84-2.36,5.34-.78,10.57-1.64,15.54-2.54,4.8-.88,9.71-1.89,14.61-3,6-1.35,12.06-2.78,17.92-4.25,10.85-2.71,22-6,34.08-10.11a488.59,488.59,0,0,0,59.34-24.38c8.29-4.09,15.52-8,22.12-11.83a385.73,385.73,0,0,1-39.37,14c-9.61,2.86-18.46,5.19-27.06,7.13l-2.64.59c-5.24,1.18-10.65,2.4-16,3.51-4.41.91-8.91,1.73-13.25,2.52l-2.51.45c-5.16.94-9.86,1.78-14.36,2.55-2.46.42-4.93.8-7.41,1.19l-3.95.62-6.18,1-6.18,1-4.63.72c-2.38.36-4.75.72-7.13,1.1q-4.93.78-9.87,1.61l-3.73.62c-2.83.47-5.76,1-8.62,1.48-3.73.67-8.15,1.48-12.67,2.41s-8.77,1.85-12.58,2.75c-13.5,3.19-24.24,6.68-33.82,11-.42.19-.84.34-1.33.51l-.35.13a1.49,1.49,0,0,1-1.36-.17,1.47,1.47,0,0,1-.65-1.19,3,3,0,0,1,1.05-2.39l.13-.13q2-2.17,3.94-4.33c1.78-1.94,3.55-3.88,5.3-5.84q4.85-5.39,9.63-10.79l3.75-4.23a3.27,3.27,0,0,1,2.79-1.21c7.93.31,15.79,0,22.43-.31,5.49-.27,10.94-.78,16.5-1.33,4.12-.4,8.56-.93,13.59-1.63,3.87-.54,7.8-1.21,11.61-1.86l.49-.08c2.91-.5,5.74-1,8.42-1.59l2.25-.46c3.54-.72,7.19-1.46,10.74-2.32,5.45-1.32,11.18-2.79,17-4.39,12.23-3.34,24.86-7.4,37.54-12.06a505.47,505.47,0,0,0,66.46-30c6.89-3.75,13.28-7.43,19.27-11.1-9,4-18.46,7.85-28.16,11.34-13.17,4.74-26.91,9-42,13.12-10.65,2.89-20.49,5.38-30.07,7.59q-11.89,2.75-23.8,5.46l-11.25,2.54c-6.93,1.56-14.1,3.17-21.14,4.82-11.16,2.62-25.84,6.2-40.33,10.69-8.23,2.56-15.65,5.18-22.69,8l-.25.1a3.77,3.77,0,0,1-2.5.37,1.49,1.49,0,0,1-.92-2.31c.09-.14.18-.27.25-.39.19-.29.37-.55.56-.79l4.47-5.28q8.24-9.76,16.44-19.52a4.65,4.65,0,0,1,3.48-1.78l1.26-.08c4.14-.26,8.42-.53,12.58-1,5.9-.66,11.89-1.52,17.68-2.34l.38-.06c3.36-.47,7-1.06,11.08-1.8,3.52-.63,7.23-1.36,12-2.37,4.48-.92,8.22-1.72,12-2.62,6.38-1.5,12.13-2.87,17.88-4.39,9-2.38,17.86-4.93,26.32-7.59a501.67,501.67,0,0,0,77.89-31.28c5.44-2.75,10.81-5.65,16.07-8.65-7.35,3-14.66,5.79-21.86,8.25-11.08,3.79-21.28,6.81-31.19,9.23-7.89,1.92-14,3.34-19.81,4.59-4.21.91-8.51,1.7-12.67,2.46l-2.88.52c-4.63.86-9.47,1.72-14.37,2.55-2.1.36-4.2.69-6.3,1l-4.85.78Q386,560,378.27,561.32l-.28,0c-2.68.47-5.46.94-8.16,1.48l-2.64.53c-4.6.91-9.36,1.85-14,2.91a201,201,0,0,0-22.28,6.44c-5,1.78-10,3.84-14.85,6.11l-.21.11a2.77,2.77,0,0,1-2.48.3,1.51,1.51,0,0,1-.93-1.59l.05-.42a1.57,1.57,0,0,1,.31-.74q9.21-11.84,18.49-23.72l5.81-7.45a1.47,1.47,0,0,1,.93-.56,10.54,10.54,0,0,1,3.33.14c.4.06.81.12,1.21.16,4.12.39,8.37.59,13,.61a154.83,154.83,0,0,0,17.45-1c4.37-.45,9-1.13,14.5-2.13s11.47-2.27,17.75-3.83c8.3-2.06,17-4.61,25.86-7.56a568.08,568.08,0,0,0,57-22.72c16.31-7.46,33.16-15.95,50.08-25.23,5.64-3.09,11-6.08,16-9a725.61,725.61,0,0,1-69.92,27.14c-17,5.64-34.14,10.79-50.92,15.32-8.17,2.21-16.49,4.4-24.54,6.52L394.46,527l-5.29,1.4c-9.49,2.5-19.31,5.08-28.84,8-4.39,1.36-10.15,3.22-15.7,5.56a9.93,9.93,0,0,1-1.2.4l-.54.15a1.5,1.5,0,0,1-1.41-.28,1.47,1.47,0,0,1-.52-1.33,4.67,4.67,0,0,1,1.19-2.51l.23-.3,7-9.58,4.13-5.63c1.37-1.87,2.6-3.57,3.81-5.31a4,4,0,0,1,3.08-1.81l1-.11c4.87-.51,9.9-1,14.81-1.73,5.22-.73,10.44-1.67,15.31-2.58,5.17-.95,9.36-1.82,13.18-2.73,7.09-1.67,13.47-3.2,19.84-5,30.45-8.42,61-20.12,93.24-35.77a689.27,689.27,0,0,0,63-34.82c12.18-7.59,23.37-15.09,33.83-22.69Q607,415,599.42,419.25c-13.49,7.63-27.23,14.8-40.82,21.3-17.35,8.28-35.52,15.89-54,22.63-14.87,5.41-31,10.65-50.78,16.5L446.07,482c-10.17,3-20.68,6.11-31,9.26A328.89,328.89,0,0,0,377.31,505c-1.83.81-3.68,1.68-5.47,2.51l-3.08,1.44-1.14.51-.95.42a1.51,1.51,0,0,1-1.58-.23,1.49,1.49,0,0,1-.49-1.51l.24-.94a1.57,1.57,0,0,1,.2-.46c.61-.92,1.24-1.83,1.87-2.74L377,489.31a3.7,3.7,0,0,1,2.66-1.74c1.63-.25,3.31-.55,5-.88l3.85-.74c3.48-.66,7.09-1.34,10.59-2.14,7.73-1.78,13.67-3.26,19.24-4.8a398.15,398.15,0,0,0,55.72-20,412.27,412.27,0,0,0,57.85-31.26A458.18,458.18,0,0,0,610.54,363q3.33-3.42,6.67-7a501,501,0,0,1-51.49,39.08,464.07,464.07,0,0,1-53.52,30.3c-15,7.25-31.13,14.1-50.69,21.55q-6.79,2.59-13.61,5.16-10.06,3.8-20.13,7.65c-9.7,3.71-17.62,7.13-24.9,10.76a140.72,140.72,0,0,0-13.27,7.46c-.33.21-.67.4-1,.58l-.45.25a1.5,1.5,0,0,1-1.7-.15,2,2,0,0,1-.36-2.87l1.68-2.57q1.2-1.83,2.39-3.66l.68-1c1.32-2,2.68-4.1,4-6.18a4.43,4.43,0,0,1,3.1-2.11,147.72,147.72,0,0,0,23.95-7,316.06,316.06,0,0,0,36.6-16.61c15.26-8,31.18-17.37,48.65-28.67,20.47-13.26,40.71-27.57,61.88-43.78,8.07-6.17,15.25-11.81,21.82-17.15-18.45,12.41-37.63,24.16-57.28,35.06-13.58,7.54-28.63,15.38-47.36,24.67l-2.83,1.41c-11.48,5.69-23.35,11.58-35,17.44-9,4.55-17,9.08-24.51,13.85a134.63,134.63,0,0,0-19.1,14.41l-.79.65a1.5,1.5,0,0,1-1.44.26,1.87,1.87,0,0,1-1.06-2.83c.49-.82,1-1.59,1.46-2.37.35-.56.7-1.12,1-1.69,2.24-3.61,4.45-7.22,6.66-10.84a5,5,0,0,1,2.53-2.17A334.54,334.54,0,0,0,453,415.92c15.46-8.49,31.22-18.26,48.16-29.87,21.63-14.83,43.64-31.5,67.27-51,19.07-15.7,37.64-32.07,55.2-48.65,4.61-4.35,10.06-9.56,15.76-15.25-12.24,9.81-25.87,20.07-41.71,31.43-21.46,15.39-43.7,30.42-65.2,45L528.94,350C509.31,363.24,489,377,469.43,391c-16.08,11.54-28.86,21.28-40.23,30.67-2,1.65-4,3.33-5.93,5l-3.3,2.81-1.42,1.17-.45.35a1.48,1.48,0,0,1-1.7.13,1.52,1.52,0,0,1-.72-1.55,3.46,3.46,0,0,0,.07-.46,3.13,3.13,0,0,1,.28-1c.24-.45.5-.9.76-1.35l2.88-5q5.08-8.76,10.12-17.55a7,7,0,0,1,3.28-3,356.89,356.89,0,0,0,36.45-19.76,652.49,652.49,0,0,0,56.08-38.72c20-15.25,39.77-31.58,58.76-48.55,19.6-17.51,36.86-34.17,52.77-50.94,1.68-1.78,3.36-3.57,5-5.38a867.11,867.11,0,0,1-74.4,59.07c-15.07,10.72-30.62,21.26-45.67,31.45l-2.54,1.72c-11.75,8-26.37,17.87-39.92,28A325.27,325.27,0,0,0,447.53,385c-1.17,1.14-2.32,2.3-3.47,3.45l-2,2c-.3.31-.62.6-.94.88l-.39.36a1.5,1.5,0,0,1-2,.06,2,2,0,0,1-.53-2.61c.27-.54.53-1,.79-1.51l1.46-2.77q5.56-10.61,11.11-21.23a6.73,6.73,0,0,1,2.34-2.72c12.28-7.8,25.22-16.77,40.72-28.22a861.07,861.07,0,0,0,78.08-65,532.11,532.11,0,0,0,41.51-43.25,303.09,303.09,0,0,0,25.95-34.88l.24-.38c-.73.83-1.45,1.66-2.18,2.48a501.76,501.76,0,0,1-44.64,44.4c-13.44,11.8-28.66,23.89-46.53,37q-7,5.12-14,10.22c-7.26,5.29-14.77,10.76-22.11,16.19a319.55,319.55,0,0,0-27,22.13,191.35,191.35,0,0,0-15.08,15.44c-.22.26-.47.52-.71.77l-.29.3a1.5,1.5,0,0,1-1.83.28,1.93,1.93,0,0,1-.72-2.82q1-2.28,2.12-4.58l1.66-3.6c4.76-10.38,9.3-20.81,13.52-31l.27-.67a3.57,3.57,0,0,1,2.14-2.45l.7-.39A227.79,227.79,0,0,0,517.09,271,446.82,446.82,0,0,0,556,234.8,773.94,773.94,0,0,0,607,176c6.88-8.71,13.16-16.92,19-24.79q-3.45,3.66-7,7.33c-9.85,10.09-20,19.93-30.08,29.25q-12.71,11.7-25.46,23.36-8.53,7.8-17,15.63c-10.46,9.61-22.73,21.1-34.41,33.36-7.64,8-14.09,15.42-19.73,22.62a8,8,0,0,1-.73.81l-.29.3a1.57,1.57,0,0,1-1.12.47,1.47,1.47,0,0,1-1.11-.51,2.16,2.16,0,0,1-.28-2.52c1.59-4.26,3.17-8.49,4.76-12.72q2.26-6,4.52-12.1a5.46,5.46,0,0,1,1.78-2.44c15.09-11.73,29.72-26.32,46.06-45.93A568.21,568.21,0,0,0,595,138.91c6.53-10.72,12.17-20.75,17.16-30.49a368.05,368.05,0,0,1-27.91,39.63C575.66,158.64,566.52,169,557.67,179l-.64.73c-8.48,9.6-18.28,20.81-27.31,32.42a370.61,370.61,0,0,0-24.39,35.31,8.34,8.34,0,0,1-1.75,2.17,1.51,1.51,0,0,1-1.7.17,1.49,1.49,0,0,1-.76-1.52l.12-.88a1.14,1.14,0,0,1,.06-.25q3-9.18,6-18.33a15.53,15.53,0,0,1,.94-2.1,483,483,0,0,0,29-67.18c6.48-18.5,12.33-38,17.4-58,4.4-17.38,8.33-35.27,11.7-53.16,1.74-9.22,3.44-18.59,5.09-27.71L571,21.91c-4.33,12.5-8.81,25.42-13.31,38.11l-3.26,9.17c-7.19,20.23-14.63,41.16-21.44,61.9-8.57,26.12-14.92,47.86-20,68.4-2.68,10.85-5,21.54-6.92,31.78a13.76,13.76,0,0,1-2.34,5.48,1.51,1.51,0,0,1-2.72-1l.05-.85c0-.57.06-1.07.12-1.56a192.43,192.43,0,0,0,1.34-20.11,251.05,251.05,0,0,0-.85-25.48c-.42-4.85-1-9.79-1.52-14.56-.17-1.46-.33-2.92-.49-4.38-.43-3.79-.9-7.54-1.47-12-.32-2.54-.67-5.07-1-7.6l-.55-4-.39-3.27c-.39-3.2-.77-6.41-1.13-9.61-.17-1.48-.35-3-.52-4.45-.5-4.23-1-8.6-1.42-12.91-.45-4.91-.78-9.9-1.09-14.73l-.13-2.1c-.19-3-.32-6.06-.4-9.49-.06-2.64-.08-5.32-.1-7.91l0-4.92c0-1.83,0-3.65,0-5.48,0-2.12.09-4.24.18-6.4,0-1,.07-2.23.12-3.51q-.54,3.06-1.08,6.32c-1.12,6.94-2.06,14.16-2.79,21.46-.6,6-1,12-1.38,17.13-.31,4.68-.57,9.62-.77,15.1-.13,3.47-.16,6.91-.15,11,0,5.7,0,10.84.13,16,.05,2.56.2,5.17.34,7.68.06,1.19.13,2.38.19,3.57,0,.62,0,1.24.08,1.87,0,1.25.09,2.55.2,3.8l.33,3.71c.42,4.81.85,9.78,1.43,14.63.93,7.83,2.12,15.58,3.53,23A283.7,283.7,0,0,0,500,239c.28.9.57,1.8.89,2.69a3.91,3.91,0,0,1,0,2.88l-2.41,5.67q-1.75,4.15-3.52,8.3a1.58,1.58,0,0,1-.49.62l-.32.24a1.5,1.5,0,0,1-2.3-.7l-.23-.62a1.54,1.54,0,0,1-.09-.6,97.83,97.83,0,0,0-.44-16,194.5,194.5,0,0,0-4.26-23.82c-1.62-6.94-3.5-14-5.31-20.72q-1-3.92-2.09-7.83c-3.38-12.85-5.92-22.79-8.25-32.21-1.44-5.82-2.63-11.65-3.78-17.3-.83-4.09-1.61-8.4-2.37-13.18-.81-5.15-1.58-10.39-2.32-15.46l-.49-3.35c0,.85,0,1.75,0,2.69,0,1.68.07,3.36.11,5,0,1.53.07,3.07.1,4.6.15,7.11.66,14.33,1.15,21.32l.11,1.55c.49,7.12,1.23,14.63,2.3,23.63.82,6.84,1.86,13.78,2.86,20.49l.21,1.41c.77,5.1,1.61,10.12,2.5,14.92s1.88,9.75,2.93,14.42c1.25,5.5,2.73,11.89,4.35,18.09A206.27,206.27,0,0,0,489.48,267a4.7,4.7,0,0,1,.07,4.13q-4.23,9.24-8.41,18.47l-3.82,8.43c-.13.29-.3.57-.51.95l-.41.71a1.5,1.5,0,0,1-2.81-.6q0-.37-.06-.63a4.07,4.07,0,0,1,0-1.16,126.89,126.89,0,0,0,.38-28.91c-.45-4.28-1.09-8.62-2-13.28-1.87-10-4.53-20-7.1-29.72l-.65-2.46c-2.11-8-3.92-15.09-5.53-21.68-1.39-5.65-2.72-11.41-4.06-17.61-.65-3-1.2-6-1.74-9l-.5-2.74c-.63-3.37-1.25-6.73-1.85-10.1-.27-1.56-.54-3.21-.78-4.91-.27-1.87-.52-3.74-.78-5.61l-.8-5.92-1-7.39v-.08c-.07-.46-.14-.91-.19-1.37-.87-8.21-1.76-16.88-2.42-25.59,0,.3,0,.61,0,.91,0,2.28-.09,4.55-.13,6.83-.05,2.1-.09,4.19-.13,6.29-.12,6.66.06,13.44.23,20l0,.85c.37,14.06,1.27,29.13,2.83,47.44.65,7.54,1.31,14.28,2,20.59.66,5.9,1.47,11.89,2.24,17.68l.25,1.83c.52,3.9,1.22,9,2,14.18.78,4.91,1.65,9.77,2.54,14.73.69,3.81,1.38,7.54,2.18,11.23,1.51,7,2.78,12.62,4,17.77,1.8,7.42,3.89,14.59,6.21,21.32a4.75,4.75,0,0,1-.25,3.9c-2.47,4.92-4.91,9.85-7.36,14.78l-4,8a5.71,5.71,0,0,1-.51.84l-.37.56a1.5,1.5,0,0,1-2.75-.59c0-.18-.05-.33-.08-.45a3.62,3.62,0,0,1-.06-1,83,83,0,0,0-.14-17.5,158.54,158.54,0,0,0-3-18.25c-1.83-8.57-4.09-17.2-6.27-25.54l-.23-.87c-2.25-8.61-4.65-17.87-7-27.23-1-3.83-1.81-7.75-2.63-11.54l-1.11-5.06c-.86-3.89-1.74-7.91-2.52-11.9-.66-3.35-1.25-6.77-1.83-10.08l-.7-4c-.59-3.4-1.21-6.91-1.76-10.37-.34-2.09-.62-4.22-.89-6.28l-.43-3.18c-.12-.85-.23-1.69-.35-2.54,0,1.85-.05,3.8-.06,5.88s0,4.26.08,7.13c.27,10.73.91,21.66,1.89,32.49.68,7.54,1.27,13.31,1.91,18.74.49,4.2,1.12,8.46,1.74,12.58l.41,2.82c.61,4.09,1.18,7.65,1.75,10.9.88,5,1.71,9.51,2.53,13.69s1.77,8.62,2.72,13c1.55,7.17,3.37,14.5,5.56,22.41,2.62,9.5,5.05,17.23,7.66,24.33a4.61,4.61,0,0,1-.21,4q-4.81,8.91-9.57,17.86l-2.93,5.48-.06.1-.51.8a1.51,1.51,0,0,1-1.27.69h0a1.49,1.49,0,0,1-1.26-.69,3.35,3.35,0,0,1-.43-2.38l0-.2c.12-1.51.26-3,.4-4.53l.27-3a98.77,98.77,0,0,0,.15-11.51,113.36,113.36,0,0,0-1.2-13.92c-.21-1.36-.4-2.71-.6-4.06-.41-2.79-.83-5.67-1.34-8.47-.79-4.33-1.69-8.57-2.8-13.61-.92-4.18-1.92-8.42-2.88-12.51l-.44-1.85-1.44-6q-1-4.06-1.93-8.13-1.18-5.12-2.33-10.24l-.65-2.89c-.68-3-1.38-6.06-2-9.11-.44-2.09-.84-4.18-1.25-6.28l-.34-1.79c-.59-3-1.16-6-1.74-9.06-.28-1.49-.55-3-.79-4.49s-.43-2.75-.64-4.13c-.14-.93-.27-1.85-.42-2.77-.34-2.19-.68-4.37-1-6.56l-.34-2.13c-.1-.74-.2-1.44-.29-2.14-.23-1.59-.46-3.24-.63-4.87-.53-4.93-1-9.87-1.52-14.81l-1.13-11.12c-.07-.71-.13-1.42-.17-2.11-.09-1.59-.18-3.18-.28-4.77-.25-4.15-.5-8.44-.69-12.67-.14-3.15-.19-6.34-.25-9.43,0-1.24,0-2.49-.07-3.74l-.05-2.49c-.05-2.18-.1-4.36-.12-6.55,0-.64,0-1.28,0-1.92,0,.46-.09.92-.13,1.39-.54,5.75-.93,10.42-1.23,14.68-.2,2.91-.33,5.88-.46,8.76l-.11,2.47c-.12,2.84-.27,6.14-.37,9.4s-.15,6.59-.17,10.22c0,5.45,0,10.86,0,15,0,2.66,0,5.5.13,8.37.11,3.19.25,6.38.38,9.57.11,2.69.22,5.37.32,8.06.43,12.06,1.45,24,2.39,34.11.67,7.3,1.56,14.7,2.34,21,.76,6.07,1.62,12.07,2.54,17.83,1.44,9,2.93,17.26,4.53,25.17,1.76,8.68,3.7,17.2,5.76,25.34,2.23,8.76,4.71,17.42,7.38,25.73.06.16.1.33.15.5a5.58,5.58,0,0,0,.18.58,3.33,3.33,0,0,1-.26,3.07c-.27.44-.51.87-.75,1.3l-.57,1-8.26,14.37-1.25,2.17c-.25.44-.53.86-.8,1.28l-.29.45a1.5,1.5,0,0,1-1.74.62,2.17,2.17,0,0,1-1.54-2.41c0-1.57,0-3.06.06-4.55,0-2.06.06-4.12.06-6.18a135.51,135.51,0,0,0-1.11-16c-.42-3.51-.91-7-1.47-10.29-.72-4.31-1.45-8.18-2.22-11.83-1.08-5.08-2.28-10.19-3.41-15-.91-3.83-1.86-7.65-2.81-11.47L400.82,325q-1.24-5-2.48-10.06c-1.22-5-2.32-9.54-3.38-14.18-.55-2.45-1.07-5-1.56-7.36l-1.1-5.28c-.42-2-.84-4.05-1.22-6.08s-.75-4.17-1.11-6.26c-.19-1.08-.37-2.17-.57-3.25l-.29-1.7c-.28-1.6-.56-3.19-.82-4.78q-.53-3.3-1-6.59v-.12c-.28-1.86-.56-3.7-.78-5.53-.17-1.39-.33-2.78-.5-4.17,0,1,0,2-.05,3-.06,4.79,0,9.6.14,14.52.12,5.89.33,11.74.49,16.18.1,2.61.29,5.25.48,7.73l.42,5.53c.39,5.22.79,10.63,1.3,15.92.65,6.84,1.41,13.54,2.27,19.93,1.14,8.65,2.18,15.66,3.29,22.07,1.4,8.12,3,16.17,4.61,23.91a286.76,286.76,0,0,0,9.42,34.42c.61,1.75,1.25,3.48,1.91,5.27.37,1,.74,2,1.11,3a1.47,1.47,0,0,1-.07,1.18c-.77,1.53-1.71,3.06-2.62,4.54-.4.64-.79,1.29-1.18,1.94-1.25,2.09-2.52,4.16-3.8,6.23l-.85,1.39c-1.06,1.72-2.15,3.5-3.44,5.49a1.5,1.5,0,0,1-2.74-.59c0-.24-.07-.42-.1-.56a3.11,3.11,0,0,1-.09-.86,112,112,0,0,0-.47-17.82c-.59-5.56-1.3-10.64-2.17-15.54-.2-1.08-.38-2.16-.57-3.24-.36-2.08-.72-4.16-1.11-6.24-.69-3.69-1.42-7.38-2.15-11.06l-.2-1c-.43-2.17-.87-4.33-1.3-6.49-.33-1.59-.65-3.18-1-4.77l-.59-3c-.6-3-1.2-5.93-1.78-8.9q-1.19-6.15-2.33-12.31l-.18-1c-.55-3-1.1-5.94-1.61-8.92-.7-4-1.29-7.58-1.81-11-.68-4.34-1.39-9.06-2.16-14.42-.44-3.05-.85-6-1.18-9-.65-6.11-1.33-12.66-2-20-.82-8.5-1.31-16.93-1.82-26.27-.19-3.49-.26-7-.32-10.44,0-1.39,0-2.78-.08-4.17l0-.85c-.05-1.7-.09-3.44-.12-5.19-.06.5-.11,1-.17,1.52-.64,5.91-1.23,12.17-1.79,19.14-.35,4.22-.55,8.54-.76,12.71l0,1c-.32,6.66-.53,11.77-.68,16.58-.09,3.38-.09,6.84-.09,10.18v4.1c0,4,0,8.21.06,12.31.07,3.33.2,6.72.33,10q.14,3.19.24,6.39c.23,7.33.74,15.07,1.65,25.11.43,4.71,1,9.5,1.52,14.13l.32,2.77c.38,3.25.77,6.23,1.2,9.1.7,4.76,1.45,9.43,2.15,13.76.52,3.17,1,5.79,1.5,8.22l.32,1.63c1,4.87,2,9.9,3.12,14.8,1.76,7.65,3.81,15.28,6.09,22.67.81,2.64,1.66,5.27,2.53,8l1.08,3.34a1.48,1.48,0,0,1-.15,1.23c-1.82,3-3.83,6.07-5.78,9l-1.61,2.45c-1.68,2.57-3.38,5.12-5.07,7.67l-2.38,3.59a1.5,1.5,0,0,1-1.74.59A2.09,2.09,0,0,1,372,477.5a91.86,91.86,0,0,0,1.73-10.81,115.62,115.62,0,0,0,.56-12.15,122.15,122.15,0,0,0-1.41-17.35c-.6-4.05-1.37-8.31-2.36-13-2.29-10.87-5.31-21.77-8.23-32.32q-.86-3-1.69-6.11c-3.24-11.81-5.79-21.39-8-30.15-1.45-5.66-2.72-11.45-4-17.06l-.61-2.77c-.89-4-2-9.33-3-14.71-.88-4.74-1.64-9.57-2.37-14.25l-.12-.75c-.55-3.49-1.06-7-1.57-10.49l-.69-4.78c-.21-2-.43-3.93-.65-5.88-.14-1.25-.28-2.52-.42-3.79,0,2.57,0,5.14,0,7.66v.63c0,4.33.11,8.35.23,12.27.05,1.64.14,3.31.23,4.93.08,1.36.16,2.72.21,4.09.33,8.25.88,16.63,1.62,24.91s1.62,16.81,2.39,24.28c.4,4,.88,8.15,1.42,12.41.84,6.74,1.77,13.86,2.75,21.15.57,4.22,1.26,9.21,2,14.19.83,5.26,1.74,10.6,2.63,15.77l.13.77c.72,4.24,1.48,8.64,2.3,12.94.9,4.75,1.9,9.68,3,14.64.95,4.49,2,9,3,13.45l.17.74c1.65,7.23,3.63,14.72,6.07,22.91l.25,1a1.51,1.51,0,0,1-.21,1.22c-4,6-8.18,11.84-11.72,16.8l-.11.13-.64.71a1.49,1.49,0,0,1-1.56.42,2.05,2.05,0,0,1-1.45-2.46,92.57,92.57,0,0,0,.1-23.21c-.46-4.41-1.14-9.17-2.07-14.53-1.25-7.21-2.82-14.67-4.79-22.78-2.05-8.49-4.19-16.71-6-23.63q-2.24-8.46-4.53-16.89-1.3-4.81-2.6-9.64l-.51-1.89c-1.45-5.42-3-11-4.38-16.55-1.63-6.32-3.17-12.61-4.46-17.93s-2.38-10-3.41-14.59c-.54-2.41-1-4.85-1.49-7.22l-.69-3.45-.46-2.23c-.42-2-.86-4.15-1.25-6.24-.44-2.43-.85-4.87-1.25-7.3l-.8-4.78,0-.09q0,4.86,0,9.72v3.32l.22,5c.24,5.28.47,10.56.73,15.85.42,9.06,1.3,18.27,2.14,27.17l.25,2.63c.32,3.45.77,7,1.2,10.35.15,1.15.3,2.31.44,3.47.41,3.25.76,6,1.15,8.71.8,5.5,1.52,10.46,2.31,15.41.64,4,1.5,9.29,2.47,14.52.83,4.53,1.79,9.31,3,15.05,1.09,5.17,2.08,9.83,3.24,14.57,1.57,6.39,3.45,13.93,5.5,21.42,3.3,12,7.14,23.93,11.41,35.39.1.24.18.51.27.79s.09.33.15.5a1.55,1.55,0,0,1,0,1.1,16.36,16.36,0,0,1-2,3.08c-.29.38-.59.77-.86,1.16-.7,1-1.42,1.94-2.13,2.9l-.82,1.1c-1,1.37-2,2.75-3,4.13l-4,5.29c-.66.87-1.31,1.74-2,2.6L332,540c-.71.95-1.45,1.94-2.31,2.9a1.51,1.51,0,0,1-1.2.49,1.45,1.45,0,0,1-1.14-.63,2.93,2.93,0,0,1-.39-2.8,1.33,1.33,0,0,0,.05-.19,91.29,91.29,0,0,0,1.78-10.34,94.37,94.37,0,0,0,.36-17.35,133.74,133.74,0,0,0-1.67-14.51c-1-5.55-2.14-10.91-3.41-15.93-2.6-10.27-5.66-20.6-8.62-30.58-.68-2.28-1.35-4.55-2-6.83l-.16-.56c-2.78-9.44-5.64-19.2-8-28.93-1.59-6.49-3.13-12.84-4.56-19.17-.68-3-1.24-6.12-1.78-9.1l-.48-2.63c-.26-1.43-.54-2.94-.82-4.49,0,.56,0,1.11-.05,1.67l0,.76c0,1.48-.08,3-.08,4.51,0,2.49.05,5,.1,7.43v.76q.13,6.87.29,13.75c0,.78.07,1.57.12,2.37.1,1.68.2,3.34.29,5,.21,3.73.43,7.6.72,11.39.67,8.67,1.24,15.29,1.85,21.44.58,5.85,1.35,11.63,2.08,17.06.5,3.81,1.11,7.68,1.7,11.42l.33,2.09c.56,3.53,1.14,7.19,1.77,10.76s1.35,7.45,2.13,11.23c.92,4.45,2,9,2.85,13a307.55,307.55,0,0,0,10.12,35.3l0,.1c.77,2.2.8,2.79-.65,4.59l-.2.24Q312.67,564.6,304.31,575a13.7,13.7,0,0,1-1,1.08l-.6.61a1.5,1.5,0,0,1-2.58-1.13q0-.37,0-.63a5.39,5.39,0,0,1,.1-1.07,70.72,70.72,0,0,0,1.94-10.69,108.64,108.64,0,0,0,.55-11.72,159.37,159.37,0,0,0-1.08-18.06c-.68-5.83-1.51-11.57-2.24-16.42-.68-4.5-1.5-9.31-2.49-14.72-.71-3.89-1.51-7.84-2.28-11.66l-.73-3.61c-.94-4.69-1.88-9.38-2.86-14.07q-.72-3.48-1.47-7l-1.41-6.67c-.48-2.3-.95-4.61-1.41-6.91l-1.52-7.42c-.54-2.66-1.09-5.32-1.61-8q-.57-2.9-1.09-5.79l-.79-4.23c-.52-2.78-1-5.56-1.56-8.35l-.08-.44c-.26-1.41-.53-2.82-.75-4.24q-.93-5.88-1.82-11.76-.51-3.31-1-6.63l-.51-3.54c-1-7.65-1.77-15.74-2.39-25.23-.06.73-.11,1.45-.16,2.18-.25,3.68-.4,7.44-.55,11.08l-.14,3.42c-.19,4.4-.39,8.95-.52,13.49-.06,2.33-.08,4.71-.09,7,0,1.29,0,2.57,0,3.85s-.05,2.41-.08,3.62,0,2.51-.07,3.76c0,1.77,0,3.54,0,5.3,0,1.6,0,3.19,0,4.77,0,1.08,0,2.16,0,3.23l.05,4.87c0,2,.05,4,.06,6,0,.59,0,1.2.05,1.81l.18,5.23c.11,3.38.23,6.76.38,10.13l.1,2.36c.22,5.07.45,10.31.82,15.44.66,9.41,1.41,18.83,2.24,28,.32,3.65.79,7.35,1.25,10.93.15,1.16.3,2.32.44,3.48.25,2.06.53,4.11.81,6.15l.27,2c.89,6.61,2.08,13.81,3.62,22,1.77,9.29,3.63,17.5,5.69,25.09.87,3.2,1.85,6.45,2.79,9.58.44,1.46.87,2.91,1.3,4.36l.54,1.84a1.52,1.52,0,0,1-.2,1.26q-.11.15-.21.33a9.36,9.36,0,0,1-.67,1c-8.1,9.53-16.64,19.24-25.41,28.85a5.71,5.71,0,0,1-.8.72l-.23.19a1.53,1.53,0,0,1-1.15.33,1.46,1.46,0,0,1-1-.61,2.51,2.51,0,0,1-.17-2.72.61.61,0,0,0,.05-.12A117.06,117.06,0,0,0,268,596.05a167.34,167.34,0,0,0,1.75-18.41,285.59,285.59,0,0,0-1.21-38.14c-.65-7.53-1.42-15.47-2.38-24.28-.49-4.62-1.06-9.32-1.61-13.86-.37-3.06-.74-6.11-1.09-9.17s-.65-5.86-1-8.8c-.3-2.78-.59-5.56-.91-8.34-1.69-14.72-2.67-29.2-3.33-40.17-.26-4.25-.37-8.57-.48-12.76,0-1.7-.09-3.41-.14-5.11-.07-2.61-.14-5.69-.15-8.88,0-1.86,0-3.75.08-5.57l.09-3.41c0-1.06.05-2.11.09-3.17l.08-1.85c0-.8.06-1.59.1-2.38-3.26,15.38-5.89,31.28-7.82,47.31-1,8.33-1.83,16.75-2.48,25-.43,5.7-.72,11.32-1,16.53-.29,6.09-.49,11.71-.63,17.19-.06,2.56-.06,5.17-.05,7.69,0,1.74,0,3.47,0,5.21-.08,8.18.12,16.89.66,28.22s1.41,23.21,2.68,35.94c.55,5.51,1.24,11.45,2.18,18.71.72,5.46,1.55,11.23,2.55,17.62.54,3.45,1.16,7,1.75,10.36.27,1.53.54,3.06.8,4.59l.2,1.22a3,3,0,0,1-.83,2.77l-.82.9-19.26,20c-.29.3-.61.59-1,.92l-.62.55a1.5,1.5,0,0,1-2.51-1q0-.19,0-.33a2.5,2.5,0,0,1,0-1,.88.88,0,0,1,0-.15l.36-1a102.58,102.58,0,0,0,6.35-25.66,171.58,171.58,0,0,0,1.25-17.64c.16-7,.1-13.31-.19-19.17-.44-8.63-.9-17.55-1.44-26.42-.29-4.76-.61-9.52-.92-14.29-.4-6.05-.82-12.32-1.17-18.49-.4-7-.73-14.76-1-23.62-.14-4.21-.14-8.49-.15-12.64,0-1.27,0-2.54,0-3.81,0-4.57,0-8.41,0-12.33,0-2.4.14-4.84.24-7.19,0-.89.08-1.79.11-2.68l.12-3c.1-2.78.21-5.65.38-8.47.28-4.71.56-8.56.87-12.1.43-4.63.95-9.64,1.58-15.32q.48-4.39,1.09-8.92c-3.2,11.92-6.09,25-8.81,39.83-2.77,15.09-5,30.48-6.73,45.73-.95,8.59-1.71,17.32-2.39,25.47-.53,6.25-.9,12.39-1.29,19.2-.21,3.71-.32,7.49-.42,11.16l-.05,1.48c-.14,4.84-.3,9.85-.36,14.77,0,3.74-.07,8.17,0,12.66l0,1.24c.17,7.79.35,15.85.7,23.75.32,6.92.87,13.85,1.37,19.8s1.15,12.07,1.77,17.72c.25,2.24.57,4.53.88,6.73.16,1.14.33,2.28.48,3.41l.08,1.06a1.47,1.47,0,0,1-.29,1c-1.4,1.89-16.43,16.32-18.69,18a1.5,1.5,0,0,1-2-.27,2.32,2.32,0,0,1-.19-2.62l.06-.13a95.94,95.94,0,0,0,4.05-14.58A145.77,145.77,0,0,0,210,643.5c.38-6,.62-11,.75-15.72.11-4.42.06-8.88,0-13.07-.08-6-.21-12.38-.41-20.09-.07-2.3-.18-4.65-.29-6.93-.05-1.17-.11-2.33-.16-3.5,0-.64-.05-1.29-.07-1.93s-.06-1.58-.1-2.36q-.45-11.5-.94-23c0-.45,0-.92-.07-1.38l0-.64-.68-20.64c-.1-3.13-.21-6.38-.27-9.57,0-2.8-.07-5.6-.08-8.41V514c0-2.53-.06-5.07-.06-7.6,0-2.75,0-5.48.08-8.23q0-2.65.09-5.34l.07-3.19c.06-3.39.13-6.9.29-10.36.25-5.5.61-11.08,1-16.48l.07-1.14c.9-13.86,2.39-27.67,4.46-41.07.15-1,.32-2,.48-3.06-3.07,10.15-5.86,21.13-8.65,34-3.6,16.62-6.64,33.89-9.3,52.8-1.89,13.51-3.35,25.74-4.45,37.4-.77,8.18-1.48,17-2.22,27.76-.47,6.74-.86,14.1-1.19,22.49-.32,7.4-.46,14.83-.56,20.47-.08,4.81-.07,9.72-.06,14.46v1.52c0,9.85.37,20,1,31.09.47,7.72,1.15,15.29,2,24.28.17,1.83.42,3.68.66,5.48l.26,2a3.17,3.17,0,0,1-1.09,3l-5.63,5-5.12,4.53a1.44,1.44,0,0,1-.54.3l-.73.24a1.51,1.51,0,0,1-1.91-1.79l.25-1c0-.06,0-.12,0-.17a105.41,105.41,0,0,0,6-30.46c.32-5.07.43-10.47.33-16.49-.17-11.1-1.11-22.36-2-33.26l-.73-8.81c-.28-3.28-.55-6.56-.83-9.84q-.3-3.51-.62-7c-.41-4.67-.85-9.5-1.18-14.28-.47-6.61-.87-13.73-1.22-21.76-.21-4.62-.3-9.4-.29-14.63s.17-10.66.32-15.82v-.27c.11-3.69.22-7.5.49-11.26.35-4.75.81-9.58,1.26-14.19-2,7.72-3.89,15.92-5.6,24.76-2.5,12.94-4.49,26.29-6.09,40.84-1,8.71-1.75,17.7-2.34,26.7-.41,6.07-.66,12.23-.88,18-.23,6-.4,12.22-.51,18.64-.07,4.63,0,9.32,0,13.29.09,5.87.2,12.83.41,19.88.1,3.57.32,7.21.54,10.73l.15,2.58c.33,5.28.66,10.75,1.09,16.1.31,4,.71,8,1.09,11.87.17,1.69.34,3.39.5,5.08,0,.44.07.87.1,1.31l.06.79a1.52,1.52,0,0,1-.35,1.08,22.09,22.09,0,0,1-3.05,2.8c-.42.34-.85.67-1.25,1-1,.84-2,1.66-3,2.47l-2.57,2.12c-1,.81-1.93,1.61-2.92,2.38-.43.34-.85.7-1.27,1.06a21,21,0,0,1-3.23,2.39,1.5,1.5,0,0,1-1.91-.37,2.21,2.21,0,0,1-.22-2.5c4.58-11,7.63-23.35,9.36-37.76a213.94,213.94,0,0,0,1.58-22.75c.08-5.42.09-10.92.08-15.58,0-6.49-.33-13.1-.66-19.49-.07-1.48-.15-2.95-.22-4.43-.46-9.5-1.19-19.16-1.91-28.5-.39-5.14-.8-10.46-1.16-15.7l-.22-3.27c-.28-4.17-.57-8.48-.81-12.73-.28-4.8-.48-9.11-.61-13.16-.18-5.77-.28-10.47-.3-14.8,0-4,.11-7.92.22-11.74.08-2.72.17-5.51.31-8.33-1.24,5.2-2.36,10.7-3.39,16.58-1.89,10.76-3.33,21.59-4.28,32.17-.67,7.34-1.21,13.46-1.67,19.8-.41,6-.68,12-.91,17.57-.31,6.9-.57,13.85-.77,20.68-.1,3.56-.15,7.18-.2,10.68,0,1.5,0,3-.07,4.48q0,3.82-.11,7.65c0,3-.09,6-.13,9,0,2.33,0,4.67-.05,7,0,1.57,0,3.13,0,4.69,0,2.89,0,5.78-.06,8.67l0,4.66c0,1.52,0,3-.05,4.55q0,3.48-.07,7c-.06,3.95-.15,7.82-.25,11.5-.12,4.29-.25,8.49-.43,12.73-.32,7.13-.8,13.08-1.49,18.72a3.84,3.84,0,0,1-1.48,2.75q-3.91,3-7.79,5.94l-5.92,4.52a3.35,3.35,0,0,1-.84.43l-.4.16a1.5,1.5,0,0,1-2-1.8l.15-.52a7.81,7.81,0,0,1,.33-1c3.82-9.09,6.47-19.22,8.32-31.87a242.48,242.48,0,0,0,2.35-24.76c.27-6.37.53-12.6.65-18.82.13-6.62.13-13.37.13-19.89v-.59c0-6.19,0-12.9-.1-21.12,0-2.33-.05-4.65-.09-7q-.07-4.41-.11-8.82c0-3.07,0-6.15,0-9.22,0-1.65,0-3.3,0-5v-3.68c0-2.88,0-5.76,0-8.64,0-3.11.12-6.27.2-9.33l0-1.77c.07-3.07.15-6.15.26-9.23.11-2.77.22-5.49.39-8.22.19-3.08.41-6.37.7-10l.09-1.16c.25-3.37.52-6.87.87-10.3.79-7.67,1.7-14.67,2.79-21.42,1.15-7.1,2.45-13.78,3.94-20.16q-2,5.06-3.92,10.73a396.36,396.36,0,0,0-12.23,45.54c-3.35,15.67-6.3,32.47-9,51.38-1.88,13.06-3.5,26-4.82,38.6-.94,8.93-1.84,18.59-2.85,30.39-.69,8.08-1.35,16.7-2,26.35-.42,6.33-.74,12.77-1,19l-.07,1.46c-.37,7.46-.64,13.64-.84,19.45-.13,3.43-.2,6.93-.27,10.31l-.08,3.82c0,3-.1,6.11-.11,9.2a3.43,3.43,0,0,1-1.57,2.93c-1.32.91-2.64,1.84-4,2.77l-2.26,1.59q-1.68,1.19-3.39,2.34l-.14.08-.84.44a1.49,1.49,0,0,1-1.71-.22,2.13,2.13,0,0,1-.5-2.56,86.62,86.62,0,0,0,5-22.66c.3-3.23.51-6.75.64-10.75a284.5,284.5,0,0,0-1.08-31.2L94,701.24c-1-13.54-2.11-27.55-3.09-41.33-.36-4.85-.51-9.69-.63-14.63-.14-4.69-.16-8.5-.07-12,.15-5.55.45-11.21.72-16.2.14-2.79.36-5.67.68-8.72-.26,1-.51,2-.76,3-2.2,9-4.07,18.84-5.88,30.87-1.56,10.34-2.78,20.51-3.62,30.24-.57,6.63-1.31,15.37-1.91,24.1-.43,6.28-.81,13.17-1.16,21.06-.22,4.75-.33,9.6-.45,14.28l-.07,3.12c-.15,5.95-.25,10.95-.29,16,0,4.58,0,9.19.07,13.71.06,3.56.15,7.12.24,10.68l.11,4.49a1.09,1.09,0,0,1,0,.18l-.08.77a1.5,1.5,0,0,1-.64,1.1l-.74.51c-.56.38-1.14.78-1.73,1.16C61.6,792.26,48,800.7,34.17,808.76,24.52,814.4,14.48,820,4.33,825.41Zm156.48-151.1c-.27,4.75-.7,9.61-1.3,14.53a148.67,148.67,0,0,1-8.13,34.92l.58-.46c1-.76,1.9-1.54,2.85-2.32l2.58-2.14c1-.8,2-1.6,2.9-2.42.44-.38.89-.74,1.35-1.1a22.62,22.62,0,0,0,2.23-2v-.15c0-.43-.06-.84-.1-1.26-.16-1.68-.33-3.37-.49-5.06-.39-3.9-.79-7.93-1.1-11.92-.44-5.38-.77-10.86-1.09-16.16l-.16-2.58C160.88,675.6,160.84,675,160.81,674.31Zm25.26-8.21c-.06,1.69-.14,3.33-.24,4.94a112.38,112.38,0,0,1-4.91,27.68c.65-.57,1.3-1.14,1.94-1.72l5.64-5c.11-.1.13-.11.1-.33l-.26-2c-.25-1.82-.5-3.7-.68-5.58C187,677.56,186.49,671.76,186.07,666.1Z"/></g></g></g></svg>