<svg xmlns="http://www.w3.org/2000/svg" viewBox="0 0 774.83 882.91"><defs><style>.cls-1{opacity:0.2;}.cls-2{fill:#bf956d;}</style></defs><title>Asset 12</title><g id="Layer_2" data-name="Layer 2"><g id="BG"><g class="cls-1"><path class="cls-2" d="M358.58,882.91a1.56,1.56,0,0,1-.63-.14c-5.4-2.53-10.67-4.82-15.77-7-10.85-4.73-21.1-9.19-30.51-15-17.1-10.55-34-22-50.36-33.12-8.47-5.75-17.23-11.7-25.91-17.44a72,72,0,0,0-9-4.76c-1.44-.67-2.92-1.37-4.37-2.1l-.24-.15L117.8,723a1.47,1.47,0,0,1-.44-.55c-.58-1.21-1.09-2.48-1.58-3.71a26,26,0,0,0-3.74-7.15c-3.49-4.1-7.41-7.9-11.56-11.91-1.29-1.25-2.61-2.52-3.94-3.83L93.66,702a1.49,1.49,0,0,1-1,.83,1.52,1.52,0,0,1-1.27-.27L78.18,692.41a1.51,1.51,0,0,1-.56-.91c-.34-1.78-.59-3.62-.83-5.4-.55-4.1-1.07-8-2.6-11.37-1.71-3.79-4.62-7.23-7.44-10.56-.8-.93-1.61-1.89-2.4-2.86a7.61,7.61,0,0,1-4.17.61,1.5,1.5,0,0,1-1.07-2.26c.62-1,1.22-2,1.82-3.06,1.27-2.17,2.58-4.4,4-6.54,3.46-5.21,5.44-9.75,4.55-16.29C68,623,67.32,612,66.59,600.31c-.15-2.4-.3-4.85-.47-7.33-5.53,18.26-10.61,35-15.67,51.69l13.09-17a1.49,1.49,0,0,1,1.69-.5,1.5,1.5,0,0,1,1,1.46V629c-.17,5.81-.3,10.16-.44,15a1.49,1.49,0,0,1-.49,1.06,1.54,1.54,0,0,1-1.1.39c-2.21-.14-3.73.22-4.54,1.06-1.34,1.39-1,4.37-.77,7.25.08.81.16,1.62.21,2.4a1.5,1.5,0,0,1-1.45,1.59l-10.19.36A1.49,1.49,0,0,1,46,656l.37-1-2.22,4.32-1.69,3.29a1.53,1.53,0,0,1-1,.78,1.45,1.45,0,0,1-1.24-.28L30.3,655.5a1.54,1.54,0,0,1-.56-.91c-1.2-6.46-2.41-12.91-4-21.39l-10,9.47a1.49,1.49,0,0,1-1.94.1L.58,632.58a1.49,1.49,0,0,1-.58-1.2,1.52,1.52,0,0,1,.61-1.2l13.08-9.58.7-5A1.51,1.51,0,0,1,16,614.33l1.34.07c1,.05,2.18.11,3.33.19.78,0,1.56.1,2.41.17L22.66,613h0a1.87,1.87,0,0,1,0-.34,1.51,1.51,0,0,1,1.16-1.47,1.42,1.42,0,0,1,.54,0l23.16-1.27a1.49,1.49,0,0,1,1.24,2.45,26.66,26.66,0,0,1-2.85,2.76c-3.68,3.2-5.6,5.23-2.36,9.55a1.49,1.49,0,0,1,.27,1.21,1.47,1.47,0,0,1-.75,1l-10.17,5.58a5.14,5.14,0,0,0,3.31,2.42c1.75.18,3.53-1.49,4.72-2.9,3.48-4.11,7.75-9.6,9.92-15.61a393.64,393.64,0,0,0,11.9-39.64c1-4,1-8.36.93-13,0-2.19,0-4.46.07-6.78a1.49,1.49,0,0,1,1-1.36,1.52,1.52,0,0,1,1.64.5l14.2,18.22,5.89,7.55,2.27-1.1q-3.56-20.55-7.09-41.1l-1.6,0-2.61,9.66-1.93,7.15a1.49,1.49,0,0,1-1.81,1.06l-3.17-.79a1.46,1.46,0,0,1-.93-.7,1.52,1.52,0,0,1-.15-1.16c.38-1.34.7-2.75,1-4.11a40.75,40.75,0,0,1,3-9.43c2.6-5.1,2.19-9.39-1.43-14.83-11.1-16.67-21.06-31.73-30.5-47.15-1.95-3.19-1.65-8.65-.23-12.08a53.86,53.86,0,0,1,6.11-10.19c.92-1.31,1.87-2.66,2.74-4a.86.86,0,0,1,.07-.1l1.27-1.65a1.49,1.49,0,0,1,1.14-.58,1.45,1.45,0,0,1,1.17.51c1.11,1.26,2.38,2.5,3.61,3.71,2.8,2.75,5.7,5.6,7.32,9.12,4.68,10.13,9.13,20.57,13.43,30.66,4.09,9.58,8.32,19.49,12.73,29.11,3.34,7.28,7.26,14.25,11.42,21.63,1.5,2.66,3.05,5.4,4.59,8.2,6.41-9.76,8.88-20.07,7.16-29.95s-7.65-19-17.13-26L91.6,510.24a1.5,1.5,0,0,1-1.91.8l-2.62-1a1.49,1.49,0,0,1-.93-1.73c.21-1,.36-2,.52-3a21.84,21.84,0,0,1,1.91-7.05c3.21-6,2.44-10.07-3.17-16.58-7.34-8.51-13.32-18.35-19.11-27.86l-2.51-4.11c-1.7-2.77-2.26-8.14-.43-10.91,4-6.05,8.45-11.67,13.15-17.63,1.77-2.24,3.56-4.51,5.36-6.84a1.5,1.5,0,0,1,2.3-.09C104.29,436.61,111,463.76,117.43,490c2.37,9.63,4.81,19.56,7.89,29.12,15-19.14,17.05-55.15,3.8-76-4.39-6.9-9-13.81-13.51-20.5-4.62-6.89-9.4-14-13.92-21.15-1.64-2.59-2.88-7.84-1.17-10.53a182.6,182.6,0,0,1,11.32-15.31c1.55-1.95,3.12-3.93,4.7-6a1.49,1.49,0,0,1,1.14-.58,1.46,1.46,0,0,1,1.18.52l2.11,2.43,4,4.63c.23-1.93.42-3.81.6-5.64.6-6,1.17-11.65,3.32-16.57,2.24-5.13,6-9.5,9.94-14.12,1.77-2.06,3.59-4.18,5.32-6.43a1.48,1.48,0,0,1,1.28-.58,1.51,1.51,0,0,1,1.2.73c16.23,27.17,16.05,55.85,15.87,83.59,0,7.74-.11,15.74.21,23.54l1,.06.87-6.19,3.77-26.7a1.5,1.5,0,0,1,2.59-.81v0c2.3-10,4.41-20.24,6.45-30.16,5.13-24.82,10.42-50.49,19.1-74.58,12.16-33.72,26.63-69.49,50-102.62a1.5,1.5,0,0,1,2.69.54c.37,1.64.68,2.83.92,3.74a12.1,12.1,0,0,1,.59,3.3c-.94,45.71-8.88,82.13-25,114.6L217,340.1c-11.5,23.17-23.38,47.12-34.91,70.76a77.82,77.82,0,0,0-3.92,10.61c-.38,1.22-.78,2.46-1.19,3.69l.24.09c3.69-5.23,7.37-10.59,10.93-15.79C213,373.24,238.66,335.8,284,318.83a1.5,1.5,0,0,1,1.84,2.11,98.84,98.84,0,0,1-8,12.06c-2,2.73-4.08,5.54-5.86,8.43q-2.49,4-4.95,8.08c-12.1,19.81-24.61,40.3-42.44,56.59-4.69,4.28-5.31,9.3-1.94,16.55,5.62-6.32,11.65-12.19,17.49-17.9,13.12-12.79,25.51-24.87,33.82-41.51a1.5,1.5,0,0,1,2.76,1.18c-.24.66-.48,1.32-.76,2.07q7.68-5.6,14.94-10.95c14.26-10.48,27.73-20.38,41.56-29.66,8.5-5.71,10.31-10.72,7.45-20.61-8.47-29.3-19-65.76-18.8-102.51.11-19.19,3.17-35.67,9.36-50.4a1.51,1.51,0,0,1,1.51-.91,1.49,1.49,0,0,1,1.34,1.14l.74,3.12c12,50.41,24.4,102.5,19.16,156.56,13.91-5.89,20-14.29,20.85-28.51,1.72-28.74-2-58-11.69-92q-3.12-11-6.22-22c-6.61-23.34-13.44-47.48-20.48-71.12-3.44-11.54,2.51-18,9.46-23.26a1.5,1.5,0,0,1,2,.18c27.51,30.39,42.63,64.85,46.22,105.34,3.52,39.85-4.59,77.87-12.05,106.54-.51,2-1,3.94-1.55,6.43,0,.17-.07.33-.11.5,11.76-9.25,15.41-18.08,16.4-37.53l.39-7.82c1.78-34.69,3.62-70.56,1.34-106.23-1.87-29.16.38-59,2.56-87.89C401.15,44.13,402,33,402.6,22.06c.28-4.94,1.7-9.8,3.07-14.51.62-2.1,1.26-4.27,1.77-6.4A1.52,1.52,0,0,1,408.8,0a1.49,1.49,0,0,1,1.5,1C428.6,49,436.61,97.85,434.1,146.08c-2.36,45.41-14.12,91.68-35,137.6,10.44-7,17.22-17.41,21.7-33,1.35-4.71,2.63-9.56,3.87-14.25,3.41-12.89,6.93-26.22,12.34-38.54,10.08-22.93,21.3-45.8,32.16-67.92,5.08-10.35,10.33-21.05,15.39-31.61,5.66-11.8,11.3-23.84,16.75-35.5q3.9-8.34,7.82-16.68a1.5,1.5,0,0,1,2.85.75c-6.85,90.59-37.8,166.2-94.58,231,20.07-4.89,28.84-17.95,34.76-30.28,20.41-42.53,50.85-78.83,77.72-110.86a601.21,601.21,0,0,0,38.57-51.51c5.4-8.07,9.77-17.11,14-25.84,1.91-4,3.89-8,5.94-12a1.5,1.5,0,0,1,2.11-.6l2.6,1.58a1.5,1.5,0,0,1,.71,1.51c-6.84,44.91-21,85.1-42,119.46-20.89,34.1-49.28,63.61-84.45,87.8,29.37-4.07,53.25-11.15,73.16-29.76C571,198.85,607.22,178.77,651.13,166c14.11-4.1,28.11-9.61,41.65-14.94,5.5-2.17,11.19-4.41,16.82-6.53a18.24,18.24,0,0,0,3.76-2.18c.62-.43,1.24-.85,1.87-1.24a1.5,1.5,0,0,1,2.25,1l1,4.8a1.48,1.48,0,0,1-.32,1.28c-41.92,49.71-96,81.49-165.16,96.92,6.74-.52,13.56-1.1,20.17-1.66,15.5-1.31,31.53-2.67,47.33-3.27,50.58-1.92,87.14,6.57,118.56,27.53,14.89,9.92,26.5,21.48,35.49,35.31a1.5,1.5,0,0,1-2.18,2c-14.61-11.24-31.38-13.24-49.14-15.36l-5.42-.65a545.54,545.54,0,0,1-61.4-10.93c-12.2-3-24.2-7.42-35.81-11.73-3.81-1.42-7.76-2.88-11.64-4.27-48.28-17.24-96-8.51-136.33,2.3l-.11,0a30.07,30.07,0,0,0,11.79,2.32l6.79,0c11.42-.07,23.23-.13,34.7-1.29,39-3.94,73.17,3.81,104.48,23.68,25.52,16.21,47.69,37.36,67.79,64.68,8.53,11.6,8.89,22.65,1,32.84a1.51,1.51,0,0,1-1.8.45,1.5,1.5,0,0,1-.87-1.63c3.64-20.26-4.64-33.6-26-42-1.79-.69-3.37-1.27-4.82-1.77l-43.43-14.83c-34.49-11.77-70.15-23.93-105.16-36-11.77-4.07-23.62-8.51-35.08-12.8-6.42-2.4-13.06-4.89-19.6-7.28-.7-.25-1.43-.57-2.19-.89-1.92-.82-4.31-1.84-5.4-1.37-9.87,4.22-19.74,8.94-29.29,13.51l-5.79,2.77c13.36,3.29,26.25,4.69,38.75,6l.1,0c57.74,6.24,101.64,27.63,134.19,65.38l2.85,3.3c15.43,17.85,31.38,36.3,40.6,59.08a31.32,31.32,0,0,1,1.72,8.09c.14,1.2.29,2.43.5,3.6A1.5,1.5,0,0,1,637.2,432l-2.06.36-1.11.19a1.5,1.5,0,0,1-1.63-.88c-.53-1.23-1.16-2.48-1.78-3.68-1.42-2.81-2.9-5.72-3.37-8.85-1.48-10-7-16-17.29-18.75a17,17,0,0,1-4.83-2.47,25.31,25.31,0,0,0-2.67-1.59L591,390.78C570.88,381,550,371,529.45,361.22c-4.8-2.28-6.54.35-9,4.84-.47.88-.93,1.72-1.43,2.49-1.64,2.53-2.46,7.4-1.47,8.68,6.23,8.09,12.94,15.73,20,23.81q3.18,3.61,6.42,7.34l26.52-20.22a1.5,1.5,0,0,1,2.1,2.11c-2.2,2.85-4.3,5.49-6.33,8a203.61,203.61,0,0,0-12.55,16.9c-1.6,2.5-2.1,7.17-1.14,10.64,2.45,8.92,5.44,17.87,8.34,26.54q1.71,5.13,3.4,10.27a1.5,1.5,0,0,1-1.21,1.95l-1.33.2a1.51,1.51,0,0,1-1.52-.73l-19.54-33.65-11.36,13c-8.26,9.45-16.07,18.38-23.64,27.23L504,472.72c-7.34,8.48-14.26,16.49-13,28.52.14,1.31-.57,2.43-1.32,3.62-.32.5-.65,1-.93,1.57a1.54,1.54,0,0,1-1.37.83,1.5,1.5,0,0,1-1.34-.89l-3.6-8L368.33,621.58l.48.76c.92-.41,1.86-.79,2.78-1.17a30.88,30.88,0,0,0,7.65-4c14-11.27,28.23-22.83,42-34,19.31-15.72,39.27-32,59.11-47.71,14.69-11.66,30-23,44.81-34,6.66-4.95,13.55-10.06,20.29-15.13a1.49,1.49,0,0,1,2,2.16c-39.8,47.19-86.07,85.47-135.05,126l-6.3,5.21c17.9,2.54,18.68,2.07,32.69-6.3l.68-.4,9.51-5.7c16.79-10.06,34.15-20.46,51.62-30s35.55-18.75,53-27.67q11.53-5.88,23-11.81a1.49,1.49,0,0,1,2,.57l1.88,3.19a1.51,1.51,0,0,1-.46,2L454.48,627.44l11.5,5.18a1.52,1.52,0,0,1,.88,1.45,1.5,1.5,0,0,1-1,1.34c-5.8,2-11.76,3.72-17.52,5.42-12.6,3.71-25.63,7.55-37.09,13.62-21.19,11.24-41.93,24.24-62,36.81-8,5-16.25,10.18-24.43,15.18a63,63,0,0,0-5.34,3.79L318,711.38l0,.11,2-.56a40.06,40.06,0,0,0,6.5-2.26c11.86-5.77,23.86-11.78,35.46-17.59l8.37-4.18C432.18,656,504.63,621.16,581.46,599l.07-.05.73-.5a1.5,1.5,0,0,1,1.49-.11,1.46,1.46,0,0,1,.84,1.24l0,.4a1.51,1.51,0,0,1-1.08,1.55l-.76.22c-.61.43-1.21.88-1.8,1.33a41.43,41.43,0,0,1-6.54,4.25C510.66,638.05,443,670.6,355,712.84c-4.66,2.23-9.48,4.32-14.14,6.34l-5.45,2.38.27,1.65c1.08-.08,2.17-.12,3.23-.17a33.68,33.68,0,0,0,9.08-1.19q12.46-4.12,24.91-8.3c55.63-18.62,113.15-37.86,172.31-48,3.08-.52,6.24-.77,9.29-1,1.47-.12,2.93-.24,4.39-.39a1.51,1.51,0,0,1,1.61,1.17l.15.68.75,3.35a1.5,1.5,0,0,1-1,1.76L352.64,737.82l.84.41c2.12,1,3.66,1.78,4.87,1.67a94.54,94.54,0,0,0,12.43-2.17c1.59-.35,3.19-.7,4.78-1,62.88-12.63,127.91-25.69,194.91-27.37,3.34-.09,6.72.1,10,.28,1.51.09,3,.17,4.54.23a1.5,1.5,0,0,1,1.44,1.5c0,.51,0,1,0,1.52v.92a1.5,1.5,0,0,1-1.23,1.46L297.85,767.42c0,.37-.08.74-.11,1.11,1.1.33,2.2.71,3.27,1.09,3.08,1.06,6,2.08,8.75,1.88,35.18-2.33,70.94-5,105.52-7.59l27.42-2c4.65-.34,9.3-.71,13.95-1.08,7.35-.58,14.94-1.17,22.42-1.66,8.24-.53,16.61-.94,24.7-1.35l10.64-.53a1.5,1.5,0,0,1,.49,2.94c-69.7,19.72-128.4,28.58-183.14,27.55,14,3.08,28.12,5.84,41.88,8.53,36.41,7.12,74.06,14.49,109.68,27.75a1.5,1.5,0,0,1-.61,2.9c-51-2.81-101.86-12.08-151-21-14.34-2.61-29.07-5.29-43.75-7.81,31.65,13.15,65.09,21.54,97.54,29.68,14.94,3.75,30.39,7.62,45.45,11.91a1.5,1.5,0,0,1-.49,2.94c-63.77-3.4-127-17.57-188-42.12C260.27,816,280.16,828,301.09,840.66l.52.31c19.39,11.7,39.44,23.81,57.94,39.29a1.5,1.5,0,0,1-1,2.65ZM223.52,800.7c1.37.69,2.79,1.36,4.16,2a74,74,0,0,1,9.38,5c8.69,5.75,17.46,11.7,25.94,17.46,16.32,11.08,33.2,22.53,50.25,33.05,9.22,5.69,19.38,10.11,30.13,14.79q2.43,1,4.91,2.14c-15.65-11.91-32.17-21.88-48.24-31.58l-.51-.31c-22.53-13.61-45.83-27.68-65.44-46.29a1.5,1.5,0,0,1,1.61-2.47,586.5,586.5,0,0,0,180.11,44.15c-10.4-2.77-20.87-5.39-31.09-8-36.41-9.13-74.05-18.58-109.17-34.72a1.5,1.5,0,0,1,.87-2.84c18.63,3.06,37.52,6.5,55.78,9.83,45.64,8.32,92.72,16.9,140,20.31-32.38-11-66.25-17.6-99.1-24-18.86-3.69-38.35-7.5-57.4-12.1a1.5,1.5,0,0,1,.43-3c55.52,3,114.54-4.37,184.83-23.24-7.15.36-14.46.73-21.67,1.2-7.45.48-15,1.08-22.37,1.65-4.66.37-9.31.74-14,1.08l-27.42,2c-34.58,2.59-70.35,5.26-105.54,7.6-3.36.22-6.7-.93-9.93-2-1.42-.49-2.88-1-4.29-1.36a1.5,1.5,0,0,1-1.12-1.6l0-.41c.11-1,.21-2.06.32-3.09a1.51,1.51,0,0,1,1.22-1.32l286.1-51.94-2-.11c-3.21-.18-6.52-.36-9.74-.28-66.75,1.68-131.64,14.71-194.4,27.31-1.58.32-3.15.67-4.72,1a96.08,96.08,0,0,1-12.83,2.23c-2,.17-4-.77-6.43-2-1.24-.6-2.64-1.28-4.29-1.94a1.5,1.5,0,0,1,.1-2.82l210.16-67.48c-.1-.47-.2-.94-.31-1.41l-3.11.27c-3,.24-6.08.49-9,1-58.93,10.07-116.34,29.28-171.86,47.85q-12.45,4.17-24.91,8.31A36.42,36.42,0,0,1,339,726c-1.49.06-3,.13-4.48.28a1.51,1.51,0,0,1-1.63-1.26c-.22-1.4-.44-2.78-.66-4.16a1.51,1.51,0,0,1,.87-1.62c2.17-1,4.35-1.9,6.53-2.85,4.63-2,9.42-4.09,14-6.3,88-42.23,155.69-74.78,219.46-105.53l.19-.09C500.06,626.68,431,659.94,371.64,689.58l-8.36,4.19c-11.62,5.81-23.62,11.82-35.5,17.59a42,42,0,0,1-7,2.45c-1,.3-2.08.59-3.1.93a1.5,1.5,0,0,1-1.81-.77l-1.17-2.39a1.5,1.5,0,0,1,.47-1.87c.83-.61,1.65-1.23,2.47-1.86a66.81,66.81,0,0,1,5.59-4c8.17-5,16.42-10.16,24.4-15.17,20.1-12.6,40.89-25.62,62.17-36.91,11.73-6.21,24.91-10.09,37.65-13.85,4.53-1.33,9.18-2.7,13.76-4.18L452,629.62l-1.21-.55a1.48,1.48,0,0,1-.88-1.25,1.5,1.5,0,0,1,.66-1.37L577.2,541.87l-.45-.75Q565.88,546.75,555,552.3c-17.43,8.9-35.46,18.11-52.92,27.62s-34.76,19.89-51.52,29.94L441,615.55l-.68.41c-15.45,9.23-16.16,9.35-38,6.21a1.5,1.5,0,0,1-.74-2.64l8.9-7.37C455.67,574.77,498.54,539.3,536.07,497l-9.16,6.82c-14.79,11-30.08,22.33-44.74,34-19.82,15.73-39.77,32-59.07,47.68-13.74,11.19-27.94,22.75-42,34a33.35,33.35,0,0,1-8.39,4.42c-1.29.53-2.61,1.08-3.84,1.67a1.5,1.5,0,0,1-1.93-.56l-.47-.75-1.31-2.11a1.49,1.49,0,0,1,.17-1.81L481.76,494.67a1.49,1.49,0,0,1,2.46.4l3.36,7.45a2.57,2.57,0,0,0,.41-1c-1.37-13.33,6.31-22.21,13.74-30.8l1.77-2.05c7.58-8.87,15.39-17.8,23.66-27.25,4.05-4.63,8.27-9.46,12.73-14.58a1.53,1.53,0,0,1,1.27-.51,1.56,1.56,0,0,1,1.16.74l16.59,28.58-.78-2.35c-2.91-8.7-5.91-17.7-8.38-26.7-1-3.71-.84-9.38,1.5-13A189.3,189.3,0,0,1,563,397.72l-18.23,13.9a1.51,1.51,0,0,1-2-.21c-2.47-2.86-4.92-5.64-7.33-8.39-7.14-8.12-13.87-15.79-20.16-23.95-2.14-2.77-.62-9.15,1.33-12.15.43-.67.86-1.46,1.31-2.29,2.1-3.88,5.27-9.74,12.89-6.13,20.58,9.76,41.44,19.84,61.61,29.58l11.42,5.52a26.94,26.94,0,0,1,3,1.78,14.47,14.47,0,0,0,4,2.08c11.45,3.07,17.82,10,19.48,21.2.4,2.66,1.7,5.22,3.08,7.94.46.9.93,1.83,1.37,2.77l.55-.1c-.11-.76-.2-1.53-.29-2.28a28.62,28.62,0,0,0-1.52-7.32c-9-22.32-24.82-40.59-40.09-58.25l-2.85-3.3c-32-37.15-75.29-58.2-132.24-64.36h-.1c-13.85-1.51-28.18-3.06-43.2-7.17a1.5,1.5,0,0,1-.24-2.8q4.76-2.25,9.51-4.54c9.57-4.58,19.47-9.32,29.4-13.56,2.27-1,5.06.23,7.76,1.37.7.3,1.39.6,2,.83,6.55,2.4,13.2,4.89,19.62,7.29,11.44,4.29,23.28,8.72,35,12.77,35,12.11,70.66,24.27,105.14,36l43.44,14.83c1.49.51,3.11,1.11,4.94,1.82,20.09,7.86,29.53,20.4,28.71,38.21,3.06-7.35,1.53-15-4.57-23.33-19.87-27-41.78-47.93-67-63.92-30.73-19.51-64.28-27.11-102.58-23.24-11.61,1.18-23.5,1.24-35,1.31l-6.77,0a33.91,33.91,0,0,1-15.91-3.89,1.5,1.5,0,0,1,0-2.67c.31-.16.61-.33.91-.51a10.43,10.43,0,0,1,2.52-1.18C512.66,250.52,561,241.71,610,259.23c3.9,1.39,7.85,2.86,11.67,4.28,11.53,4.28,23.45,8.71,35.48,11.62A541.53,541.53,0,0,0,718.23,286l5.39.66c14.9,1.77,30.22,3.59,43.91,11.46a121.21,121.21,0,0,0-30.1-28c-30.85-20.58-66.87-28.92-116.77-27-15.74.61-31.73,2-47.19,3.27-7.34.63-14.92,1.27-22.39,1.82a30.54,30.54,0,0,1-10.55-.72,1.5,1.5,0,0,1-1.12-1.5,1.52,1.52,0,0,1,1.22-1.43c73.85-14.16,131-46.15,174.8-97.79l-.42-1.93a20.3,20.3,0,0,1-4.36,2.49c-5.6,2.11-11.28,4.35-16.77,6.51-13.6,5.35-27.67,10.89-41.91,15-43.45,12.63-79.24,32.49-109.42,60.7-21.9,20.47-48.27,27.34-81.12,31.36a1.5,1.5,0,0,1-1-2.74c37.24-24.58,67.13-55,88.82-90.41C569.93,134,583.88,94.54,590.71,50.43l-.37-.23c-1.77,3.48-3.49,7-5.17,10.5-4.26,8.83-8.68,18-14.2,26.21a603.14,603.14,0,0,1-38.77,51.77c-26.74,31.89-57.06,68-77.31,110.23-6.27,13.07-16.64,28.61-41.31,32.84a1.5,1.5,0,0,1-1.37-2.48c56.45-63,87.93-136.49,96.11-224.28l-4.26,9.11C498.6,75.75,493,87.81,487.3,99.61c-5.07,10.58-10.33,21.29-15.41,31.64-10.84,22.09-22.05,44.93-32.1,67.81-5.32,12.1-8.81,25.32-12.19,38.1-1.24,4.7-2.52,9.57-3.88,14.31-5.29,18.44-13.7,30-27.28,37.34a1.5,1.5,0,0,1-2.07-1.95c22-47,34.32-94.44,36.73-140.94,2.41-46.34-5-93.26-22-139.51-.19.67-.38,1.33-.58,2-1.32,4.54-2.7,9.23-2.95,13.82-.62,11-1.46,22.12-2.27,32.91-2.17,28.78-4.41,58.53-2.56,87.48,2.3,35.84.45,71.8-1.33,106.58L399,257c-1.11,22-5.8,31.5-20.92,42.26a1.5,1.5,0,0,1-2.33-1.56c.4-1.69.74-3.17,1-4.5.58-2.51,1-4.5,1.56-6.5,7.41-28.44,15.45-66.13,12-105.52s-18.06-72.93-44.53-102.56c-6.53,5.19-9.93,10.38-7.31,19.17C345.58,121.45,352.42,145.6,359,169q3.12,11,6.23,22c9.79,34.38,13.54,63.94,11.79,93-1,16.13-8.46,25.71-25.05,32.05a1.51,1.51,0,0,1-1.45-.22,1.53,1.53,0,0,1-.58-1.35c5.77-53.88-6.47-106-18.48-156.49-4.87,13.23-7.29,28-7.39,44.84-.2,33.64,8,64.64,18.69,101.66,3.19,11.06.84,17.55-8.67,23.94-13.78,9.25-27.22,19.13-41.45,29.59q-9.15,6.72-18.94,13.86a1.54,1.54,0,0,1-1.26.23,119.35,119.35,0,0,1-10.84,14.72l4.51-4.63a1.5,1.5,0,0,1,2.58,1c.41,19.39-7.36,27.39-27.74,28.54a1.49,1.49,0,0,1-1.41-2.19c-5.47,5.35-11,10.89-16.14,16.79A1.5,1.5,0,0,1,221,426c-5.05-9.5-4.55-16.53,1.59-22.14,17.51-16,29.91-36.3,41.9-55.93q2.48-4.06,5-8.1c1.84-3,3.95-5.86,6-8.63,1.9-2.58,3.84-5.23,5.6-8-42,17.31-66.57,53.2-90.4,87.93-3.79,5.52-7.7,11.23-11.62,16.77a1.51,1.51,0,0,1-1.75.55l-2.68-1a1.5,1.5,0,0,1-.9-1.9c.57-1.64,1.11-3.35,1.63-5a78.63,78.63,0,0,1,4.09-11c11.53-23.65,23.41-47.61,34.91-70.78l8.77-17.68C239,289,246.79,253,247.72,207.77a10.73,10.73,0,0,0-.5-2.5q-.06-.27-.15-.57c-22,32.07-35.94,66.58-47.7,99.17-8.6,23.89-13.88,49.46-19,74.18-2.24,10.86-4.55,22.08-7.12,33a1.49,1.49,0,0,1-1.08,1.11,1.52,1.52,0,0,1-1.26-.24c-1.09,7.68-2.2,15.61-3.33,23.59l-1.06,7.56a1.5,1.5,0,0,1-1.59,1.29l-3.73-.23a1.49,1.49,0,0,1-1.41-1.42c-.38-8.31-.33-16.82-.27-25,.17-26.68.35-54.24-14.35-80.15-1.34,1.67-2.71,3.26-4,4.81-3.81,4.45-7.41,8.65-9.47,13.37-2,4.49-2.48,9.67-3.08,15.66-.29,2.89-.59,5.87-1.07,9a1.5,1.5,0,0,1-2.62.76l-6.2-7.12-.92-1c-1.2,1.55-2.41,3.07-3.6,4.57a179.76,179.76,0,0,0-11.14,15.05c-.81,1.27-.19,5.17,1.17,7.32,4.5,7.09,9.27,14.2,13.88,21.08,4.5,6.7,9.14,13.63,13.55,20.56,14.62,23,11.86,61.86-5.79,81.6a1.5,1.5,0,0,1-1.42.47,1.52,1.52,0,0,1-1.12-1c-3.53-10.46-6.21-21.36-8.8-31.91-6.24-25.37-12.69-51.58-31.4-73.12-1.43,1.84-2.86,3.64-4.26,5.43-4.66,5.91-9.07,11.49-13,17.43-1,1.54-.76,5.64.49,7.69.84,1.36,1.67,2.73,2.51,4.11,5.73,9.41,11.65,19.14,18.82,27.47,5.41,6.26,7.88,11.78,3.54,19.94a19.09,19.09,0,0,0-1.58,6.09c-.1.63-.2,1.28-.31,1.93l.09,0L94.92,495a1.47,1.47,0,0,1,1-.85,1.49,1.49,0,0,1,1.26.21c11,7.61,17.9,17.64,19.88,29s-1.15,23.2-9,34.21a1.51,1.51,0,0,1-2.54-.16c-1.91-3.53-3.85-7-5.73-10.31-4.19-7.43-8.15-14.45-11.54-21.85-4.43-9.66-8.66-19.59-12.76-29.19C71.12,486,66.68,475.55,62,465.46c-1.4-3-4-5.56-6.7-8.24-.84-.83-1.7-1.67-2.53-2.54l-.15.19c-.89,1.37-1.84,2.73-2.77,4.05a50.82,50.82,0,0,0-5.79,9.61c-1.09,2.63-1.35,7.13,0,9.36C53.51,493.27,63.45,508.3,74.54,525c2.84,4.27,4,8.18,3.47,12.14a1.52,1.52,0,0,1,.84-.29l4-.12a1.48,1.48,0,0,1,1.53,1.24q3.73,21.75,7.5,43.5a1.5,1.5,0,0,1-.83,1.6l-4.37,2.12a1.5,1.5,0,0,1-1.84-.43l-6.64-8.5L66.63,561.33c0,.82,0,1.63,0,2.44,0,4.78,0,9.3-1,13.68a397.2,397.2,0,0,1-12,39.95c-2.33,6.46-6.81,12.23-10.45,16.53-2.41,2.84-4.86,4.17-7.28,4s-4.63-2-6.47-5.21a1.49,1.49,0,0,1-.14-1.15,1.44,1.44,0,0,1,.72-.9l10.15-5.57c-3.35-5.7.4-9.26,3.43-11.91l-17.62,1,.44,2a1.48,1.48,0,0,1-.32,1.31,1.53,1.53,0,0,1-1.25.52l-1.49-.11-2.91-.21-3.27-.18-.6,4.25a1.5,1.5,0,0,1-.6,1L4,631.42l10.62,8.19,11.06-10.48a1.5,1.5,0,0,1,2.51.81c1.8,9.59,3.11,16.59,4.41,23.53l8,6.19.88-1.7,3.67-7.13a1.51,1.51,0,0,1,1.33-.82h2.8a1.5,1.5,0,0,1,1.41,2l-1.11,3,6.38-.23c0-.26,0-.51-.07-.76-.34-3.39-.71-7.24,1.59-9.62a7.39,7.39,0,0,1,5.33-2c.09-3,.18-5.91.27-9.18L51,648.9a1.5,1.5,0,0,1-1.8.45l-1.7-.77a1.5,1.5,0,0,1-.81-1.8c6.06-20,12.13-40,18.94-62.48a1.5,1.5,0,0,1,2.93.33c.4,5.36.72,10.51,1,15.49.72,11.59,1.41,22.53,2.87,33.25,1,7.45-1.28,12.72-5,18.35-1.37,2.07-2.66,4.27-3.91,6.39l-.23.39c.25-.12.45-.23.57-.3a1.53,1.53,0,0,1,2,.26c1,1.29,2.09,2.55,3.12,3.77,3,3.49,6,7.09,7.89,11.27,1.72,3.8,2.29,8.07,2.85,12.2.21,1.55.42,3.15.69,4.69l11.27,8.69,3-6.46a1.54,1.54,0,0,1,1.1-.85,1.5,1.5,0,0,1,1.32.42c1.85,1.84,3.66,3.59,5.43,5.3,4.21,4.07,8.19,7.91,11.77,12.13a28.64,28.64,0,0,1,4.23,8c.43,1.08.88,2.18,1.36,3.22ZM72.75,554.3l.26.07,1.54-5.73c.52-1.93,1-3.86,1.57-5.79a38.24,38.24,0,0,0-2.72,8.69C73.19,552.45,73,553.38,72.75,554.3ZM265.68,386.9l-20.92,21.47C259.27,406.73,265.13,400.71,265.68,386.9ZM154.21,732a16.78,16.78,0,0,1-10.58-3.59c-3.18-2.45-5.68-6-7.7-9.08a1.51,1.51,0,0,1,.27-2c4.92-4.29,8.69-6.77,12.32-5.92,4.42,1,7.52,6.84,12,17.87a1.52,1.52,0,0,1-1,2A24.13,24.13,0,0,1,154.21,732Zm-15-13.21a30.79,30.79,0,0,0,6.29,7.25,14.4,14.4,0,0,0,11.63,2.74c-3.52-8.41-6.35-13.71-9.26-14.4C145.94,714,143.4,715.23,139.17,718.8Zm-8.38-3.17a1.49,1.49,0,0,1-1.23-.64l-.58-.82c-.48-.69-1-1.38-1.47-2.08a1.5,1.5,0,0,1-.06-1.64L136,696.23a1.49,1.49,0,0,1,1.38-.72l3.64.21a1.48,1.48,0,0,1,1.39,1.26c.17,1,.5,2.27.82,3.45.87,3.24,1.7,6.29.17,8.23h0c-2,2.54-5.25,3.89-8.38,5.2-1.27.53-2.46,1-3.58,1.61A1.51,1.51,0,0,1,130.79,715.63Zm-.26-4.47.75,1.07c.86-.4,1.75-.77,2.61-1.13,2.91-1.22,5.65-2.37,7.18-4.3h0c.6-.75-.19-3.66-.71-5.58-.23-.86-.46-1.73-.65-2.57l-1.58-.09Zm11.72-3.43h0Zm-20-.07a1.47,1.47,0,0,1-1-.39c-2.35-2.13-4.64-4.17-6.86-6.16-5.73-5.13-11.14-10-16.33-15a11.14,11.14,0,0,1-2.87-7.39c-.33-18-.51-35.91-.68-53.27l-.16-14.53a1.5,1.5,0,0,1,2.81-.76l.3.5a61.8,61.8,0,0,1,3,5.41c2.5,5.28,4.92,10.71,7.26,16,5.12,11.51,10.42,23.42,16.89,34.32h0c7.94,13.39,4.29,24.43.08,37.22-.33,1-.66,2-1,3a1.5,1.5,0,0,1-1,1A1.31,1.31,0,0,1,122.27,707.66ZM97.42,616.71l.09,8.73c.18,17.36.36,35.3.69,53.25a8.29,8.29,0,0,0,2,5.28c5.15,5,10.55,9.8,16.25,14.91,1.69,1.5,3.4,3,5.16,4.62.09-.28.18-.56.28-.84,4-12.09,7.43-22.54.19-34.75h0c-6.56-11.06-11.9-23-17-34.64-2.33-5.23-4.74-10.65-7.23-15.89C97.65,617.15,97.54,616.93,97.42,616.71Zm213.74,83.2a1.48,1.48,0,0,1-1.11-.5,1.49,1.49,0,0,1,0-2c19.58-22.73,29.73-29.58,41.77-28.17a1.49,1.49,0,0,1,1.29,1.13,1.52,1.52,0,0,1-.61,1.6c-12.5,8.53-24.21,16.54-35.82,24.48L312,699.65A1.47,1.47,0,0,1,311.16,699.91Zm35.73-27.74c-7.54.73-15,5.8-26.41,18.06ZM184.18,688.54a1.76,1.76,0,0,1-.45-.07c-1.14-.36-2.28-.72-3.42-1.06a1.5,1.5,0,0,1-1-1.82L183.89,668a1.5,1.5,0,0,1,1.84-1.07l1.56.41,1.29.34a1.52,1.52,0,0,1,1.06,1c3.69,13.08,4,14.15-4.66,19.55A1.54,1.54,0,0,1,184.18,688.54ZM182.56,685l1.41.44c3.28-2,4.65-3,5-4.55.41-1.83-.47-5.1-2-10.45l-.45-.12-.12,0ZM131.74,657.5a1.54,1.54,0,0,1-.92-.31,8.26,8.26,0,0,0-.81-.55c-.31-.2-.61-.4-.88-.61a3.9,3.9,0,0,1-1.06-1.15l-.23-.38c-10.52-17.69-21.4-36-31.91-54.1a9.23,9.23,0,0,1-.89-4.6c0-.53,0-1-.07-1.5-4.52-7.91.6-12.35,4.72-15.91a31.17,31.17,0,0,0,3.78-3.63,1.51,1.51,0,0,1,1.45-.51,1.48,1.48,0,0,1,1.14,1c1.21,4,1,7.56-.62,10.15h0a35,35,0,0,1-4.22,5.24l8.82-2.8a1.49,1.49,0,0,1,1.71.62c19.77,30.36,25.58,48.74,21.45,67.82a1.49,1.49,0,0,1-1.46,1.18ZM98,594.84l0,.89a7.06,7.06,0,0,0,.48,3.16C109,617,119.9,635.28,130.42,653l.23.39.06.07c3-17.23-2.86-34.53-20.85-62.34Zm5.75-16.05c-.69.65-1.4,1.26-2.1,1.87-4,3.5-6.59,6-4.94,10.36.28-.3.57-.59.86-.89a39.34,39.34,0,0,0,5.31-6.28h0A7.84,7.84,0,0,0,103.76,578.79Zm.41,5.85h0Zm114,72a1.43,1.43,0,0,1-.29,0l-5-1a1.5,1.5,0,0,1-1.2-1.72q4.53-26.58,9-53.06l5.76-33.79-2.36.83a1.5,1.5,0,0,1-1.3-.15,1.51,1.51,0,0,1-.69-1.11c-1.94-18.22-.84-19.68,19.58-25.92a1.5,1.5,0,0,1,1.89,1.8c-4,15.84-6.62,31.84-9.14,47.31-3.75,22.91-7.29,44.54-14.92,65.8A1.51,1.51,0,0,1,218.2,656.66ZM215,653l2.26.44c7.25-20.62,10.7-41.73,14.35-64.07,2.41-14.69,4.89-29.86,8.56-45-16,5-16.59,6.09-15.13,20.07l.76-.26,2.2-.78a1.51,1.51,0,0,1,1.47.27,1.48,1.48,0,0,1,.51,1.4l-6.18,36.3Q219.36,627.12,215,653Zm78.19-4.62a1.52,1.52,0,0,1-.92-.31l-.71-.56-2.21-1.72a1.49,1.49,0,0,1-.34-2c5.18-8.15,10-16.83,14.61-25.21,12.39-22.41,25.16-45.52,47-62l-7,1.59a1.48,1.48,0,0,1-1.54-.57,1.52,1.52,0,0,1-.09-1.65l42.68-73.14a1.54,1.54,0,0,1,.94-.7,1.5,1.5,0,0,1,1.15.18l4.48,2.78c.2-1.63.34-3.29.49-4.9.48-5.34,1-10.85,3.17-15.61,5.82-12.67,12.65-25.1,19.26-37.12,2-3.61,4-7.21,5.92-10.83a15.69,15.69,0,0,1,3.39-3.89c.62-.59,1.27-1.19,1.91-1.87a1.51,1.51,0,0,1,2.09-.08c2.38,2.13,4.69,4.28,6.92,6.36,4.35,4.07,8.46,7.91,12.88,11.33.8.61,1.61,1.21,2.43,1.79,3.59,2.56,5.43,5,5.79,7.61.47,3.44-1.68,6.63-4.06,9.57-22.61,27.81-41.21,51.08-58.53,73.22-20.78,26.57-41.76,53.72-62,80q-12.39,16-24.79,32-4,5.12-7.9,10.24l-3.77,4.9a1.51,1.51,0,0,1-1,.57Zm-.92-4.12.65.51,2.85-3.7q3.94-5.13,7.91-10.25,12.4-16,24.79-32.05c20.29-26.25,41.27-53.4,62.06-80,17.33-22.15,35.94-45.43,58.56-73.26,2.64-3.26,3.67-5.44,3.42-7.27s-1.69-3.53-4.56-5.57c-.85-.6-1.69-1.23-2.52-1.87-4.54-3.5-8.7-7.39-13.1-11.5-1.89-1.77-3.82-3.58-5.81-5.38-.35.34-.69.65-1,1a13.88,13.88,0,0,0-2.79,3.13c-2,3.62-4,7.23-5.93,10.84-6.58,12-13.39,24.36-19.17,36.93-2,4.29-2.43,9.31-2.9,14.62-.22,2.43-.44,4.93-.83,7.37a1.49,1.49,0,0,1-2.29,1l-5.11-3.18-40.17,68.84L357.39,552a1.5,1.5,0,0,1,1.14,2.73c-25.17,16.21-39,41.19-52.33,65.35C301.76,628.08,297.17,636.38,292.22,644.27ZM172,640a1.43,1.43,0,0,1-.46-.07,1.47,1.47,0,0,1-1-1.26L163,571a1.5,1.5,0,0,1,.35-1.14,1.46,1.46,0,0,1,1.06-.53l15.44-.83a1.53,1.53,0,0,1,1.57,1.29c.51,3.56,1,6.87,1.46,10,5,34,6.23,42.12-9.75,59.76A1.5,1.5,0,0,1,172,640Zm-5.86-67.76,7,62.73c12.68-14.87,11.5-22.84,6.78-54.78q-.6-4-1.27-8.62Zm74.21,57.94h-.05a1.48,1.48,0,0,1-1.33-.91,12.78,12.78,0,0,1-.77-8c1.68-7.84,3.44-15.79,5.15-23.48,3.81-17.22,7.76-35,11-52.64,2.12-11.74,9-13.92,19.36-13.63a1.49,1.49,0,0,1,1.18.62,1.51,1.51,0,0,1,.21,1.32c-2.26,7.24-4.45,14.57-6.56,21.66-7.74,26-15.05,50.5-26.81,74.22A1.49,1.49,0,0,1,240.33,630.13Zm31.25-95.68c-9.4.08-12.84,2.9-14.34,11.19-3.21,17.68-7.16,35.51-11,52.76-1.7,7.68-3.46,15.63-5.13,23.46a10.7,10.7,0,0,0-.25,2.21c10.56-22.29,17.46-45.43,24.73-69.84C267.53,547.75,269.52,541.08,271.58,534.45ZM335.51,628a1.47,1.47,0,0,1-.93-.33c-.59-.47-1.19-.93-1.79-1.39l-.4-.31a1.5,1.5,0,0,1-.29-2.07L453.32,456.44l9.1-12.57a1.49,1.49,0,0,1,2.34-.1L477.09,458a99.85,99.85,0,0,0-1.45-12.68c-.39-2.44-.78-5-1.06-7.46s-.66-9.2,2-14.2c3.9-7.29,9-13.81,13.9-19.76,1.74-2.1,6.95-4.28,9.43-2.88,7.85,4.42,15.33,9.18,22.57,13.78,2.34,1.49,4.64,2.95,6.88,4.35a1.51,1.51,0,0,1,.3,2.3l-130,138.72-63.12,67.37A1.5,1.5,0,0,1,335.51,628ZM463.74,447.16l-8,11L335.52,624.31l62-66.19L526.25,420.73l-5.35-3.4c-7.21-4.58-14.66-9.31-22.43-13.7-.8-.41-4.44.72-5.65,2.18C488,411.64,483,418,479.25,425.08c-1.61,3-2.22,7.54-1.69,12.46.27,2.42.65,4.8,1,7.31.86,5.42,1.75,11,1.47,17.22a1.5,1.5,0,0,1-1,1.34,1.48,1.48,0,0,1-1.62-.43ZM138.23,614.23a1.5,1.5,0,0,1-1.34-.82l-2.63-5.24c-1.59-3.15-2.88-5.72-4.15-8.29-1.61-3.26-3.19-6.51-4.72-9.64l-1.31-2.7a1.53,1.53,0,0,1-.07-1.15,1.48,1.48,0,0,1,.77-.86l19.33-9.34,2.45-1.18a1.5,1.5,0,0,1,2.11,1.71l-9,36.37a1.5,1.5,0,0,1-1.29,1.13Zm-10.79-26.65.65,1.34c1.52,3.13,3.11,6.38,4.71,9.63,1.27,2.57,2.56,5.13,4.14,8.27l.81,1.61L145,579.1Zm142.78,15.48a1.57,1.57,0,0,1-.37,0,1.5,1.5,0,0,1-1.1-1.15c-1.09-5.27.05-8.85,1.05-12q4.83-15.29,9.72-30.57c7.43-23.32,15.11-47.43,22.37-71.23,5.65-18.52,6.68-19.23,27.31-18.89a1.51,1.51,0,0,1,1.24.68,1.53,1.53,0,0,1,.12,1.41l-9.88,23.18c-14.05,33-28.58,67.08-42.93,100.37a18.9,18.9,0,0,1-4.33,5.58c-.74.73-1.44,1.43-2.06,2.15A1.5,1.5,0,0,1,270.22,603.06Zm52.85-131c-13.17,0-13.72,1.79-18.31,16.84-7.26,23.81-14.95,47.93-22.38,71.26q-4.87,15.28-9.72,30.57a21,21,0,0,0-1.34,7.47,16.32,16.32,0,0,0,3.67-4.62h0c14.35-33.29,28.88-67.38,42.93-100.36l9-21.13ZM197.93,597.91a1.47,1.47,0,0,1-.58-.12,1.51,1.51,0,0,1-.9-1.1c-2.81-14.76-4-23.28-2.67-28.9,1.43-6,5.71-8.38,12.64-10.35a1.44,1.44,0,0,1,1.18.16,1.53,1.53,0,0,1,.7,1c4.14,20,1.3,31.7-9.53,39.07A1.51,1.51,0,0,1,197.93,597.91Zm7.75-37.12c-10.24,3.16-11.6,6.79-6.72,33C206.92,587.27,208.89,577.44,205.68,560.79Zm99.72,18.54a1.5,1.5,0,0,1-1.14-.53l-.29-.33-1.57-1.85a1.48,1.48,0,0,1-.23-1.56L362.1,436a1.51,1.51,0,0,1,1.38-.91h0a1.49,1.49,0,0,1,1.38.92c1.23,2.92,2.43,5.65,3.57,8.27,2.79,6.4,5.2,11.92,7.18,17.74,1.16,3.43,1.37,8.57-.47,11.78-14.82,25.81-34.44,59.72-54.78,93.2l-1.28-.78,1.28.78c-2.18,3.58-5.85,6.14-9.41,8.6-1.56,1.09-3.18,2.21-4.6,3.38A1.49,1.49,0,0,1,305.4,579.33Zm-.11-3.94.31.36c1.19-.9,2.43-1.77,3.64-2.61,3.45-2.4,6.71-4.66,8.55-7.7h0c20.33-33.45,39.94-67.34,54.75-93.13,1.33-2.32,1.16-6.57.23-9.33-1.94-5.69-4.33-11.16-7.09-17.5-.72-1.64-1.45-3.33-2.21-5.09ZM119,573.21a5.42,5.42,0,0,1-3.41-1.24,10.45,10.45,0,0,1-2.31-2.59c-5.86-8.82-2.68-14.56,1-17.82,5.29-4.65,10.8-9.09,16.63-13.79,2.62-2.11,5.32-4.29,8.12-6.58a1.51,1.51,0,0,1,2.39.73c7.44,24.82,6.71,26.88-13.12,36.84l-.84.48-.14.07a17.79,17.79,0,0,0-2.57,1.51C123.11,571.89,121.11,573.21,119,573.21Zm20.21-38.27-6.4,5.16c-5.8,4.68-11.29,9.1-16.52,13.71-4.14,3.65-4.31,8.2-.51,13.91a7.9,7.9,0,0,0,1.64,1.88c1.58,1.21,2.94.54,5.69-1.28a22,22,0,0,1,3-1.73l.84-.48C144.74,557.13,145.51,556.26,139.16,534.94Zm-12.47,33h0Zm38.16-14.53a1.52,1.52,0,0,1-.85-.26,1.5,1.5,0,0,1-.64-1.45l1.14-8.18h-.27c-1.23,1.31-2.5,2.66-4.19,4.44l-2.34,2.48a1.5,1.5,0,0,1-2.56-.75l-3.75-20.13a1.5,1.5,0,0,1,1.05-1.71l5.09-1.51c4.07-1.2,7.8-2.3,11.51-3.44,1.29-.39,2.56-.86,3.79-1.32l1.67-.61a1.54,1.54,0,0,1,1.19.08,1.49,1.49,0,0,1,.75.92c6.06,21.06,5.75,21.94-10.86,31.24A1.59,1.59,0,0,1,164.85,553.4Zm1.38-13a1.49,1.49,0,0,1,1.11.49,1.52,1.52,0,0,1,.38,1.22l-1,7c5.92-3.35,9-5.35,10-8.15,1.07-3.1-.23-8-2.7-16.61l-.14,0c-1.26.46-2.57,1-4,1.37-3.73,1.15-7.46,2.25-11.54,3.45l-3.8,1.12,3,15.9.31-.34c1.87-2,3.24-3.42,4.6-4.87a1.47,1.47,0,0,1,1-.48l2.69-.12ZM32.36,543.64a1.49,1.49,0,0,1-1.24-.66l-.06-.08-1.48-2.2a1.5,1.5,0,0,1,2.5-1.67l1.52,2.27h0a1.5,1.5,0,0,1-.41,2.08A1.52,1.52,0,0,1,32.36,543.64Zm160.85-3.95a1.54,1.54,0,0,1-.92-.31,1.53,1.53,0,0,1-.58-1c-.43-4.27-.87-8.51-1.31-12.8l-.74-7.21a1.5,1.5,0,0,1,1.08-1.59l5.38-1.54L209,511.5a1.51,1.51,0,0,1,1.27.21,1.49,1.49,0,0,1,.64,1.1c1.91,21.92.61,23.93-17.46,26.86Zm-.44-20.41.61,6c.39,3.76.78,7.48,1.16,11.22,14.29-2.37,15.06-3.64,13.54-21.56L197,518.08Zm-70,19.9a1.5,1.5,0,0,1-1.35-2.15l15.23-31.68a1.49,1.49,0,0,1,1.51-.84,1.51,1.51,0,0,1,1.3,1.14c4.91,20.48,4.31,21.73-15.94,33.33A1.53,1.53,0,0,1,122.76,539.18Zm14.75-28.71L126.21,534C139.82,526.05,140.69,524.21,137.51,510.47ZM225.2,529.1a1.5,1.5,0,0,1-1.48-1.29c-3-20.9-1.76-22.57,22.81-29.75a1.51,1.51,0,0,1,1.92,1.38c.5,12.66,0,20.36-4.2,24.77-3.73,3.92-10.05,4.78-19,4.89Zm20.32-27.61c-21.16,6.2-21.54,7.16-19,24.58,8.79-.2,13.07-1.29,15.57-3.93C245.31,518.73,245.86,512,245.52,501.49Zm26.1,25.4c-2.69,0-6.26-1.18-11.67-3.18A1.5,1.5,0,0,1,259,522c.67-3.17,1-6.61,1.4-10,1.47-13.74,3.15-29.32,27.25-30.71a1.49,1.49,0,0,1,1.53,1.88q-1.37,5.11-2.7,10.16c-1.9,7.16-3.7,13.94-5.64,20.83h0c-1.83,6.43-3.15,10.45-6.17,12A6.55,6.55,0,0,1,271.62,526.89Zm-9.43-5.55c5.47,2,9.23,3.15,11.12,2.2s2.9-4,4.64-10.14h0c1.94-6.87,3.73-13.64,5.63-20.79q1.07-4,2.16-8.12c-19.58,1.95-20.93,14.56-22.36,27.88C263.06,515.35,262.73,518.41,262.19,521.34Zm17.2-7.53h0ZM152,519.21a1.49,1.49,0,0,1-1.13-.52c-.64-.74-1.28-1.48-1.91-2.23a1.5,1.5,0,0,1,0-2l21.33-23a1.52,1.52,0,0,1,1.56-.41l2.53.82a1.5,1.5,0,0,1,1,1.54,34.79,34.79,0,0,0,0,3.67c.14,3.39.27,6.6-1.67,8.22h0A114.76,114.76,0,0,1,158.7,515.4c-2,1.16-4,2.36-5.93,3.58A1.54,1.54,0,0,1,152,519.21Zm.11-3.67c.07.07.13.15.19.22,1.63-1,3.29-2,4.9-2.94a110.77,110.77,0,0,0,14.7-9.79h0c.8-.67.68-3.63.59-5.79,0-.94-.07-1.91-.06-2.83l-.54-.17Zm20.75-11.35h0Zm-23.07,6.16-.23,0a1.48,1.48,0,0,1-1.14-.88c-2.92-6.57-3.18-11.75-.81-15.84,3.09-5.32,10.35-8.4,22.86-9.69a1.5,1.5,0,0,1,1.27,2.49l-10.55,11.87-10.28,11.56A1.49,1.49,0,0,1,149.76,510.35Zm17.06-23c-9,1.35-14.43,3.89-16.65,7.72-1.6,2.76-1.58,6.35.07,10.92l8.67-9.75Zm20.32,8.79a1.49,1.49,0,0,1-1.49-1.61c.15-2.11.08-4.32,0-6.46-.14-4.82-.27-9,2.13-11,4.53-3.88,10-6.37,15.8-9,2.3-1,4.67-2.12,7-3.29a1.52,1.52,0,0,1,1.46.06,1.48,1.48,0,0,1,.72,1.27c.16,20.36-.31,20.92-25.08,30A1.54,1.54,0,0,1,187.14,496.19Zm22.62-27.65c-1.65.8-3.3,1.55-4.92,2.28-5.59,2.54-10.88,4.95-15.09,8.54-1.31,1.12-1.19,5-1.08,8.67,0,1.47.09,3,.06,4.48,10.47-3.83,15.88-5.93,18.47-9C209.62,480.64,209.8,476.44,209.76,468.54Zm13.16,11.06a1.5,1.5,0,0,1-1.49-1.73,75.59,75.59,0,0,0,.64-7.95c.26-5.82.49-10.85,3.46-13.64,6.34-6,14-10.68,22.06-15.67,3.46-2.13,7-4.34,10.69-6.75a1.5,1.5,0,0,1,2.31,1.5c-.49,2.95-.95,5.75-1.4,8.44-1.34,8.18-2.5,15.25-3.87,22.34-.37,2-2.55,4-4.34,4.58h0c-6.25,2.14-12.48,4.08-19.69,6.33l-7.91,2.48A1.76,1.76,0,0,1,222.92,479.6Zm34.15-41.38c-2.7,1.73-5.33,3.35-7.9,4.94-7.95,4.91-15.46,9.54-21.58,15.3-2.09,2-2.3,6.64-2.53,11.6-.08,1.93-.17,3.92-.37,5.91l5.7-1.78c7.19-2.25,13.4-4.18,19.61-6.3h0a4.4,4.4,0,0,0,2.37-2.32c1.36-7.05,2.52-14.1,3.86-22.26C256.5,441.66,256.78,440,257.07,438.22Zm-6.58,31.08h0Zm-104.16,6.14a1.61,1.61,0,0,1-.48-.08,1.52,1.52,0,0,1-1-1.41c-.12-15.44-4.07-30.17-7.89-44.41-5.37-20-10.91-40.72-5.89-63.58a1.5,1.5,0,0,1,1.35-1.17,1.52,1.52,0,0,1,1.51.95c1.23,3.16,2.38,6,3.45,8.64,2.14,5.28,4,9.84,5.46,14.49,1,3.25,2.07,6.5,3.12,9.75,3.9,12.05,7.93,24.52,10.53,37.1h0c3.1,15,.25,27.4-9,39.15A1.5,1.5,0,0,1,146.33,475.44ZM133,371.67c-3.11,20.08,1.72,38.1,6.81,57.09,3.5,13.07,7.11,26.54,7.86,40.73,6.57-10,8.43-20.62,5.84-33.17h0c-2.58-12.41-6.58-24.8-10.45-36.77q-1.59-4.89-3.14-9.78c-1.42-4.54-3.25-9-5.37-14.26ZM329,467.32h-.07a83.28,83.28,0,0,1-13.28-1.71c-1.76-.32-3.59-.65-5.41-.94a1.48,1.48,0,0,1-1-.62,1.52,1.52,0,0,1-.24-1.15q1.56-7.87,3.12-15.56c2.49-12.34,4.85-24,7-35.9,1.38-7.7,2.79-15.61,10.59-19.66l-4.8-1a1.5,1.5,0,0,1-1.2-1.62c.68-6.79,1.33-13.34,2-19.82-1.25,2.74-2.29,5.53-3.31,8.26-.75,2-1.52,4.05-2.36,6.05-1.48,3.52-4.4,7.91-7.78,8.72-8.82,2.1-18,3.65-26.82,5.15-3.33.56-6.68,1.13-10,1.73a1.48,1.48,0,0,1-1.12-.25,1.46,1.46,0,0,1-.62-1c-2.26-12.85-2.28-25.76,12.8-33.14a13.16,13.16,0,0,0,3.29-2.74,21.69,21.69,0,0,1,2.77-2.54c11.81-8.61,23.91-17.37,36.71-26.64L344,322.21a1.51,1.51,0,0,1,1.41-.18,1.48,1.48,0,0,1,.93,1.07c.82,3.66,1.64,7,2.36,9.92A137.78,137.78,0,0,1,352,348.9c2.46,20.2,4.34,38.75,5.73,56.71.38,4.75.28,11.66-2.26,17.59-5.57,13-12.26,25.73-18.74,38.06l-.07.14C335.35,463.89,332,467.32,329,467.32Zm0-3h0c1.33,0,4-2.25,5-4.31l.08-.15c6.44-12.27,13.11-25,18.63-37.84,1.8-4.19,2.52-9.93,2-16.18-1.39-17.91-3.26-36.42-5.72-56.58a137.23,137.23,0,0,0-3.21-15.52c-.58-2.35-1.22-4.94-1.87-7.76l-13.06,9.45c-12.8,9.27-24.9,18-36.7,26.63a21.13,21.13,0,0,0-2.4,2.21,15.15,15.15,0,0,1-4.11,3.34c-8.84,4.33-14.16,10.88-11.41,28.45l8.58-1.47c9.2-1.56,17.9-3,26.63-5.11,2-.48,4.44-3.94,5.7-7,.82-1.95,1.58-4,2.32-5.95,1.9-5.06,3.86-10.29,7.09-15.27a1.5,1.5,0,0,1,2.75,1c-.84,8.48-1.68,17-2.57,25.87l8.73,1.77a1.5,1.5,0,0,1,0,2.93C325,395.27,323.61,403,322,412c-2.13,11.93-4.48,23.61-7,36-.94,4.63-1.88,9.29-2.82,14,1.34.22,2.66.47,3.95.7a81.42,81.42,0,0,0,12.79,1.66Zm-59.61,2.11a1.5,1.5,0,0,1-1.5-1.63l.76-8.65c.8-9.25,1.56-18,2.42-26.82a6.57,6.57,0,0,1,2.49-4.66c9.28-6,18.79-11.93,28-17.69l7-4.42a1.5,1.5,0,0,1,2.28,1.52c-3.44,20.35-8.74,38.33-13.94,54.73-.82,2.57-4.12,5.34-6.92,5.82h0A137.62,137.62,0,0,1,275.75,466c-2,.13-4.13.26-6.3.43Zm37.94-59.54-4.18,2.63c-9.2,5.76-18.71,11.72-28,17.68a3.91,3.91,0,0,0-1.11,2.42c-.86,8.82-1.62,17.55-2.42,26.79l-.6,6.89,4.58-.3a135.8,135.8,0,0,0,13.89-1.33A7.25,7.25,0,0,0,294,457.9C298.9,442.5,303.86,425.71,307.27,406.89ZM289.7,463.15h0Zm-106.95-7.5a1.52,1.52,0,0,1-1.08-.45l-.17-.18c-.71-.74-1.43-1.47-2.14-2.19a1.54,1.54,0,0,1-.42-1.3c1.87-11.28,9.91-17.3,17.69-23.12,5.37-4,10.44-7.82,13.63-13.23a1.51,1.51,0,0,1,1.77-.66c.68.22,1.35.46,2,.69l.81.27a1.51,1.51,0,0,1,1,1.62,44.82,44.82,0,0,0-.27,5.06c-.07,4.21-.14,8.57-2.63,10.89h0c-6.46,6.07-13.86,11.29-21,16.35-2.74,1.94-5.58,3.94-8.31,6A1.55,1.55,0,0,1,182.75,455.65Zm-.71-4.38.87.9c2.43-1.77,4.91-3.52,7.31-5.22,7.07-5,14.38-10.16,20.7-16.09h0c1.56-1.45,1.62-5.16,1.68-8.75,0-1.39.05-2.82.16-4.18l-.56-.19c-3.51,5.38-8.72,9.29-13.77,13.07C191,436.39,183.93,441.66,182,451.27Zm208.8-5a1.57,1.57,0,0,1-.37,0,1.48,1.48,0,0,1-1.12-1.32c-.37-4-.7-7.85-1-11.48-.73-8.3-1.36-15.46-2.08-22.75-.46-4.66-2-9.37-3.42-13.92-2.11-6.59-4.27-13.34-3.55-20.44l-.85,1.23a1.46,1.46,0,0,1-1.32.65,1.5,1.5,0,0,1-1.24-.8L348,323.82a1.51,1.51,0,0,1-.1-1.16,1.54,1.54,0,0,1,.76-.88c8.55-4.26,11.52-5.26,17,2.12,5,6.72,9.54,14,13.89,21,2.11,3.41,4.29,6.93,6.5,10.34q4.54,7,9.15,14c6.12,9.31,12.45,18.93,18.42,28.57,1.9,3.07,3.85,9.06,2,12.17h0c-5,8.5-10.68,16.78-16.67,25.54-2.23,3.26-4.52,6.61-6.89,10.13A1.49,1.49,0,0,1,390.84,446.28Zm-7.59-79.92a1.5,1.5,0,0,1,.76.21,1.49,1.49,0,0,1,.59,1.95c-4.65,9.46-1.87,18.14,1.08,27.33,1.5,4.7,3.06,9.55,3.55,14.53.72,7.31,1.35,14.48,2.08,22.78.21,2.35.42,4.77.65,7.29,1.54-2.28,3.05-4.49,4.53-6.65,6-8.72,11.6-17,16.56-25.37.89-1.52-.1-6-2-9.07-5.95-9.61-12.27-19.21-18.38-28.5-3.06-4.66-6.12-9.31-9.16-14-2.23-3.43-4.42-7-6.53-10.39-4.32-7-8.78-14.17-13.74-20.78-3.9-5.22-5-5.3-11.93-1.91l26,50L382,367A1.49,1.49,0,0,1,383.25,366.36Zm31.09,42.83h0Zm56.21,11.22h0a1.52,1.52,0,0,1-1.2-.64c-2.31-3.32-4.6-6.58-6.87-9.82-7.15-10.18-13.89-19.79-20.4-29.77-.88-1.36-.83-3.07-.53-5a1.49,1.49,0,0,1-1.48-.2l-78.83-60.78a1.5,1.5,0,0,1,.44-2.61l19.27-6.49c0-.37,0-.76,0-1.17,0-2,0-4,1.38-5.24,11.09-10.15,22.86-12.67,34-7.31,6.3,3,12.14,7.1,17.79,11.05,2.76,1.93,5.62,3.93,8.49,5.77l11.18,7.19c15.47,10,31.48,20.25,47.38,30.1a89.33,89.33,0,0,0,12.25,5.94c1.95.82,4,1.68,5.93,2.59a1.5,1.5,0,0,1,.7,2c-4.69,9.21-6.83,13.4-10.29,14.18-3.23.73-6.45-1.74-12.85-6.67l-.52-.39c-32.81-25.21-65.86-42.57-101-53.08h0a24.4,24.4,0,0,0-5.08-.86,38.42,38.42,0,0,1,7.14,5.82c13.14,14.59,26.81,30.23,43,49.22,1.17,1.38,1.33,3.33,1.52,5.58.05.55.09,1.13.16,1.74.13-.8.25-1.62.33-2.47a1.47,1.47,0,0,1,.82-1.2,1.49,1.49,0,0,1,1.46.06L482.25,391l6.52,4a1.45,1.45,0,0,1,.69,1,1.47,1.47,0,0,1-.29,1.18l-17.43,22.61A1.48,1.48,0,0,1,470.55,420.41Zm-25.37-48.69c-.11.72-.24,1.4-.37,2-.38,2.06-.75,4-.25,4.77,6.48,9.94,13.22,19.53,20.34,29.69q2.84,4,5.71,8.15l15.17-19.67-5.1-3.14ZM365.27,313.5l73.78,56.89,0-.32c-.14-1.74-.27-3.24-.81-3.88-16.2-19-29.86-34.59-43-49.16a38.58,38.58,0,0,0-7.4-5.89c-1.27-.86-2.58-1.74-3.83-2.68a1.51,1.51,0,0,1-.59-1.25,1.47,1.47,0,0,1-.59.37Zm31-6.32c35.53,10.62,68.89,28.14,102,53.58l.52.4c5.3,4.07,8.5,6.54,10.36,6.12s4-4.28,7.57-11.23c-1.47-.65-3-1.28-4.42-1.9A91.18,91.18,0,0,1,499.63,348c-15.93-9.86-31.94-20.16-47.43-30.13L441,310.69c-2.92-1.87-5.8-3.89-8.59-5.84C426.89,301,421.15,297,415.07,294c-10.13-4.86-20.46-2.56-30.72,6.82-.37.34-.39,2.05-.4,3.07a21.3,21.3,0,0,1-.11,2.27,1.51,1.51,0,0,1,1.24-.43c1.11.13,2.28.21,3.41.29a35.63,35.63,0,0,1,7.78,1.12Z"/></g></g></g></svg>