<svg xmlns="http://www.w3.org/2000/svg" viewBox="0 0 778.57 535.99"><defs><style>.cls-1{opacity:0.2;}.cls-2{fill:#bf956d;}</style></defs><title>Asset 13</title><g id="Layer_2" data-name="Layer 2"><g id="BG"><g class="cls-1"><path class="cls-2" d="M762.55,536a21.25,21.25,0,0,1-3.67-.29c-7.1-1.21-8.4-6.3-9.06-11-5.77-41.22-19.33-78.52-40.3-110.88a359.18,359.18,0,0,0-60.88-71.56c-1.89,2-3.74,4.1-5.55,6.11-3.13,3.49-6.37,7.09-9.7,10.44-1.63,1.65-3.17,3.11-4.7,4.48-25.65,23-56.07,38.26-85.49,53-12.38,6.19-25.07,12.26-37.34,18.12-30.77,14.72-62.6,29.93-92.1,48.38a5.05,5.05,0,0,1-2.37.62c-.24,0-.47,0-.7.08a1.49,1.49,0,0,1-1.5-.65l-.74-1.12a1.51,1.51,0,0,1,.24-1.92l21.18-19.62-33.94,20.17a1.5,1.5,0,0,1-2.12-1.93,75.4,75.4,0,0,1,14.61-21.1,71.64,71.64,0,0,1,10.26-8.54c28-19.16,49.79-33.4,70.8-46.18,31.3-19,64.11-40.51,92-68.41l.24-.24c5.79-5.83,11-12,16.54-18.62,2.18-2.59,4.42-5.26,6.71-7.91l-6.1-4.47c-3.13,3.37-6.18,6.76-9.14,10-5.41,6-10.51,11.68-16,17.15-2,2-3.93,3.88-5.82,5.64-25.36,23.51-55.39,41.7-81.55,56.9-18,10.48-36.47,20.93-54.3,31.05q-15.66,8.88-31.3,17.79c-7.41,4.25-14.9,8.66-22.15,12.92q-5.07,3-10.16,6a1.51,1.51,0,0,1-1.82-.24,1.5,1.5,0,0,1-.24-1.81A125.9,125.9,0,0,1,386,432.73a123.47,123.47,0,0,1,11.14-9.92c14.87-11.7,30.28-23.2,45.19-34.32,7.48-5.59,15.22-11.36,22.78-17.09q27.48-20.77,54.9-41.62,16.18-12.28,32.38-24.56c5.87-4.46,11.77-8.89,18-13.55l5.33-4-2.62-1.53c-3-1.77-5.66-3.3-8.15-5.05-2.7-1.91-4.35-1.82-7.06.39-12.39,10.13-25.06,20.34-37.31,30.22-11.47,9.24-23.33,18.81-34.94,28.27-32.86,26.79-71.49,57.4-114.15,81.67-3.88,2.21-7.88,4.33-11.75,6.38q-2.87,1.5-5.71,3a1.48,1.48,0,0,1-2-.53l-.6-.94-.25-.4a1.5,1.5,0,0,1,.21-1.87q6.84-6.76,13.62-13.58c9.64-9.66,19.61-19.64,29.68-29.2q8.7-8.26,17.35-16.61c38.12-36.59,77.51-74.41,124.84-102.06l-1.17-.55a50.54,50.54,0,0,1-8.17-4.44c-4.83-3.46-8.82-3.1-14.7,1.32-28.19,21.24-57,42.65-84.82,63.36l-17.88,13.3c-27.08,20.15-55.1,41-82.78,61.33-5.53,4.06-11.41,7.81-17.1,11.43-2.62,1.67-5.33,3.4-8,5.13a1.48,1.48,0,0,1-1.4.12,1.45,1.45,0,0,1-.89-1.09,4,4,0,0,1,.73-3.78c14.82-16.74,34.5-38.64,55.28-59.55,30.12-30.3,58.62-54.54,87.13-74.1,11.22-7.71,23.49-14.21,35.35-20.5l8-4.24a65.51,65.51,0,0,1,11.61-4.44l2.68-.85L497.7,247c-5.17-2.25-10.06-4.38-14.92-6.27a6.47,6.47,0,0,0-4.3.2c-3.08,1.33-6.25,2.61-9.31,3.86-8.2,3.33-16.68,6.77-24.29,11.31-22.07,13.16-45.43,27.3-67.19,42.9-23.12,16.58-46.06,34.24-68.26,51.31-8.27,6.37-16.82,13-25.26,19.38-4.18,3.19-8.32,6.62-12.31,9.93-1.91,1.58-3.81,3.16-5.73,4.72a1.5,1.5,0,0,1-2-.07l-1.3-1.2a1.49,1.49,0,0,1-.09-2.14l1.19-1.26c.87-.92,1.78-1.87,2.61-2.83,5.33-6.08,10.65-12.35,15.79-18.41,11.46-13.5,23.3-27.45,36-40.2l.55-.56A602.5,602.5,0,0,1,378.7,265.1c19.29-14.75,43.19-24.53,75.2-30.76,2.75-.53,5.55-1,8.25-1.49l2.49-.43v-.2c-1.76-.35-3.55-.82-5.29-1.29-4.6-1.22-9-2.37-12.58-1.34-52.91,14.95-102.34,42.81-146.92,82.81-17.05,15.31-35.34,29.78-53,43.77l-3.93,3.12c-3.62,2.86-7.85,4.79-11.95,6.65-1.83.84-3.56,1.62-5.22,2.48a1.5,1.5,0,0,1-1.83-2.3q7.13-8.46,14.29-16.85c10.28-12.07,20.9-24.56,31-37.09a268.84,268.84,0,0,1,18.59-20.82c32.46-32.65,72-54.23,117.46-64.14,6.57-1.43,13.2-3,20.22-4.7l5.67-1.35c-.88-.28-1.74-.56-2.6-.82-5.26-1.66-9.81-3.1-14.34-4.94-7.92-3.22-15.76-3.38-25.41-.52-37.53,11.13-67.44,28.29-91.46,52.46A193.14,193.14,0,0,0,279,288.77q-6.33,8.6-12.62,17.23c-9,12.36-18.38,25.14-27.81,37.54a174,174,0,0,1-12.07,13.73c-1.87,2-3.79,4-5.64,6.05a1.5,1.5,0,0,1-2.49-1.6q2.78-6.42,5.45-12.68c4.08-9.51,7.93-18.49,12-27.56,1.44-3.2,2.86-6.5,4.23-9.69,4.15-9.61,8.43-19.54,13.92-28.61,8.51-14,17-25.27,26-34.34,11-11.08,22.78-19.05,36-24.37,13.44-5.4,27.71-9.2,41.52-12.88,5.66-1.5,11.51-3.06,17.22-4.71a40.57,40.57,0,0,1,4.94-1,27.22,27.22,0,0,0-16.86-1.78c-7.36,1.6-14.9,2.86-22.18,4.09-6.35,1.06-12.91,2.16-19.31,3.47-32.59,6.71-57,17.51-76.9,34-18.6,15.42-37.82,31.12-57.13,46.66-13.74,11.06-25.93,18.07-37.28,21.42a1.5,1.5,0,0,1-1.5-2.48c.94-1,1.89-1.93,2.85-2.89,1.89-1.9,3.82-3.81,5.78-5.75l1.26-1.25c2.4-2.36,4.83-4.76,7.25-7.2,6.27-6.3,10.88-11.29,15-16.15,5.14-6.13,10.47-12,15.84-17.4C230.84,226,269.79,206,315.53,199.46c7.22-1,14.51-2.4,21.56-3.72l3.38-.64c-10.32-2.87-20.61-4.59-31.39-1.71a57.28,57.28,0,0,1-7.8,1.33c-1.42.17-2.9.35-4.32.59-21.06,3.53-44.94,7.54-67.44,15.76-19.71,7.2-37.52,18.62-54.75,29.67l-2.61,1.68c-14.29,9.15-29.69,18.81-45.48,27.4a40.82,40.82,0,0,1-24.48,4.32,1.5,1.5,0,0,1-.44-2.84c2.34-1.13,4.76-2.19,7.33-3.32,5.78-2.54,11.77-5.16,17.09-8.77,20-13.54,35.9-25.15,50.06-36.51,25.83-20.74,56.79-32.49,97.41-37,3.76-.41,7.59-1.15,11.3-1.88-6.05-1.72-11.92-3.1-17.89-3.27-6.84-.19-13.93.77-20.78,1.71-1.87.25-3.75.51-5.62.74-53.23,6.65-99.37,20.73-141.08,43-8.11,4.34-15.88,9.14-24.1,14.23-3.76,2.32-7.64,4.72-11.6,7.1a1.5,1.5,0,0,1-2-2.18A131.68,131.68,0,0,1,74.13,231a115.17,115.17,0,0,1,22.4-17.58c15.3-9.17,28.18-15.73,40.53-20.65,14.93-6,30.71-10,44.18-13.23,10.28-2.44,20.67-4.14,30.72-5.78l4.09-.68a116.18,116.18,0,0,0-36.94.75c-31.48,5.71-63.53,17.72-100.88,37.81-9.92,5.34-20,10.71-29.82,15.9l-11.55,6.14a1.49,1.49,0,0,1-2-.52l-1-1.58a1.51,1.51,0,0,1,.42-2c6.17-4.26,12.4-8.68,18.42-13,13.65-9.69,27.76-19.7,42.24-28.62,17.09-10.52,36.7-17.8,58.42-21.7C123.89,168,97.91,173,74.1,181.54c-16.64,6-34.41,12.31-52.54,18.18A82,82,0,0,1,8,202.44c-2,.29-4.16.59-6.21,1a1.5,1.5,0,0,1-.89-2.84c6.29-2.89,12.71-5.41,18.91-7.86,4.71-1.85,9.59-3.77,14.29-5.8,35.85-15.52,60-22.13,78.56-24.86-2.21.12-4.41.28-6.61.46a351.34,351.34,0,0,0-45.86,6.87c-10.41,2.31-20.83,5.58-30.91,8.75-4.42,1.39-9,2.83-13.51,4.17a1.49,1.49,0,0,1-1.77-.78,1.51,1.51,0,0,1,.47-1.88c10.88-7.79,21.63-15.19,33.44-20.07A180.72,180.72,0,0,1,85.58,149c8.61-1.5,17.36-1.93,26.63-2.37l4.09-.21L48,127.31a1.5,1.5,0,0,1,.23-2.94c50.12-6,101.72,5.95,161.92,37.44a162,162,0,0,0-33.87-33.54c-18-13.22-38.73-20.7-60.19-27.81-6.35-2.1-12.66-4.57-18.77-7-2.77-1.08-5.53-2.16-8.31-3.21a1.5,1.5,0,0,1-.9-1.86c.2-.62.41-1.24.61-1.86a1.51,1.51,0,0,1,1.78-1c7,1.67,14.1,3.3,21,4.88,15.3,3.5,31.11,7.12,46.46,11.47,39.36,11.17,67.13,32.13,84.9,64.07a5.64,5.64,0,0,0,3,2.58c4.22.81,8.57,1.39,13.17,2l2.3.31C231,125,191.67,93.61,141.11,74.88a1.5,1.5,0,0,1,.61-2.9c6.73.42,13.84,1,20.37,3.26,10.35,3.57,20.57,2.36,29.21.71,9.33-1.79,18.8-2.88,26-3.62a68.77,68.77,0,0,1,7.71-.24,47.54,47.54,0,0,0,9.87-.61c19.81-4.1,41.1-4.73,65.08-1.94,5.5.65,11,1.48,16.47,2.32L290.88,63a1.5,1.5,0,0,1-.41-2.62c.59-.44,1-.74,1.2-.93a2,2,0,0,1,1.68-.64c2.07.37,4.12.76,6.18,1.15,3.85.72,7.84,1.48,11.78,2.05,50.15,7.26,87.22,18.18,120.2,35.41,27.56,14.4,56.34,30.62,78.59,56.31,22.59,26.1,36.46,58.41,42.4,98.77,0,.28.09.57.13.88.13,1,.46,3.45,1,3.8,3.7,2.36,7.56,4.37,12.05,6.7l2.88,1.5c-.14-1.78-.26-3.5-.37-5.17a110,110,0,0,0-1.55-14.25c-2.17-10.93-4.4-21.58-7.87-31.78-10-29.39-26.17-56.83-49.46-83.87-26.86-31.2-59.83-59-103.74-87.4-6.67-4.32-13.59-8.54-20.27-12.61-3.09-1.89-6.19-3.78-9.27-5.68a1.5,1.5,0,0,1,1-2.76,99,99,0,0,1,21.07,5.88c59.42,24.74,109.32,64.34,148.32,117.71,31.32,42.85,44.81,84.86,41.24,128.43a3.91,3.91,0,0,0,1.26,2.8c3.37,2.21,6.93,4.25,11,6.62l2.75,1.58c0-5.25,0-10.41.06-15.44.1-12.85.2-25-.8-37.11-2.55-31.09-13.62-59.76-25.2-86.12-21-47.78-48-93.46-71.58-132.53-1.51-2.5-3-5.05-4.42-7.53-.63-1.1-1.27-2.19-1.91-3.29A1.5,1.5,0,0,1,501.28,1a487.92,487.92,0,0,1,67.88,87.43C611.4,158.15,628.29,225.38,620.81,294a4.68,4.68,0,0,0,.86,3.27c2.63,2.52,5.5,4.93,8.28,7.26l2.45,2.07,1-.68c.85-5.56,1.82-11.19,2.75-16.64,2.14-12.42,4.34-25.26,5.29-37.93,2.92-38.95-8.66-75.6-20.38-106.32C603.25,98.46,579.2,54.35,558,17.34c-.68-1.19-1.38-2.36-2.09-3.53-.81-1.36-1.63-2.71-2.41-4.08-1-1.74-2-3.52-2.87-5.24l-1.23-2.27A1.5,1.5,0,0,1,551.84.5c43.57,48.61,72.42,93.87,90.81,142.44,14.22,37.53,20,71.89,17.82,105-1.08,16.07-3.82,32.29-6.46,48-1,5.77-2,11.74-2.89,17.61-.55,3.6-.51,5.55,2.33,7.83,29.92,24.08,55.23,51.33,75.23,81A317.71,317.71,0,0,1,778.13,522.6c.45,2.47.8,5-.22,7a7.31,7.31,0,0,1-1.32,1.79C773.54,534.51,767.63,536,762.55,536Zm-114-197.3a1.52,1.52,0,0,1,1,.38A362.34,362.34,0,0,1,712,412.22C733.25,445,747,482.66,752.79,524.31c.72,5.08,1.89,7.64,6.59,8.44,5.32.9,12.36-.69,15.08-3.43a4.1,4.1,0,0,0,.78-1c.64-1.26.2-3.69-.06-5.13a314.61,314.61,0,0,0-49-119.11c-19.83-29.39-44.94-56.42-74.62-80.32-4.16-3.34-4-6.79-3.41-10.62.91-5.89,1.92-11.87,2.89-17.65,2.63-15.61,5.35-31.75,6.42-47.67,2.2-32.71-3.57-66.66-17.62-103.78C623,99.43,597.18,57.63,559.17,13.39c.49.81,1,1.63,1.44,2.45C581.86,53,606,97.2,623.82,144c11.84,31,23.54,68.08,20.57,107.62-1,12.81-3.18,25.72-5.32,38.2-1,5.65-2,11.48-2.84,17.22a1.47,1.47,0,0,1-.61,1l-.44.32-2,1.42a1.5,1.5,0,0,1-1.83-.09c-1.1-.95-2.21-1.88-3.32-2.81-2.82-2.36-5.73-4.8-8.44-7.4a7.47,7.47,0,0,1-1.75-5.76c7.41-67.93-9.35-134.55-51.24-203.64a482.4,482.4,0,0,0-58.53-77.5c23.6,39.06,50.49,84.68,71.5,132.46,11.69,26.59,22.86,55.54,25.45,87.07,1,12.25.91,24.46.81,37.39-.05,5.84-.1,11.89,0,18a1.5,1.5,0,0,1-2.25,1.31l-5-2.89c-4.16-2.39-7.75-4.45-11.2-6.71a6.86,6.86,0,0,1-2.6-5.55c3.51-42.83-9.79-84.18-40.67-126.42C505.38,94.28,455.9,55,397,30.49a86,86,0,0,0-12-3.91l1.86,1.13c6.7,4.09,13.63,8.32,20.34,12.66,44.16,28.58,77.33,56.53,104.39,88,23.54,27.34,39.9,55.1,50,84.86,3.52,10.38,5.78,21.14,8,32.16A114.89,114.89,0,0,1,571.19,260c.17,2.5.34,5.08.59,7.84a1.46,1.46,0,0,1-.66,1.38,1.48,1.48,0,0,1-1.53.08c-1.84-1-3.6-1.89-5.29-2.77-4.54-2.36-8.47-4.4-12.28-6.83-1.72-1.1-2.06-3.67-2.37-5.93,0-.29-.07-.57-.11-.84-5.86-39.78-19.5-71.59-41.71-97.25-21.9-25.29-50.4-41.34-77.71-55.61C397.45,83,360.68,72.17,310.88,65c-3.42-.49-6.86-1.12-10.22-1.75l29.86,10.38a1.49,1.49,0,0,1,1,1.64l-.07.49A1.51,1.51,0,0,1,329.73,77c-3.16-.47-6.31-1-9.47-1.47-6.76-1.07-13.75-2.17-20.64-3C276,69.76,255,70.38,235.5,74.42a50.83,50.83,0,0,1-10.5.67,69.65,69.65,0,0,0-7.38.22c-7.15.74-16.54,1.81-25.76,3.58-9,1.73-19.73,3-30.74-.81a50.15,50.15,0,0,0-9-2.1c47.41,19.7,84.64,51.2,113.58,96a1.5,1.5,0,0,1-1.47,2.29l-5.54-.74c-4.65-.61-9-1.19-13.35-2a8.5,8.5,0,0,1-5.1-4.06c-17.36-31.21-44.54-51.7-83.1-62.64-15.27-4.33-31.05-7.94-46.31-11.44-4.44-1-9-2-13.49-3.1l1.08.42c6.07,2.37,12.35,4.83,18.62,6.9,21.7,7.19,42.69,14.76,61,28.25a165.24,165.24,0,0,1,38.32,39.44,1.5,1.5,0,0,1-2,2.18c-58.89-31.73-109.34-44.83-157.94-40.92L125.72,146a1.48,1.48,0,0,1,1.09,1.59,1.51,1.51,0,0,1-1.38,1.35c-4.51.32-8.86.53-13.07.73-9.18.45-17.84.87-26.27,2.34A177.83,177.83,0,0,0,49,162.33c-8.78,3.63-17,8.72-25.18,14.34l4.5-1.41c10.14-3.19,20.63-6.49,31.16-8.82a353.81,353.81,0,0,1,46.26-6.93c10.86-.92,21.94-1,32.65-1.09,4.7,0,9.56-.08,14.33-.18a1.44,1.44,0,0,1,1.07.41,1.52,1.52,0,0,1,.46,1.06v.53c0,.4,0,.81,0,1.22a1.46,1.46,0,0,1-.42,1.07,1.51,1.51,0,0,1-1.06.47l-4.1.06c-4.06.06-8.12.13-12.19.17-21.38.21-48.44,3.55-101.28,26.42-4.75,2.06-9.64,4-14.38,5.85-2.62,1-5.28,2.08-8,3.16a55.46,55.46,0,0,0,7.71-1.8c18.1-5.85,35.84-12.17,52.46-18.14,25.52-9.17,53.48-14.33,85.48-15.77a15.48,15.48,0,0,1,7.33,1.66,1.5,1.5,0,0,1-.46,2.84c-26,3.13-49.16,10.87-68.91,23-14.39,8.86-28.46,18.85-42.07,28.5-3.54,2.52-7.15,5.08-10.78,7.63L47,224.85c9.78-5.2,19.89-10.57,29.81-15.91,37.63-20.24,70-32.35,101.76-38.12a119.68,119.68,0,0,1,46.56.78,1.5,1.5,0,0,1,0,2.94c-4.12.73-8.26,1.41-12.64,2.13-10,1.63-20.33,3.32-30.5,5.74-13.37,3.17-29,7.21-43.77,13.09C126,200.36,113.23,206.86,98.08,216a111,111,0,0,0-21.82,17.12c-2.31,2.32-4.57,4.79-6.76,7.38l4.4-2.71c8.26-5.11,16.07-9.94,24.27-14.33,42-22.48,88.52-36.66,142.12-43.35l5.58-.74c7-1,14.18-1.95,21.27-1.74,8.13.24,16.23,2.65,24.06,5l.56.16a1.5,1.5,0,0,1-.16,2.92c-1.84.33-3.68.69-5.53,1.05-3.94.77-8,1.57-12.09,2-40,4.42-70.49,16-95.87,36.32-14.22,11.43-30.19,23.08-50.25,36.67-5.55,3.75-11.66,6.43-17.57,9l-1.78.78a37.56,37.56,0,0,0,16.74-4.33c15.7-8.54,31.05-18.16,45.29-27.29l2.61-1.67c17.37-11.14,35.32-22.66,55.34-30,22.76-8.31,46.78-12.34,68-15.9,1.49-.25,3-.43,4.46-.61a55,55,0,0,0,7.39-1.24c13.64-3.65,26.26-.43,39.07,3.51a1.49,1.49,0,0,1,1.05,1.52,1.51,1.51,0,0,1-1.23,1.39c-3.18.56-6.36,1.16-9.56,1.76-7.08,1.33-14.4,2.71-21.69,3.75-45.07,6.44-83.46,26.15-117.37,60.26-5.32,5.35-10.59,11.14-15.67,17.2-4.13,4.94-8.8,10-15.13,16.35-2.43,2.45-4.87,4.85-7.27,7.21l-1.26,1.25-4,4c9.26-3.73,19.2-9.92,30.19-18.76,19.29-15.54,38.5-31.23,57.09-46.64,20.27-16.8,45.12-27.8,78.22-34.61,6.45-1.33,13-2.43,19.41-3.5,7.25-1.22,14.75-2.48,22-4.06,7.68-1.66,14.83-.39,23.21,4.13a1.46,1.46,0,0,1,.77,1.55,1.49,1.49,0,0,1-1.21,1.24c-1,.19-2.06.34-3.09.49a47.31,47.31,0,0,0-6.29,1.23c-5.74,1.65-11.61,3.21-17.28,4.72-13.72,3.65-27.9,7.43-41.17,12.77-12.83,5.16-24.28,12.91-35,23.69-8.85,8.9-17.22,19.95-25.6,33.79-5.39,8.88-9.63,18.72-13.73,28.24-1.38,3.2-2.81,6.51-4.26,9.73-4.07,9.05-7.92,18-12,27.51q-1,2.37-2,4.74a163.88,163.88,0,0,0,11.63-13.24c9.42-12.37,18.75-25.14,27.77-37.49q6.31-8.62,12.64-17.24a195.07,195.07,0,0,1,18.62-21.76c24.38-24.53,54.72-41.94,92.74-53.22,10.35-3.06,18.8-2.87,27.39.62,4.41,1.8,8.91,3.21,14.12,4.86,2.44.77,5,1.58,7.73,2.48a1.5,1.5,0,0,1-.13,2.88c-3.8.89-7.4,1.76-10.88,2.59-7,1.68-13.68,3.27-20.28,4.71-44.91,9.79-83.93,31.09-116,63.33a262.73,262.73,0,0,0-18.38,20.58c-10.11,12.56-20.76,25.07-31,37.16q-4.92,5.77-9.83,11.57A50.26,50.26,0,0,0,241,356.93l3.94-3.11c17.65-14,35.9-28.41,52.88-43.65C342.77,269.86,392.6,241.78,446,226.7c4.42-1.25,9.37.06,14.16,1.33a63.14,63.14,0,0,0,6.29,1.46,1.5,1.5,0,0,1,1.26,1.52l-.06,2.71a1.51,1.51,0,0,1-1.24,1.44l-3.7.65c-2.69.47-5.47.95-8.19,1.48-31.55,6.14-55.05,15.73-74,30.19A598.83,598.83,0,0,0,321,319.76l-.55.55c-12.59,12.67-24.39,26.58-35.81,40-4.56,5.38-9.26,10.91-14,16.34,3.79-3.15,7.71-6.37,11.68-9.4,8.44-6.43,17-13,25.25-19.37,22.22-17.1,45.18-34.77,68.34-51.38,21.86-15.66,45.28-29.85,67.4-43,7.81-4.65,16.4-8.14,24.7-11.51,3-1.24,6.2-2.52,9.25-3.83a9.39,9.39,0,0,1,6.57-.25c4.92,1.92,9.84,4,15,6.32l6.64,2.88a1.49,1.49,0,0,1,.91,1.42,1.51,1.51,0,0,1-1,1.37c-2.27.8-4.41,1.47-6.48,2.12a63.58,63.58,0,0,0-11.08,4.22q-4,2.13-8,4.25c-11.78,6.25-24,12.71-35.05,20.32-28.36,19.46-56.71,43.58-86.7,73.75-19.53,19.64-38.09,40.18-52.54,56.46l3-1.94c5.64-3.59,11.48-7.31,16.94-11.32,27.67-20.33,55.68-41.17,82.76-61.32l17.88-13.29c27.84-20.71,56.62-42.12,84.8-63.35,4.86-3.66,10.84-6.68,18.26-1.37a47.56,47.56,0,0,0,7.68,4.16c1.25.58,2.53,1.18,3.78,1.82a1.5,1.5,0,0,1,.82,1.3,1.53,1.53,0,0,1-.75,1.34c-48.11,27.58-88.06,65.94-126.7,103q-8.67,8.32-17.36,16.61c-10,9.54-20,19.51-29.63,29.15Q362,421,356.82,426.15l1.5-.79c3.85-2,7.83-4.15,11.67-6.33,42.46-24.16,81-54.68,113.75-81.39,11.61-9.48,23.48-19,35-28.29,12.25-9.87,24.91-20.08,37.29-30.2,3.71-3,6.91-3.19,10.69-.53,2.38,1.68,5,3.18,7.93,4.92,1.42.82,2.93,1.71,4.57,2.69a1.51,1.51,0,0,1,.73,1.21,1.49,1.49,0,0,1-.6,1.28l-7.12,5.35c-6.2,4.66-12.1,9.09-18,13.54q-16.2,12.27-32.37,24.56Q494.39,353,466.93,373.8c-7.57,5.73-15.31,11.5-22.8,17.09C429.24,402,413.85,413.49,399,425.17a117.57,117.57,0,0,0-10.87,9.68,121.13,121.13,0,0,0-16,20l5-2.95c7.25-4.27,14.75-8.69,22.18-12.94q15.63-8.94,31.31-17.8c17.82-10.11,36.26-20.57,54.27-31,26-15.12,55.88-33.2,81-56.5,1.86-1.73,3.74-3.55,5.73-5.55,5.39-5.42,10.47-11.07,15.85-17,3.25-3.62,6.62-7.36,10.08-11.07a1.49,1.49,0,0,1,2-.19L608,306a1.51,1.51,0,0,1,.27,2.21c-2.64,3-5.23,6.12-7.75,9.1-5.56,6.63-10.82,12.89-16.71,18.8l-.24.25C555.48,364.45,522.5,386,491,405.19c-21,12.75-42.75,27-70.66,46.08a68.17,68.17,0,0,0-9.83,8.18,70.93,70.93,0,0,0-11.68,15.68c13.34-7.92,26.08-15.5,38.82-23.08a1.5,1.5,0,0,1,2,.44l.4.58a1.5,1.5,0,0,1-.22,1.94l-26.32,24.4c29.26-18.16,60.65-33.16,91-47.68,12.26-5.87,24.94-11.93,37.29-18.11,29.24-14.64,59.47-29.77,84.82-52.53,1.49-1.33,3-2.76,4.58-4.36,3.28-3.3,6.35-6.72,9.6-10.33,2.13-2.38,4.34-4.83,6.6-7.24A1.49,1.49,0,0,1,648.55,338.69ZM587,363.41a1.5,1.5,0,0,1-1.1-2.52l5.21-5.56,33.4-35.66a1.5,1.5,0,0,1,2.07-.12l4.93,4.19a1.51,1.51,0,0,1,.22,2.06,115.21,115.21,0,0,1-9.48,10.8h0c-10.66,10.72-22.85,19-34.43,26.57A1.53,1.53,0,0,1,587,363.41Zm38.72-40.65-28.65,30.6a165.32,165.32,0,0,0,23-18.87h0a112.66,112.66,0,0,0,8.35-9.39Zm-91-71.4a1.46,1.46,0,0,1-.58-.11c-1.17-.49-2.34-.94-3.49-1.39a52.61,52.61,0,0,1-7.77-3.49c-2.14-1.27-4.5-3.89-4.89-6.45-6.11-39.43-26.21-72.42-61.44-100.86-11.46-9.25-23.37-17.55-34.88-25.58-5-3.47-9.67-6.75-14.16-10a1.5,1.5,0,0,1,1.44-2.61c35.69,14.55,66.11,35.54,88,60.7,22.72,26.17,35.94,55.81,39.3,88.12a1.48,1.48,0,0,1-.6,1.36A1.5,1.5,0,0,1,534.79,251.36ZM421.51,109.66l1.94,1.36c11.56,8.06,23.51,16.39,35.05,25.7,35.84,28.93,56.29,62.54,62.52,102.75.21,1.37,1.76,3.31,3.46,4.31a48.1,48.1,0,0,0,7.32,3.28l1.22.47c-3.7-30.71-16.58-58.95-38.31-84C476,142,450.89,123.56,421.51,109.66Zm74.25,125.09a1.58,1.58,0,0,1-.52-.09c-2.11-.79-4.07-1.49-5.9-2.14a96.32,96.32,0,0,1-11.26-4.5,12.21,12.21,0,0,1-5.92-7c-6.69-25.08-16.68-46-30.55-64-4-5.2-8.43-10.28-12.68-15.18-2-2.31-4-4.61-6-6.94a1.5,1.5,0,0,1,2.06-2.16c29.21,22.72,60.62,52.39,72.21,100.17a1.5,1.5,0,0,1-1.46,1.85Zm-59.52-89c2.64,3.09,5.26,6.25,7.74,9.47,14.12,18.3,24.28,39.59,31.07,65.06a9.4,9.4,0,0,0,4.38,5.1,95.24,95.24,0,0,0,10.91,4.36l3.27,1.16C483.54,192.53,460.27,166.21,436.24,145.71Zm14.53,72.41a1.52,1.52,0,0,1-.42-.06c-1.86-.53-3.51-1-5.12-1.38a53.07,53.07,0,0,1-8.89-2.86,15.46,15.46,0,0,1-7.34-6.44c-21.29-42.42-53.41-76.47-95.47-101.2l-.35-.21c-.62-.37-1.27-.75-1.9-1.19-.48-.33-.95-.71-1.41-1.08l-.6-.48a1.5,1.5,0,0,1,1.54-2.55C388.72,126.84,428.4,164.56,452.13,216a1.5,1.5,0,0,1-.23,1.61A1.47,1.47,0,0,1,450.77,218.12ZM353.5,115.47A242.81,242.81,0,0,1,431.68,206a12.84,12.84,0,0,0,5.92,5.07,50.12,50.12,0,0,0,8.39,2.67l2,.54C428,172.39,396.9,139.86,353.5,115.47Zm48,87.5-.23,0c-9-1.37-18.29-2.78-22.17-13.21a20,20,0,0,0-2.37-4.16c-.34-.51-.68-1-1-1.52-25.69-40.33-55.45-68.43-91-85.91A170.3,170.3,0,0,0,226.8,81.71a1.48,1.48,0,0,1-1.33-1.43,1.49,1.49,0,0,1,1.22-1.53c22.1-4.08,57.69,9.07,95.21,35.18,37.35,26,67.62,58.48,81,86.9a1.53,1.53,0,0,1-.16,1.54A1.49,1.49,0,0,1,401.52,203Zm-87.24-90.59c24,17.24,45.09,40.38,64,70.07.31.49.63,1,1,1.45a23.58,23.58,0,0,1,2.7,4.79c2.9,7.84,9.32,9.61,17,10.86C385.2,172.2,356,141.32,320.19,116.4Q317.22,114.33,314.28,112.38Zm49.83,81.36a1.66,1.66,0,0,1-.32,0c-1.62-.35-3-.69-4.27-1a43.16,43.16,0,0,0-5.86-1.17c-6.54-.63-11-4-14.29-10.76A183.57,183.57,0,0,0,325.3,157.2c-4.66-6.75-9.72-13.32-15.07-20.29-2.37-3.09-4.81-6.27-7.34-9.61a1.5,1.5,0,0,1,2.15-2.06c22.55,18.58,41.71,39.6,60.29,66.14a1.5,1.5,0,0,1-1.22,2.36Zm-50-56.69c4.82,6.27,9.38,12.28,13.65,18.45a187.72,187.72,0,0,1,14.3,24c2.9,5.93,6.35,8.56,11.88,9.1a44.83,44.83,0,0,1,6.28,1.23l.38.09A324.81,324.81,0,0,0,314.12,137.05Zm2.47,46.32a1.18,1.18,0,0,1-.26,0c-2.2-.39-4.3-.73-6.34-1.06a133.21,133.21,0,0,1-13.44-2.64c-2.71-.73-6.31-2.84-7.83-5.76a175.63,175.63,0,0,0-63-68.11c-6.48-4.08-13.35-7.89-20-11.58-3.06-1.7-6.13-3.4-9.19-5.14a1.5,1.5,0,0,1,.8-2.81c15.48.55,38.26,11.83,62.52,30.93s45.35,42.37,58,63.93a1.51,1.51,0,0,1-.07,1.62A1.48,1.48,0,0,1,316.59,183.37ZM204.9,90.3l2.3,1.28c6.67,3.7,13.58,7.53,20.13,11.66a178.64,178.64,0,0,1,64,69.26c.9,1.73,3.51,3.6,5.95,4.25a131.79,131.79,0,0,0,13.14,2.58l3.15.51C288.85,139.76,236.92,97.5,204.9,90.3Z"/></g></g></g></svg>