<svg xmlns="http://www.w3.org/2000/svg" viewBox="0 0 122 146.76"><defs><style>.cls-1,.cls-3{fill:#bf956d;}.cls-1,.cls-2{opacity:0.5;}</style></defs><title>Asset 24</title><g id="Layer_2" data-name="Layer 2"><g id="Home"><path class="cls-1" d="M61,24.76a61,61,0,1,0,61,61A61,61,0,0,0,61,24.76Zm26.27,76.46a5.42,5.42,0,0,1-7.64-.67L61,78.36,42.37,100.55a5.42,5.42,0,0,1-8.31-7L56.85,66.44a5.41,5.41,0,0,1,8.3,0L87.94,93.58A5.43,5.43,0,0,1,87.27,101.22Z"/><g class="cls-2"><path class="cls-3" d="M11.63,10.2H7.26V.23h3.88a5.65,5.65,0,0,1,1.75.24A2.49,2.49,0,0,1,14,1.13a2.55,2.55,0,0,1,.67,1.74,2,2,0,0,1-.76,1.74,3.31,3.31,0,0,1-.35.25L13.2,5a2.7,2.7,0,0,1,1.48.84,2.35,2.35,0,0,1,.55,1.58,2.69,2.69,0,0,1-.72,1.84A3.71,3.71,0,0,1,11.63,10.2ZM9.49,4.27h1a3.65,3.65,0,0,0,1.38-.2.85.85,0,0,0,.45-.87A.89.89,0,0,0,12,2.33a3.16,3.16,0,0,0-1.4-.22H9.49Zm0,4.05H11a3.32,3.32,0,0,0,1.43-.24.91.91,0,0,0,.48-.92.9.9,0,0,0-.51-.92A4.53,4.53,0,0,0,10.8,6H9.49Z"/><path class="cls-3" d="M25.46,10.2l-.92-2.15H20.36l-.93,2.15H17.06l4.31-10h2.15l4.31,10Zm-3-7L21.2,6.09h2.49Z"/><path class="cls-3" d="M34.48,8.23a3.29,3.29,0,0,0,2.68-1.29l1.43,1.47a5.38,5.38,0,0,1-7.8.45A4.92,4.92,0,0,1,29.3,5.19a5,5,0,0,1,1.52-3.71A5.15,5.15,0,0,1,34.54,0a5.28,5.28,0,0,1,4.11,1.87L37.26,3.44a3.22,3.22,0,0,0-2.62-1.31A3,3,0,0,0,32.49,3a2.82,2.82,0,0,0-.89,2.21,3,3,0,0,0,.84,2.23A2.78,2.78,0,0,0,34.48,8.23Z"/><path class="cls-3" d="M41.54.23h2.22V4.32L47.53.23h2.75l-4,4.41L48.21,7.3l2.07,2.9H47.69L44.76,6.27l-1,1.11V10.2H41.54Z"/><path class="cls-3" d="M61,2.16v8H58.73v-8H55.9V.23h7.88V2.16Z"/><path class="cls-3" d="M74.84,8.83a5.45,5.45,0,0,1-7.45,0,4.94,4.94,0,0,1-1.52-3.68,4.92,4.92,0,0,1,1.52-3.67,5.43,5.43,0,0,1,7.45,0,5,5,0,0,1,1.51,3.67A5,5,0,0,1,74.84,8.83Zm-.76-3.67a3.28,3.28,0,0,0-.86-2.28,2.83,2.83,0,0,0-4.21,0,3.27,3.27,0,0,0-.85,2.28A3.23,3.23,0,0,0,69,7.43a2.85,2.85,0,0,0,4.21,0A3.24,3.24,0,0,0,74.08,5.16Z"/><path class="cls-3" d="M87.52,2.16v8H85.29v-8H82.47V.23h7.88V2.16Z"/><path class="cls-3" d="M101.4,8.83a5.45,5.45,0,0,1-7.45,0,4.93,4.93,0,0,1-1.51-3.68A4.91,4.91,0,0,1,94,1.48a5.43,5.43,0,0,1,7.45,0,4.92,4.92,0,0,1,1.52,3.67A4.94,4.94,0,0,1,101.4,8.83Zm-.75-3.67a3.28,3.28,0,0,0-.86-2.28,2.83,2.83,0,0,0-4.21,0,3.28,3.28,0,0,0-.86,2.28,3.24,3.24,0,0,0,.86,2.27,2.85,2.85,0,0,0,4.21,0A3.24,3.24,0,0,0,100.65,5.16Z"/><path class="cls-3" d="M113,1.12a3.41,3.41,0,0,1,1,2.74A3.29,3.29,0,0,1,113,6.57a5.26,5.26,0,0,1-3.29.85h-1.33V10.2H106.1V.23h3.53A5.13,5.13,0,0,1,113,1.12ZM111.34,5a1.87,1.87,0,0,0,.4-1.31,1.4,1.4,0,0,0-.52-1.23,2.9,2.9,0,0,0-1.62-.36h-1.27V5.5h1.5A2,2,0,0,0,111.34,5Z"/></g></g></g></svg>