<svg xmlns="http://www.w3.org/2000/svg" viewBox="0 0 1757 513.01"><defs><style>.cls-1{fill:#e2e9e9;}</style></defs><title>Asset 8</title><g id="Layer_2" data-name="Layer 2"><g id="Our_story" data-name="Our story"><path class="cls-1" d="M1757,0H0L1,388h.13c0,.11-.07.22-.1.34a24.59,24.59,0,0,0-.15,12.37A30.1,30.1,0,0,0,4,408.32a60,60,0,0,0,6.31,8.9,70.81,70.81,0,0,0,6.42,5.91c2.43,1.92,5.1,3.86,7.93,5.8s5.82,3.92,9,5.81,6.39,3.72,9.66,5.58c13.11,7.46,27,14.26,37.24,21,4.24,1.57,8.45,2.79,12.45,4l11.4,3.48c7.18,2.09,13.31,4.14,17.8,6.65l9.24,2.6a677.24,677.24,0,0,0,81.06,17.27l7,1.07,7,.91c4.65.59,9.3,1.22,14,1.76,9.32,1,18.63,2,28,2.68,3.53.41,9.58,4.26,13.92,6.51,66.92,6,133.6,5.82,199.57,2.28l15.45-.88c21.63-6,46.74-8.14,71.18-9.4,10.51-.53,20.89-.89,30.77-1.24a275.36,275.36,0,0,0-31.87,4.34l-28.44,6.41c44-4.31,87.38-10,130.53-15-10,.89-20,1.45-29.88,1.93l15-1.66c1.2-.16,16.08-3.66,36.36-6.79,19-2.93,42.68-5.48,64.31-4.48-4.78.27-9.55.62-14.31,1.09-15.48,1.49-30.9,3.94-46.31,6.76-2.25.38-4.48.7-6.74,1,16.62-1.86,33.19-3.6,49.74-5.1s33.06-2.75,49.67-3.74a1.7,1.7,0,0,1,.24-.09c-6.16-.35-12.31-.47-18.45-.41l7.92-.66c.32-.63,6.26-2.51,13.39-3.58s15.43-1.29,20.37,1.23l17.29-.94,19.16-.85,15.52-.57,6.4-.2s9.36-4.32,9.34-4.82c5.37.37,1,4,6.34,4.24l27.14-.3c14.69-.11,32.09-.14,43.4-.06-.78-1-9.29-3.32-11.84-3.65,3.16-.07,25.52,3.12,34.42,3.85,14.43.15,49.92.33,53.2,0,4.17,0-4.2-2.9-4.2-5.8a406.62,406.62,0,0,0,55.08,8.07l15.43.29c1.59,1.12,2.75,1.88.6,1.87-3.27.32-6.51.55-9.81.73l60.74,1.57c-10.89-.88-21.6-2.17-32.07-3.82l33.25.39,1.35-.06c18.38-6.21,34.24-13.47,47-21.84-12.81,8.4-28.77,15.7-47.22,21.92,15.8.12,39.2-.13,58.6-.48,9.71-.18,18.41-.38,24.66-.57,3.13-.09,5.64-.18,7.36-.27a12.62,12.62,0,0,0,2.61-.23c8.74,0,19.77-1.95,30.11-2.79,9.45-.77,18.3-.59,24.28,2.88-12.52,0-25-1.49-37.54,1.35,58.21-.51,116.23-1.64,174.32-2.85,62.64-1.32,125.32-2.72,188.32-3.57q53.91-.7,108.12-.75c4.79-1.31,12.28-2,14.59-3.62l-12.54,0c0-2.9,8.37-5.79,16.75-4.32,0-2.91-8.38,0-8.38-1.47,0-3.85,4.77-4,10.48-3.52V460a11,11,0,0,1,4-2.51c-2-.32-4.13-.55-6.3-.72l6.3.25ZM1436,477.06a8.64,8.64,0,0,1,2.45-1.26A18.5,18.5,0,0,0,1436,477.06Zm298.15-20.74.87-.18,5.57.22C1738.47,456.33,1736.31,456.32,1734.16,456.32Z"/></g></g></svg>