<svg width="1757" height="800" xmlns="http://www.w3.org/2000/svg" style="vector-effect: non-scaling-stroke;" stroke="null">
 <defs stroke="null">
  <style style="vector-effect: non-scaling-stroke;" stroke="null">.cls-1{fill:#e2e9e9;}</style>
 </defs>
 <title stroke="null">Asset 8</title>
 <g stroke="null">
  <title stroke="null">background</title>
  <rect stroke="null" fill="none" id="canvas_background" height="802" width="1759" y="-1" x="-1"/>
 </g>
 <g stroke="null">
  <title stroke="null">Layer 1</title>
  <g stroke="null" id="Layer_2">
   <g stroke="null" id="Our_story">
    <path stroke="null" id="svg_1" d="m1774,18.902707l-1757,0l1,590.010647l0.13,0c0,0.167271 -0.07,0.334542 -0.1,0.51702a24.59,37.392685 0 0 0 -0.15,18.810391a30.1,45.771445 0 0 0 3.12,11.572116a60,91.23876 0 0 0 6.31,13.533749a70.81,107.676943 0 0 0 6.42,8.987018c2.43,2.91964 5.1,5.869694 7.93,8.819747s5.82,5.960932 9,8.834953s6.39,5.656803 9.66,8.485205c13.11,11.344019 27,21.684412 37.24,31.933566c4.24,2.387414 8.45,4.242602 12.45,6.082584l11.4,5.291848c7.18,3.17815 13.31,6.295474 17.8,10.112296l9.24,3.95368a677.24,1029.842295 0 0 0 81.06,26.261556l7,1.627091l7,1.383788c4.65,0.897181 9.3,1.855188 14,2.676337c9.32,1.520646 18.63,3.041292 28,4.075331c3.53,0.623465 9.58,6.477952 13.92,9.899405c66.92,9.123876 133.6,8.85016 199.57,3.467073l15.45,-1.338168c21.63,-9.123876 46.74,-12.378058 71.18,-14.294072c10.51,-0.805942 20.89,-1.353375 30.77,-1.885601a275.36,418.725082 0 0 0 -31.87,6.599604l-28.44,9.747341c44,-6.553984 87.38,-15.20646 130.53,-22.80969c-10,1.353375 -20,2.204937 -29.88,2.934847l15,-2.524272c1.2,-0.243303 16.08,-5.565564 36.36,-10.325186c19,-4.455493 42.68,-8.33314 64.31,-6.812494c-4.78,0.410574 -9.55,0.942801 -14.31,1.657504c-15.48,2.265763 -30.9,5.991345 -46.31,10.279567c-2.25,0.577845 -4.48,1.064452 -6.74,1.520646c16.62,-2.828402 33.19,-5.474326 49.74,-7.755295s33.06,-4.181776 49.67,-5.687216a1.7,2.585098 0 0 1 0.24,-0.136858c-6.16,-0.532226 -12.31,-0.714704 -18.45,-0.623465l7.92,-1.003626c0.32,-0.958007 6.26,-3.816821 13.39,-5.443913s15.43,-1.961633 20.37,1.870395l17.29,-1.429407l19.16,-1.292549l15.52,-0.866768l6.4,-0.304129s9.36,-6.569191 9.34,-7.329514c5.37,0.562639 1,6.082584 6.34,6.447539l27.14,-0.456194c14.69,-0.167271 32.09,-0.21289 43.4,-0.091239c-0.78,-1.520646 -9.29,-5.048545 -11.84,-5.550358c3.16,-0.106445 25.52,4.744416 34.42,5.854487c14.43,0.228097 49.92,0.501813 53.2,0c4.17,0 -4.2,-4.409873 -4.2,-8.819747a406.62,618.325075 0 0 0 55.08,12.271613l15.43,0.440987c1.59,1.703124 2.75,2.858814 0.6,2.843608c-3.27,0.486607 -6.51,0.836355 -9.81,1.110072l60.74,2.387414c-10.89,-1.338168 -21.6,-3.299802 -32.07,-5.808868l33.25,0.593052l1.35,-0.091239c18.38,-9.443212 34.24,-20.483102 47,-33.210909c-12.81,12.773426 -28.77,23.874142 -47.22,33.33256c15.8,0.182478 39.2,-0.197684 58.6,-0.72991c9.71,-0.273716 18.41,-0.577845 24.66,-0.866768c3.13,-0.136858 5.64,-0.273716 7.36,-0.410574a12.62,19.190552 0 0 0 2.61,-0.349749c8.74,0 19.77,-2.96526 30.11,-4.242602c9.45,-1.170897 18.3,-0.897181 24.28,4.37946c-12.52,0 -25,-2.265763 -37.54,2.052872c58.21,-0.775529 116.23,-2.493859 174.32,-4.333841c62.64,-2.007253 125.32,-4.136157 188.32,-5.428706q53.91,-1.064452 108.12,-1.140484c4.79,-1.992046 12.28,-3.041292 14.59,-5.504739l-12.54,0c0,-4.409873 8.37,-8.80454 16.75,-6.569191c0,-4.42508 -8.38,0 -8.38,-2.23535c0,-5.854487 4.77,-6.082584 10.48,-5.352674l0,-0.106445a11,16.727106 0 0 1 4,-3.816821c-2,-0.486607 -4.13,-0.836355 -6.3,-1.094865l6.3,0.380161l-0.19,-694.965634zm-321,725.439379a8.64,13.138381 0 0 1 2.45,-1.916014a18.5,28.131951 0 0 0 -2.45,1.916014zm298.15,-31.538198l0.87,-0.273716l5.57,0.334542c-2.12,-0.045619 -4.28,-0.060826 -6.43,-0.060826l-0.01,0z" class="cls-1"/>
   </g>
  </g>
 </g>
</svg>