<svg xmlns="http://www.w3.org/2000/svg" viewBox="0 0 59.64 59.64"><defs><style>.cls-1{fill:#6b6b6b;}</style></defs><title>Asset 1</title><g id="Layer_2" data-name="Layer 2"><g id="Layer_1-2" data-name="Layer 1"><path class="cls-1" d="M35.53,29.82a5.71,5.71,0,1,1-5.71-5.71A5.71,5.71,0,0,1,35.53,29.82Z"/><path class="cls-1" d="M43.17,19.72a5.66,5.66,0,0,0-3.25-3.25,9.67,9.67,0,0,0-3.18-.59c-1.81-.08-2.35-.1-6.92-.1s-5.11,0-6.92.1a9.67,9.67,0,0,0-3.18.59,5.66,5.66,0,0,0-3.25,3.25,9.67,9.67,0,0,0-.59,3.18c-.08,1.81-.1,2.35-.1,6.92s0,5.11.1,6.92a9.67,9.67,0,0,0,.59,3.18,5.66,5.66,0,0,0,3.25,3.25,9.67,9.67,0,0,0,3.18.59c1.81.08,2.35.1,6.92.1s5.11,0,6.92-.1a9.67,9.67,0,0,0,3.18-.59,5.71,5.71,0,0,0,3.25-3.25,9.67,9.67,0,0,0,.59-3.18c.08-1.81.1-2.35.1-6.92s0-5.11-.1-6.92A9.67,9.67,0,0,0,43.17,19.72ZM29.82,38.61a8.79,8.79,0,1,1,8.79-8.79A8.78,8.78,0,0,1,29.82,38.61ZM39,22.73A2.06,2.06,0,1,1,41,20.68,2.05,2.05,0,0,1,39,22.73Z"/><path class="cls-1" d="M29.82,0A29.82,29.82,0,1,0,59.64,29.82,29.82,29.82,0,0,0,29.82,0Zm17,36.88A12.35,12.35,0,0,1,46,41a8.73,8.73,0,0,1-5,5,12.35,12.35,0,0,1-4.16.8c-1.83.08-2.41.1-7.06.1s-5.23,0-7.06-.1A12.35,12.35,0,0,1,18.6,46a8.71,8.71,0,0,1-5-5,12.35,12.35,0,0,1-.8-4.16c-.08-1.83-.1-2.41-.1-7.06s0-5.23.1-7.06a12.35,12.35,0,0,1,.8-4.16,8.71,8.71,0,0,1,5-5,12.35,12.35,0,0,1,4.16-.8c1.83-.08,2.41-.1,7.06-.1s5.23,0,7.06.1a12.35,12.35,0,0,1,4.16.8,8.71,8.71,0,0,1,5,5,12.35,12.35,0,0,1,.8,4.16c.08,1.83.1,2.41.1,7.06S46.92,35.05,46.84,36.88Z"/></g></g></svg>