<svg xmlns="http://www.w3.org/2000/svg" viewBox="0 0 90 87.99"><defs><style>.cls-1{fill:#443d39;}</style></defs><title>Asset 18</title><g id="Layer_2" data-name="Layer 2"><g id="Home"><path class="cls-1" d="M22.42,31.9A11.44,11.44,0,0,1,22,29.11a13.13,13.13,0,0,1,.24-2.7,5.8,5.8,0,0,1,1.16-2.32H0a15.94,15.94,0,0,1,4.05,4.42,56.53,56.53,0,0,1,4.14,7.76q.74,1.68,2.37,5.58t3.67,9q2,5.07,4.28,10.7t4.28,10.78q2,5.18,3.62,9.35c1.06,2.79,1.83,4.9,2.33,6.33H35c.37-1.31,5.52-21,6.14-22.78a26.69,26.69,0,0,1-2.65,3.49c-.49.5-1,1.06-1.64,1.06s-1.35-.53-1.81-1.59-1.13-2.75-2-5.11q-4.1-11.25-6.65-18.65T23.25,35c-.31-1-.59-2.07-.83-3.07M82.36,5.8C67.82,3.65,59,11.72,54.46,18c6-14.09,17.87-18,17.87-18a27.21,27.21,0,0,0-20.8,14.56A27,27,0,0,0,36.84,0s9.63,6.37,12.23,20.33c0,0,0,.08,0,.12C45.92,15,40.09,8.86,29.46,8.38c0,0,11.49,2.56,17.42,15.69-3.54-4-9.66-8.25-18.8-6.4a22.57,22.57,0,0,1,14.69,6.42H36.09q5.85,1.77,8.32,6.09T46.88,42c0,2.17-.4,5.18-.59,7.78.71-2.38,1.81-5.42,2.74-8a69,69,0,0,1,3.27-6.32c14.73-19.22,32.34-13,32.34-13A22.5,22.5,0,0,0,65,20.84c12.44-9.49,25-8.7,25-8.7-13.8-3.29-24.06,1.28-31,6.94C69,6.11,82.36,5.8,82.36,5.8"/></g></g></svg>