<svg xmlns="http://www.w3.org/2000/svg" viewBox="0 0 380.33 117.56"><defs><style>.cls-1{fill:#929292;}</style></defs><title>Asset 25</title><g id="Layer_2" data-name="Layer 2"><g id="Home"><path class="cls-1" d="M30,42.63a15.53,15.53,0,0,1-.5-3.73,17.84,17.84,0,0,1,.31-3.61,7.81,7.81,0,0,1,1.56-3.1H0a21.3,21.3,0,0,1,5.41,5.9,75.16,75.16,0,0,1,5.53,10.38c.66,1.49,1.71,4,3.17,7.45s3.08,7.48,4.9,12,3.73,9.28,5.72,14.3S28.62,92,30.45,96.62s3.43,8.76,4.84,12.49,2.45,6.55,3.11,8.45h8.34c.5-1.74,7.37-28,8.2-30.43a35.68,35.68,0,0,1-3.54,4.66c-.66.67-1.28,1.41-2.19,1.41s-1.8-.7-2.42-2.11-1.52-3.68-2.67-6.83q-5.48-15-8.89-24.92T31.07,46.73c-.42-1.41-.79-2.78-1.12-4.1M110,7.75C90.62,4.88,78.85,15.66,72.77,24.09,80.78,5.27,96.64,0,96.64,0c-15,2.28-23.27,11-27.79,19.45C65.76,12.07,59.94,4.69,49.22,0c0,0,12.87,8.51,16.34,27.16a.84.84,0,0,1,0,.17C61.36,20.05,53.57,11.84,39.36,11.2c0,0,15.35,3.42,23.28,21-4.73-5.29-12.9-11-25.12-8.55,0,0,10.34-.22,19.63,8.58H48.22q7.83,2.36,11.12,8.14t3.29,15.84c0,2.9-.53,6.92-.78,10.4.95-3.18,2.41-7.25,3.67-10.76a87.43,87.43,0,0,1,4.36-8.44C89.56,21.68,113.09,30,113.09,30,103,24.36,93.9,25.19,86.89,27.85c16.62-12.68,33.36-11.63,33.36-11.63-18.44-4.39-32.14,1.71-41.45,9.27C92.15,8.16,110,7.75,110,7.75"/><path class="cls-1" d="M130.42,67.58,119.78,91.84h-3.43L105.68,67.58h3.74l8.73,19.93L127,67.58Z"/><path class="cls-1" d="M145.81,67.58h3.46V91.84h-3.46Z"/><path class="cls-1" d="M189.19,67.58V91.84h-2.84L171.79,73.75V91.84h-3.46V67.58h2.84l14.55,18.09V67.58Z"/><path class="cls-1" d="M212.58,90.5A11.84,11.84,0,0,1,208,86.05a12.74,12.74,0,0,1,0-12.68,11.84,11.84,0,0,1,4.62-4.45,14.25,14.25,0,0,1,13.2,0,11.77,11.77,0,0,1,4.61,4.43,12.95,12.95,0,0,1,0,12.72,11.77,11.77,0,0,1-4.61,4.43,14.25,14.25,0,0,1-13.2,0ZM224,87.82a8.9,8.9,0,0,0,3.36-3.34,9.86,9.86,0,0,0,0-9.54A8.9,8.9,0,0,0,224,71.6a9.51,9.51,0,0,0-4.8-1.21,9.68,9.68,0,0,0-4.83,1.21,8.8,8.8,0,0,0-3.4,3.34,9.86,9.86,0,0,0,0,9.54,8.8,8.8,0,0,0,3.4,3.34A9.68,9.68,0,0,0,219.2,89,9.51,9.51,0,0,0,224,87.82Z"/><path class="cls-1" d="M270.24,67.58h3.47V91.84h-3.47Z"/><path class="cls-1" d="M294.52,91.27a10.89,10.89,0,0,1-4-2.2l1.28-2.71a10.64,10.64,0,0,0,3.55,2,13,13,0,0,0,4.45.78,8.07,8.07,0,0,0,4.51-1,3.16,3.16,0,0,0,1.49-2.72,2.67,2.67,0,0,0-.82-2,5.44,5.44,0,0,0-2-1.2c-.79-.27-1.92-.58-3.38-.93A34.81,34.81,0,0,1,295.18,80a7.36,7.36,0,0,1-2.88-2,5.44,5.44,0,0,1-1.2-3.7,6.27,6.27,0,0,1,1-3.5,7,7,0,0,1,3.1-2.49,12.59,12.59,0,0,1,5.16-.94,16.38,16.38,0,0,1,4.23.56,11.35,11.35,0,0,1,3.57,1.59L307,72.23a12.56,12.56,0,0,0-3.25-1.48,12.39,12.39,0,0,0-3.4-.5A7.54,7.54,0,0,0,296,71.32a3.3,3.3,0,0,0-1.47,2.78,2.65,2.65,0,0,0,.83,2,5.84,5.84,0,0,0,2.06,1.22,31.48,31.48,0,0,0,3.35.91,34.09,34.09,0,0,1,4.4,1.32,7.45,7.45,0,0,1,2.86,2,5.32,5.32,0,0,1,1.19,3.64,6.13,6.13,0,0,1-1,3.48A6.93,6.93,0,0,1,305,91.2a13.08,13.08,0,0,1-5.2.92A16.78,16.78,0,0,1,294.52,91.27Z"/><path class="cls-1" d="M326,67.58h3.47V88.82h13.13v3H326Z"/><path class="cls-1" d="M374,85.77H361.14l-2.67,6.07H354.9l11-24.26h3.44l11,24.26H376.7ZM372.82,83l-5.24-11.88L362.35,83Z"/></g></g></svg>