<svg xmlns="http://www.w3.org/2000/svg" viewBox="0 0 219.99 19.87"><defs><style>.cls-1{fill:#443d39;}</style></defs><title>Asset 17</title><g id="Layer_2" data-name="Layer 2"><g id="Home"><path class="cls-1" d="M19.82.22,11.3,19.65H8.55L0,.22H3l7,16,7-16Z"/><path class="cls-1" d="M32.14.22h2.78V19.65H32.14Z"/><path class="cls-1" d="M66.89.22V19.65H64.61L53,5.16V19.65H50.18V.22h2.28L64.11,14.71V.22Z"/><path class="cls-1" d="M85.62,18.58A9.59,9.59,0,0,1,81.92,15a9.77,9.77,0,0,1-1.35-5.08,9.75,9.75,0,0,1,1.35-5.08,9.55,9.55,0,0,1,3.7-3.57,11.49,11.49,0,0,1,10.58,0,9.55,9.55,0,0,1,3.69,3.55,9.85,9.85,0,0,1,1.33,5.1A9.84,9.84,0,0,1,99.89,15a9.47,9.47,0,0,1-3.69,3.55,10.8,10.8,0,0,1-5.27,1.29A10.9,10.9,0,0,1,85.62,18.58Zm9.15-2.15a7.07,7.07,0,0,0,2.69-2.68,7.47,7.47,0,0,0,1-3.81,7.48,7.48,0,0,0-1-3.82,7.07,7.07,0,0,0-2.69-2.68,7.61,7.61,0,0,0-3.84-1,7.79,7.79,0,0,0-3.88,1,7.14,7.14,0,0,0-2.72,2.68,7.57,7.57,0,0,0-1,3.82,7.56,7.56,0,0,0,1,3.81,7.14,7.14,0,0,0,2.72,2.68,7.79,7.79,0,0,0,3.88,1A7.61,7.61,0,0,0,94.77,16.43Z"/><path class="cls-1" d="M131.81.22h2.78V19.65h-2.78Z"/><path class="cls-1" d="M151.25,19.19a8.58,8.58,0,0,1-3.2-1.76l1-2.16a8.66,8.66,0,0,0,2.85,1.62,10.3,10.3,0,0,0,3.56.62,6.38,6.38,0,0,0,3.61-.82,2.51,2.51,0,0,0,1.2-2.17,2.15,2.15,0,0,0-.66-1.63,4.35,4.35,0,0,0-1.61-1,24.86,24.86,0,0,0-2.7-.75,29.8,29.8,0,0,1-3.54-1.06,5.75,5.75,0,0,1-2.3-1.62,4.34,4.34,0,0,1-1-3,5,5,0,0,1,.82-2.8,5.6,5.6,0,0,1,2.48-2A10.08,10.08,0,0,1,156,0a13.34,13.34,0,0,1,3.38.44,9.17,9.17,0,0,1,2.86,1.28l-.91,2.22a10.22,10.22,0,0,0-2.61-1.18,9.69,9.69,0,0,0-2.72-.4,6,6,0,0,0-3.54.86,2.62,2.62,0,0,0-1.18,2.22,2.11,2.11,0,0,0,.66,1.62,4.78,4.78,0,0,0,1.66,1,26.48,26.48,0,0,0,2.67.73,25.38,25.38,0,0,1,3.53,1.06,5.83,5.83,0,0,1,2.29,1.61,4.22,4.22,0,0,1,1,2.91,4.92,4.92,0,0,1-.84,2.79,5.54,5.54,0,0,1-2.52,2,10.49,10.49,0,0,1-4.17.73A13.1,13.1,0,0,1,151.25,19.19Z"/><path class="cls-1" d="M176.5.22h2.77v17h10.52v2.41H176.5Z"/><path class="cls-1" d="M214.94,14.79H204.61l-2.14,4.86h-2.85L208.41.22h2.75L220,19.65h-2.92Zm-1-2.22-4.19-9.52-4.19,9.52Z"/></g></g></svg>