<svg xmlns="http://www.w3.org/2000/svg" viewBox="0 0 59.63 59.63"><defs><style>.cls-1{fill:#6b6b6b;}</style></defs><title>Asset 26</title><g id="Layer_2" data-name="Layer 2"><g id="Home"><path class="cls-1" d="M29.81,0A29.82,29.82,0,1,0,59.63,29.81,29.84,29.84,0,0,0,29.81,0Zm13.3,23c0,.3,0,.59,0,.89,0,9.07-6.9,19.52-19.52,19.52a19.39,19.39,0,0,1-10.52-3.08,14.74,14.74,0,0,0,1.64.1,13.78,13.78,0,0,0,8.52-2.94,6.87,6.87,0,0,1-6.41-4.77,6.88,6.88,0,0,0,1.29.13,6.81,6.81,0,0,0,1.81-.24,6.87,6.87,0,0,1-5.51-6.73v-.09a6.73,6.73,0,0,0,3.11.86,6.87,6.87,0,0,1-2.12-9.16,19.49,19.49,0,0,0,14.14,7.17,6.66,6.66,0,0,1-.18-1.56,6.86,6.86,0,0,1,11.87-4.7,13.7,13.7,0,0,0,4.36-1.67,6.85,6.85,0,0,1-3,3.8,13.29,13.29,0,0,0,3.94-1.08A13.59,13.59,0,0,1,43.11,23Z"/></g></g></svg>